G04 #@! TF.GenerationSoftware,KiCad,Pcbnew,(5.1.6)-1*
G04 #@! TF.CreationDate,2020-10-15T10:51:02+02:00*
G04 #@! TF.ProjectId,DynOSSAT-EDU-Comms,44796e4f-5353-4415-942d-4544552d436f,rev?*
G04 #@! TF.SameCoordinates,Original*
G04 #@! TF.FileFunction,Other,Fab,Bot*
%FSLAX46Y46*%
G04 Gerber Fmt 4.6, Leading zero omitted, Abs format (unit mm)*
G04 Created by KiCad (PCBNEW (5.1.6)-1) date 2020-10-15 10:51:02*
%MOMM*%
%LPD*%
G01*
G04 APERTURE LIST*
%ADD10C,0.100000*%
%ADD11C,0.150000*%
G04 APERTURE END LIST*
D10*
X161236000Y-95011000D02*
X161236000Y-93726000D01*
X160836000Y-95011000D02*
X161236000Y-95011000D01*
X160836000Y-93726000D02*
X160836000Y-95011000D01*
X161236000Y-89901000D02*
X160836000Y-89901000D01*
X161236000Y-91186000D02*
X161236000Y-89901000D01*
X160836000Y-89901000D02*
X160836000Y-91186000D01*
X159966000Y-95011000D02*
X159966000Y-93726000D01*
X159566000Y-95011000D02*
X159966000Y-95011000D01*
X159566000Y-93726000D02*
X159566000Y-95011000D01*
X159966000Y-89901000D02*
X159566000Y-89901000D01*
X159966000Y-91186000D02*
X159966000Y-89901000D01*
X159566000Y-89901000D02*
X159566000Y-91186000D01*
X158696000Y-95011000D02*
X158696000Y-93726000D01*
X158296000Y-95011000D02*
X158696000Y-95011000D01*
X158296000Y-93726000D02*
X158296000Y-95011000D01*
X158696000Y-89901000D02*
X158296000Y-89901000D01*
X158696000Y-91186000D02*
X158696000Y-89901000D01*
X158296000Y-89901000D02*
X158296000Y-91186000D01*
X157426000Y-95011000D02*
X157426000Y-93726000D01*
X157026000Y-95011000D02*
X157426000Y-95011000D01*
X157026000Y-93726000D02*
X157026000Y-95011000D01*
X157426000Y-89901000D02*
X157026000Y-89901000D01*
X157426000Y-91186000D02*
X157426000Y-89901000D01*
X157026000Y-89901000D02*
X157026000Y-91186000D01*
X156156000Y-95011000D02*
X156156000Y-93726000D01*
X155756000Y-95011000D02*
X156156000Y-95011000D01*
X155756000Y-93726000D02*
X155756000Y-95011000D01*
X156156000Y-89901000D02*
X155756000Y-89901000D01*
X156156000Y-91186000D02*
X156156000Y-89901000D01*
X155756000Y-89901000D02*
X155756000Y-91186000D01*
X154886000Y-95011000D02*
X154886000Y-93726000D01*
X154486000Y-95011000D02*
X154886000Y-95011000D01*
X154486000Y-93726000D02*
X154486000Y-95011000D01*
X154886000Y-89901000D02*
X154486000Y-89901000D01*
X154886000Y-91186000D02*
X154886000Y-89901000D01*
X154486000Y-89901000D02*
X154486000Y-91186000D01*
X153616000Y-95011000D02*
X153616000Y-93726000D01*
X153216000Y-95011000D02*
X153616000Y-95011000D01*
X153216000Y-93726000D02*
X153216000Y-95011000D01*
X153616000Y-89901000D02*
X153216000Y-89901000D01*
X153616000Y-91186000D02*
X153616000Y-89901000D01*
X153216000Y-89901000D02*
X153216000Y-91186000D01*
X152346000Y-95011000D02*
X152346000Y-93726000D01*
X151946000Y-95011000D02*
X152346000Y-95011000D01*
X151946000Y-93726000D02*
X151946000Y-95011000D01*
X152346000Y-89901000D02*
X151946000Y-89901000D01*
X152346000Y-91186000D02*
X152346000Y-89901000D01*
X151946000Y-89901000D02*
X151946000Y-91186000D01*
X151076000Y-95011000D02*
X151076000Y-93726000D01*
X150676000Y-95011000D02*
X151076000Y-95011000D01*
X150676000Y-93726000D02*
X150676000Y-95011000D01*
X151076000Y-89901000D02*
X150676000Y-89901000D01*
X151076000Y-91186000D02*
X151076000Y-89901000D01*
X150676000Y-89901000D02*
X150676000Y-91186000D01*
X149806000Y-95011000D02*
X149806000Y-93726000D01*
X149406000Y-95011000D02*
X149806000Y-95011000D01*
X149406000Y-93726000D02*
X149406000Y-95011000D01*
X149806000Y-89901000D02*
X149406000Y-89901000D01*
X149806000Y-91186000D02*
X149806000Y-89901000D01*
X149406000Y-89901000D02*
X149406000Y-91186000D01*
X148536000Y-95011000D02*
X148536000Y-93726000D01*
X148136000Y-95011000D02*
X148536000Y-95011000D01*
X148136000Y-93726000D02*
X148136000Y-95011000D01*
X148536000Y-89901000D02*
X148136000Y-89901000D01*
X148536000Y-91186000D02*
X148536000Y-89901000D01*
X148136000Y-89901000D02*
X148136000Y-91186000D01*
X147266000Y-95011000D02*
X147266000Y-93726000D01*
X146866000Y-95011000D02*
X147266000Y-95011000D01*
X146866000Y-93726000D02*
X146866000Y-95011000D01*
X147266000Y-89901000D02*
X146866000Y-89901000D01*
X147266000Y-91186000D02*
X147266000Y-89901000D01*
X146866000Y-89901000D02*
X146866000Y-91186000D01*
X145996000Y-95011000D02*
X145996000Y-93726000D01*
X145596000Y-95011000D02*
X145996000Y-95011000D01*
X145596000Y-93726000D02*
X145596000Y-95011000D01*
X145996000Y-89901000D02*
X145596000Y-89901000D01*
X145996000Y-91186000D02*
X145996000Y-89901000D01*
X145596000Y-89901000D02*
X145596000Y-91186000D01*
X144726000Y-95011000D02*
X144726000Y-93726000D01*
X144326000Y-95011000D02*
X144726000Y-95011000D01*
X144326000Y-93726000D02*
X144326000Y-95011000D01*
X144726000Y-89901000D02*
X144326000Y-89901000D01*
X144726000Y-91186000D02*
X144726000Y-89901000D01*
X144326000Y-89901000D02*
X144326000Y-91186000D01*
X143456000Y-95011000D02*
X143456000Y-93726000D01*
X143056000Y-95011000D02*
X143456000Y-95011000D01*
X143056000Y-93726000D02*
X143056000Y-95011000D01*
X143456000Y-89901000D02*
X143056000Y-89901000D01*
X143456000Y-91186000D02*
X143456000Y-89901000D01*
X143056000Y-89901000D02*
X143056000Y-91186000D01*
X142186000Y-95011000D02*
X142186000Y-93726000D01*
X141786000Y-95011000D02*
X142186000Y-95011000D01*
X141786000Y-93726000D02*
X141786000Y-95011000D01*
X142186000Y-89901000D02*
X141786000Y-89901000D01*
X142186000Y-91186000D02*
X142186000Y-89901000D01*
X141786000Y-89901000D02*
X141786000Y-91186000D01*
X140916000Y-95011000D02*
X140916000Y-93726000D01*
X140516000Y-95011000D02*
X140916000Y-95011000D01*
X140516000Y-93726000D02*
X140516000Y-95011000D01*
X140916000Y-89901000D02*
X140516000Y-89901000D01*
X140916000Y-91186000D02*
X140916000Y-89901000D01*
X140516000Y-89901000D02*
X140516000Y-91186000D01*
X139646000Y-95011000D02*
X139646000Y-93726000D01*
X139246000Y-95011000D02*
X139646000Y-95011000D01*
X139246000Y-93726000D02*
X139246000Y-95011000D01*
X139646000Y-89901000D02*
X139246000Y-89901000D01*
X139646000Y-91186000D02*
X139646000Y-89901000D01*
X139246000Y-89901000D02*
X139246000Y-91186000D01*
X138376000Y-95011000D02*
X138376000Y-93726000D01*
X137976000Y-95011000D02*
X138376000Y-95011000D01*
X137976000Y-93726000D02*
X137976000Y-95011000D01*
X138376000Y-89901000D02*
X137976000Y-89901000D01*
X138376000Y-91186000D02*
X138376000Y-89901000D01*
X137976000Y-89901000D02*
X137976000Y-91186000D01*
X137106000Y-95011000D02*
X137106000Y-93726000D01*
X136706000Y-95011000D02*
X137106000Y-95011000D01*
X136706000Y-93726000D02*
X136706000Y-95011000D01*
X137106000Y-89901000D02*
X136706000Y-89901000D01*
X137106000Y-91186000D02*
X137106000Y-89901000D01*
X136706000Y-89901000D02*
X136706000Y-91186000D01*
X161671000Y-91186000D02*
X136271000Y-91186000D01*
X161671000Y-93726000D02*
X161671000Y-91186000D01*
X136906000Y-93726000D02*
X161671000Y-93726000D01*
X136271000Y-93091000D02*
X136906000Y-93726000D01*
X136271000Y-91186000D02*
X136271000Y-93091000D01*
D11*
X163528142Y-84813142D02*
X163575761Y-84765523D01*
X163623380Y-84622666D01*
X163623380Y-84527428D01*
X163575761Y-84384571D01*
X163480523Y-84289333D01*
X163385285Y-84241714D01*
X163194809Y-84194095D01*
X163051952Y-84194095D01*
X162861476Y-84241714D01*
X162766238Y-84289333D01*
X162671000Y-84384571D01*
X162623380Y-84527428D01*
X162623380Y-84622666D01*
X162671000Y-84765523D01*
X162718619Y-84813142D01*
X163623380Y-85384571D02*
X163575761Y-85289333D01*
X163528142Y-85241714D01*
X163432904Y-85194095D01*
X163147190Y-85194095D01*
X163051952Y-85241714D01*
X163004333Y-85289333D01*
X162956714Y-85384571D01*
X162956714Y-85527428D01*
X163004333Y-85622666D01*
X163051952Y-85670285D01*
X163147190Y-85717904D01*
X163432904Y-85717904D01*
X163528142Y-85670285D01*
X163575761Y-85622666D01*
X163623380Y-85527428D01*
X163623380Y-85384571D01*
X162956714Y-86146476D02*
X163623380Y-86146476D01*
X163051952Y-86146476D02*
X163004333Y-86194095D01*
X162956714Y-86289333D01*
X162956714Y-86432190D01*
X163004333Y-86527428D01*
X163099571Y-86575047D01*
X163623380Y-86575047D01*
X162956714Y-87051238D02*
X163623380Y-87051238D01*
X163051952Y-87051238D02*
X163004333Y-87098857D01*
X162956714Y-87194095D01*
X162956714Y-87336952D01*
X163004333Y-87432190D01*
X163099571Y-87479809D01*
X163623380Y-87479809D01*
X163718619Y-87717904D02*
X163718619Y-88479809D01*
X162623380Y-88908380D02*
X162623380Y-89003619D01*
X162671000Y-89098857D01*
X162718619Y-89146476D01*
X162813857Y-89194095D01*
X163004333Y-89241714D01*
X163242428Y-89241714D01*
X163432904Y-89194095D01*
X163528142Y-89146476D01*
X163575761Y-89098857D01*
X163623380Y-89003619D01*
X163623380Y-88908380D01*
X163575761Y-88813142D01*
X163528142Y-88765523D01*
X163432904Y-88717904D01*
X163242428Y-88670285D01*
X163004333Y-88670285D01*
X162813857Y-88717904D01*
X162718619Y-88765523D01*
X162671000Y-88813142D01*
X162623380Y-88908380D01*
X162718619Y-89622666D02*
X162671000Y-89670285D01*
X162623380Y-89765523D01*
X162623380Y-90003619D01*
X162671000Y-90098857D01*
X162718619Y-90146476D01*
X162813857Y-90194095D01*
X162909095Y-90194095D01*
X163051952Y-90146476D01*
X163623380Y-89575047D01*
X163623380Y-90194095D01*
X163623380Y-90527428D02*
X162956714Y-91051238D01*
X162956714Y-90527428D02*
X163623380Y-91051238D01*
X162718619Y-91384571D02*
X162671000Y-91432190D01*
X162623380Y-91527428D01*
X162623380Y-91765523D01*
X162671000Y-91860761D01*
X162718619Y-91908380D01*
X162813857Y-91956000D01*
X162909095Y-91956000D01*
X163051952Y-91908380D01*
X163623380Y-91336952D01*
X163623380Y-91956000D01*
X162623380Y-92575047D02*
X162623380Y-92670285D01*
X162671000Y-92765523D01*
X162718619Y-92813142D01*
X162813857Y-92860761D01*
X163004333Y-92908380D01*
X163242428Y-92908380D01*
X163432904Y-92860761D01*
X163528142Y-92813142D01*
X163575761Y-92765523D01*
X163623380Y-92670285D01*
X163623380Y-92575047D01*
X163575761Y-92479809D01*
X163528142Y-92432190D01*
X163432904Y-92384571D01*
X163242428Y-92336952D01*
X163004333Y-92336952D01*
X162813857Y-92384571D01*
X162718619Y-92432190D01*
X162671000Y-92479809D01*
X162623380Y-92575047D01*
X163718619Y-93098857D02*
X163718619Y-93860761D01*
X162623380Y-94289333D02*
X162623380Y-94479809D01*
X162671000Y-94575047D01*
X162766238Y-94670285D01*
X162956714Y-94717904D01*
X163290047Y-94717904D01*
X163480523Y-94670285D01*
X163575761Y-94575047D01*
X163623380Y-94479809D01*
X163623380Y-94289333D01*
X163575761Y-94194095D01*
X163480523Y-94098857D01*
X163290047Y-94051238D01*
X162956714Y-94051238D01*
X162766238Y-94098857D01*
X162671000Y-94194095D01*
X162623380Y-94289333D01*
X163623380Y-95575047D02*
X162623380Y-95575047D01*
X163575761Y-95575047D02*
X163623380Y-95479809D01*
X163623380Y-95289333D01*
X163575761Y-95194095D01*
X163528142Y-95146476D01*
X163432904Y-95098857D01*
X163147190Y-95098857D01*
X163051952Y-95146476D01*
X163004333Y-95194095D01*
X162956714Y-95289333D01*
X162956714Y-95479809D01*
X163004333Y-95575047D01*
X163623380Y-96479809D02*
X162623380Y-96479809D01*
X163575761Y-96479809D02*
X163623380Y-96384571D01*
X163623380Y-96194095D01*
X163575761Y-96098857D01*
X163528142Y-96051238D01*
X163432904Y-96003619D01*
X163147190Y-96003619D01*
X163051952Y-96051238D01*
X163004333Y-96098857D01*
X162956714Y-96194095D01*
X162956714Y-96384571D01*
X163004333Y-96479809D01*
X163718619Y-96717904D02*
X163718619Y-97479809D01*
X163099571Y-97717904D02*
X163099571Y-98051238D01*
X163623380Y-98194095D02*
X163623380Y-97717904D01*
X162623380Y-97717904D01*
X162623380Y-98194095D01*
X162956714Y-98527428D02*
X163623380Y-98765523D01*
X162956714Y-99003619D01*
X163575761Y-99765523D02*
X163623380Y-99670285D01*
X163623380Y-99479809D01*
X163575761Y-99384571D01*
X163480523Y-99336952D01*
X163099571Y-99336952D01*
X163004333Y-99384571D01*
X162956714Y-99479809D01*
X162956714Y-99670285D01*
X163004333Y-99765523D01*
X163099571Y-99813142D01*
X163194809Y-99813142D01*
X163290047Y-99336952D01*
X162956714Y-100241714D02*
X163623380Y-100241714D01*
X163051952Y-100241714D02*
X163004333Y-100289333D01*
X162956714Y-100384571D01*
X162956714Y-100527428D01*
X163004333Y-100622666D01*
X163099571Y-100670285D01*
X163623380Y-100670285D01*
X149304333Y-91908380D02*
X149304333Y-92622666D01*
X149351952Y-92765523D01*
X149447190Y-92860761D01*
X149590047Y-92908380D01*
X149685285Y-92908380D01*
X148875761Y-92003619D02*
X148828142Y-91956000D01*
X148732904Y-91908380D01*
X148494809Y-91908380D01*
X148399571Y-91956000D01*
X148351952Y-92003619D01*
X148304333Y-92098857D01*
X148304333Y-92194095D01*
X148351952Y-92336952D01*
X148923380Y-92908380D01*
X148304333Y-92908380D01*
M02*
