G04 #@! TF.GenerationSoftware,KiCad,Pcbnew,(5.1.6)-1*
G04 #@! TF.CreationDate,2020-11-06T20:35:05+01:00*
G04 #@! TF.ProjectId,DynOSSAT-EDU-Comms,44796e4f-5353-4415-942d-4544552d436f,rev?*
G04 #@! TF.SameCoordinates,Original*
G04 #@! TF.FileFunction,Copper,L2,Inr*
G04 #@! TF.FilePolarity,Positive*
%FSLAX46Y46*%
G04 Gerber Fmt 4.6, Leading zero omitted, Abs format (unit mm)*
G04 Created by KiCad (PCBNEW (5.1.6)-1) date 2020-11-06 20:35:05*
%MOMM*%
%LPD*%
G01*
G04 APERTURE LIST*
G04 #@! TA.AperFunction,ViaPad*
%ADD10C,5.000000*%
G04 #@! TD*
G04 #@! TA.AperFunction,ViaPad*
%ADD11C,0.800000*%
G04 #@! TD*
G04 #@! TA.AperFunction,ViaPad*
%ADD12O,1.600000X1.000000*%
G04 #@! TD*
G04 #@! TA.AperFunction,ViaPad*
%ADD13O,2.100000X1.000000*%
G04 #@! TD*
G04 #@! TA.AperFunction,ViaPad*
%ADD14R,1.700000X1.700000*%
G04 #@! TD*
G04 #@! TA.AperFunction,ViaPad*
%ADD15O,1.700000X1.700000*%
G04 #@! TD*
G04 #@! TA.AperFunction,ViaPad*
%ADD16C,0.450000*%
G04 #@! TD*
G04 #@! TA.AperFunction,Conductor*
%ADD17C,0.200000*%
G04 #@! TD*
G04 APERTURE END LIST*
D10*
X130903000Y-91513000D03*
D11*
X132778000Y-91513000D03*
X132228825Y-92838825D03*
X130903000Y-93388000D03*
X129577175Y-92838825D03*
X129028000Y-91513000D03*
X129577175Y-90187175D03*
X130903000Y-89638000D03*
X132228825Y-90187175D03*
X168230825Y-90187175D03*
X166905000Y-89638000D03*
X165579175Y-90187175D03*
X165030000Y-91513000D03*
X165579175Y-92838825D03*
X166905000Y-93388000D03*
X168230825Y-92838825D03*
X168780000Y-91513000D03*
D10*
X166905000Y-91513000D03*
X130903000Y-127508000D03*
D11*
X132778000Y-127508000D03*
X132228825Y-128833825D03*
X130903000Y-129383000D03*
X129577175Y-128833825D03*
X129028000Y-127508000D03*
X129577175Y-126182175D03*
X130903000Y-125633000D03*
X132228825Y-126182175D03*
X168230825Y-126182175D03*
X166905000Y-125633000D03*
X165579175Y-126182175D03*
X165030000Y-127508000D03*
X165579175Y-128833825D03*
X166905000Y-129383000D03*
X168230825Y-128833825D03*
X168780000Y-127508000D03*
D10*
X166905000Y-127508000D03*
D12*
X130528900Y-97341500D03*
D13*
X134708900Y-105985500D03*
D12*
X130528900Y-105981500D03*
D13*
X134708900Y-97345500D03*
D14*
X138811000Y-127914400D03*
D15*
X141351000Y-127914400D03*
X143891000Y-127914400D03*
X146431000Y-127914400D03*
X148971000Y-127914400D03*
X151511000Y-127914400D03*
X154051000Y-127914400D03*
X156591000Y-127914400D03*
X159131000Y-127914400D03*
D16*
X153352500Y-97980500D03*
X149034500Y-104203500D03*
X164592000Y-104394000D03*
X165608000Y-104394000D03*
X145669000Y-123190000D03*
X148209000Y-123317000D03*
X133022000Y-121182000D03*
X149606000Y-94405992D03*
X161036000Y-94406004D03*
X155956000Y-90505994D03*
X140716000Y-90506006D03*
X148844000Y-110490000D03*
X141986000Y-114554000D03*
X141986000Y-112014000D03*
X146050000Y-110490000D03*
X139954000Y-114046000D03*
X134874000Y-111760000D03*
X134874000Y-116840000D03*
X133604000Y-111760000D03*
X133604000Y-116840000D03*
X151384000Y-108204000D03*
X149098000Y-116332000D03*
X163068000Y-116332000D03*
X159258000Y-116332000D03*
X164592000Y-105918000D03*
X165608000Y-105918000D03*
X168656000Y-104140000D03*
X167894000Y-104140000D03*
X167132000Y-104140000D03*
X166370000Y-104140000D03*
X166370000Y-106934000D03*
X168656000Y-106934000D03*
X164846000Y-108204000D03*
X164846000Y-108966000D03*
X164846000Y-109728000D03*
X164846000Y-110490000D03*
X165862000Y-110998000D03*
X166624000Y-110998000D03*
X167386000Y-110998000D03*
X168148000Y-110998000D03*
X168910000Y-110998000D03*
X165862000Y-107442000D03*
X159258000Y-113284000D03*
X159258000Y-110490000D03*
X159321500Y-108267500D03*
X159258000Y-119888000D03*
X141478000Y-97282000D03*
X162814000Y-94742000D03*
X156972000Y-101600000D03*
X159258000Y-101600000D03*
X161798000Y-101600000D03*
X148526500Y-97853500D03*
X148259800Y-102133400D03*
X142570200Y-98958400D03*
X146253200Y-100076000D03*
X134010400Y-99644200D03*
X133222998Y-104140000D03*
X140716000Y-94405994D03*
X141986000Y-90506008D03*
X143256000Y-90506006D03*
X156337000Y-103987600D03*
X159766000Y-94405996D03*
X144526000Y-90506004D03*
X153416000Y-94361000D03*
X157734000Y-99187000D03*
X147650200Y-120557009D03*
X157378400Y-120421400D03*
X145796000Y-90505992D03*
X152146000Y-94406000D03*
X154330400Y-97510600D03*
X154533600Y-103301800D03*
X147066000Y-90506008D03*
X148336000Y-90506004D03*
X148336000Y-94406000D03*
X149885400Y-98298000D03*
X141912000Y-107515996D03*
X147066000Y-94405994D03*
X145796000Y-94405992D03*
X143256000Y-94406012D03*
X141986000Y-94405994D03*
X157226000Y-90505996D03*
X137160000Y-119507000D03*
X158496000Y-90505994D03*
X156845000Y-125501400D03*
X159766000Y-90506004D03*
X161036000Y-90506030D03*
X135509000Y-119507000D03*
X136398000Y-119507000D03*
X144526000Y-94406000D03*
X139446000Y-90506008D03*
X153416000Y-90505992D03*
X152857200Y-96316800D03*
X150342600Y-104902000D03*
X154686000Y-90505984D03*
X152273000Y-108331000D03*
X153898600Y-96367600D03*
X136271000Y-100888800D03*
X136347200Y-102616000D03*
X150876000Y-94406000D03*
X136906000Y-94406006D03*
X138176000Y-94406008D03*
X145578054Y-102525054D03*
X155956000Y-94405996D03*
X154686000Y-94406008D03*
X136906000Y-90505990D03*
X155257500Y-108013500D03*
X153543000Y-104013000D03*
X155321000Y-101282500D03*
X164338000Y-98552000D03*
X138176000Y-90505992D03*
X164134800Y-94234000D03*
X140208000Y-103378000D03*
X143154400Y-105613204D03*
X139446000Y-94405986D03*
X140741400Y-100152200D03*
X150952200Y-102870000D03*
X147548600Y-102793800D03*
X148844000Y-120396000D03*
X152654000Y-120396000D03*
X149606000Y-90506000D03*
X148082000Y-96393000D03*
X139482021Y-105410000D03*
X155321000Y-125476000D03*
X150876000Y-90506000D03*
X149733000Y-96266000D03*
X138176000Y-107351021D03*
X140741401Y-120294401D03*
X152146000Y-90506000D03*
X140589000Y-107188000D03*
X151003000Y-96393000D03*
X157226000Y-94406000D03*
X146964400Y-106045000D03*
X143273000Y-115951000D03*
X158496000Y-94405996D03*
X149669500Y-103632000D03*
X145524999Y-106027999D03*
X142748000Y-117221000D03*
D17*
G36*
X165578703Y-89031672D02*
G01*
X165120104Y-89338098D01*
X164730098Y-89728104D01*
X164423672Y-90186703D01*
X164212602Y-90696270D01*
X164105000Y-91237224D01*
X164105000Y-91788776D01*
X164212602Y-92329730D01*
X164423672Y-92839297D01*
X164730098Y-93297896D01*
X165120104Y-93687902D01*
X165578703Y-93994328D01*
X166088270Y-94205398D01*
X166629224Y-94313000D01*
X167180776Y-94313000D01*
X167721730Y-94205398D01*
X168231297Y-93994328D01*
X168689896Y-93687902D01*
X169079902Y-93297896D01*
X169386328Y-92839297D01*
X169562000Y-92415188D01*
X169562001Y-126605814D01*
X169386328Y-126181703D01*
X169079902Y-125723104D01*
X168689896Y-125333098D01*
X168231297Y-125026672D01*
X167721730Y-124815602D01*
X167180776Y-124708000D01*
X166629224Y-124708000D01*
X166088270Y-124815602D01*
X165578703Y-125026672D01*
X165120104Y-125333098D01*
X164730098Y-125723104D01*
X164423672Y-126181703D01*
X164212602Y-126691270D01*
X164105000Y-127232224D01*
X164105000Y-127783776D01*
X164212602Y-128324730D01*
X164423672Y-128834297D01*
X164730098Y-129292896D01*
X165120104Y-129682902D01*
X165578703Y-129989328D01*
X165884033Y-130115800D01*
X165255292Y-130115800D01*
X165217092Y-129992394D01*
X165203920Y-129961059D01*
X165191189Y-129929549D01*
X165188731Y-129924925D01*
X165095907Y-129753249D01*
X165076900Y-129725070D01*
X165058289Y-129696630D01*
X165054980Y-129692572D01*
X164930576Y-129542194D01*
X164906430Y-129518216D01*
X164882679Y-129493963D01*
X164878645Y-129490625D01*
X164727403Y-129367275D01*
X164699090Y-129348464D01*
X164671050Y-129329264D01*
X164666444Y-129326774D01*
X164494121Y-129235148D01*
X164462686Y-129222192D01*
X164431459Y-129208808D01*
X164426457Y-129207259D01*
X164239621Y-129150850D01*
X164206273Y-129144247D01*
X164173035Y-129137182D01*
X164167827Y-129136635D01*
X163973594Y-129117590D01*
X163973593Y-129117590D01*
X163955418Y-129115800D01*
X133916836Y-129115803D01*
X133900620Y-129117400D01*
X133896031Y-129117368D01*
X133890820Y-129117878D01*
X133696723Y-129138279D01*
X133663359Y-129145128D01*
X133630045Y-129151483D01*
X133625036Y-129152995D01*
X133625030Y-129152996D01*
X133625024Y-129152998D01*
X133438594Y-129210708D01*
X133407259Y-129223880D01*
X133375749Y-129236611D01*
X133371125Y-129239069D01*
X133199449Y-129331893D01*
X133171270Y-129350900D01*
X133142830Y-129369511D01*
X133138772Y-129372820D01*
X132988394Y-129497224D01*
X132964416Y-129521370D01*
X132940163Y-129545121D01*
X132936825Y-129549155D01*
X132813475Y-129700397D01*
X132794664Y-129728710D01*
X132775464Y-129756750D01*
X132772974Y-129761356D01*
X132681348Y-129933679D01*
X132668392Y-129965114D01*
X132655008Y-129996341D01*
X132653459Y-130001343D01*
X132618902Y-130115800D01*
X132561000Y-130115800D01*
X132561000Y-129767691D01*
X132687896Y-129682902D01*
X133077902Y-129292896D01*
X133384328Y-128834297D01*
X133595398Y-128324730D01*
X133703000Y-127783776D01*
X133703000Y-127232224D01*
X133669618Y-127064400D01*
X137659549Y-127064400D01*
X137659549Y-128764400D01*
X137665341Y-128823210D01*
X137682496Y-128879760D01*
X137710353Y-128931877D01*
X137747842Y-128977558D01*
X137793523Y-129015047D01*
X137845640Y-129042904D01*
X137902190Y-129060059D01*
X137961000Y-129065851D01*
X139661000Y-129065851D01*
X139719810Y-129060059D01*
X139776360Y-129042904D01*
X139828477Y-129015047D01*
X139874158Y-128977558D01*
X139911647Y-128931877D01*
X139939504Y-128879760D01*
X139956659Y-128823210D01*
X139962451Y-128764400D01*
X139962451Y-127801135D01*
X140201000Y-127801135D01*
X140201000Y-128027665D01*
X140245194Y-128249843D01*
X140331884Y-128459129D01*
X140457737Y-128647482D01*
X140617918Y-128807663D01*
X140806271Y-128933516D01*
X141015557Y-129020206D01*
X141237735Y-129064400D01*
X141464265Y-129064400D01*
X141686443Y-129020206D01*
X141895729Y-128933516D01*
X142084082Y-128807663D01*
X142244263Y-128647482D01*
X142370116Y-128459129D01*
X142456806Y-128249843D01*
X142501000Y-128027665D01*
X142501000Y-127801135D01*
X142741000Y-127801135D01*
X142741000Y-128027665D01*
X142785194Y-128249843D01*
X142871884Y-128459129D01*
X142997737Y-128647482D01*
X143157918Y-128807663D01*
X143346271Y-128933516D01*
X143555557Y-129020206D01*
X143777735Y-129064400D01*
X144004265Y-129064400D01*
X144226443Y-129020206D01*
X144435729Y-128933516D01*
X144624082Y-128807663D01*
X144784263Y-128647482D01*
X144910116Y-128459129D01*
X144996806Y-128249843D01*
X145041000Y-128027665D01*
X145041000Y-127801135D01*
X145281000Y-127801135D01*
X145281000Y-128027665D01*
X145325194Y-128249843D01*
X145411884Y-128459129D01*
X145537737Y-128647482D01*
X145697918Y-128807663D01*
X145886271Y-128933516D01*
X146095557Y-129020206D01*
X146317735Y-129064400D01*
X146544265Y-129064400D01*
X146766443Y-129020206D01*
X146975729Y-128933516D01*
X147164082Y-128807663D01*
X147324263Y-128647482D01*
X147450116Y-128459129D01*
X147536806Y-128249843D01*
X147581000Y-128027665D01*
X147581000Y-127801135D01*
X147821000Y-127801135D01*
X147821000Y-128027665D01*
X147865194Y-128249843D01*
X147951884Y-128459129D01*
X148077737Y-128647482D01*
X148237918Y-128807663D01*
X148426271Y-128933516D01*
X148635557Y-129020206D01*
X148857735Y-129064400D01*
X149084265Y-129064400D01*
X149306443Y-129020206D01*
X149515729Y-128933516D01*
X149704082Y-128807663D01*
X149864263Y-128647482D01*
X149990116Y-128459129D01*
X150076806Y-128249843D01*
X150121000Y-128027665D01*
X150121000Y-127801135D01*
X150361000Y-127801135D01*
X150361000Y-128027665D01*
X150405194Y-128249843D01*
X150491884Y-128459129D01*
X150617737Y-128647482D01*
X150777918Y-128807663D01*
X150966271Y-128933516D01*
X151175557Y-129020206D01*
X151397735Y-129064400D01*
X151624265Y-129064400D01*
X151846443Y-129020206D01*
X152055729Y-128933516D01*
X152244082Y-128807663D01*
X152404263Y-128647482D01*
X152530116Y-128459129D01*
X152616806Y-128249843D01*
X152661000Y-128027665D01*
X152661000Y-127801135D01*
X152901000Y-127801135D01*
X152901000Y-128027665D01*
X152945194Y-128249843D01*
X153031884Y-128459129D01*
X153157737Y-128647482D01*
X153317918Y-128807663D01*
X153506271Y-128933516D01*
X153715557Y-129020206D01*
X153937735Y-129064400D01*
X154164265Y-129064400D01*
X154386443Y-129020206D01*
X154595729Y-128933516D01*
X154784082Y-128807663D01*
X154944263Y-128647482D01*
X155070116Y-128459129D01*
X155156806Y-128249843D01*
X155201000Y-128027665D01*
X155201000Y-127801135D01*
X155441000Y-127801135D01*
X155441000Y-128027665D01*
X155485194Y-128249843D01*
X155571884Y-128459129D01*
X155697737Y-128647482D01*
X155857918Y-128807663D01*
X156046271Y-128933516D01*
X156255557Y-129020206D01*
X156477735Y-129064400D01*
X156704265Y-129064400D01*
X156926443Y-129020206D01*
X157135729Y-128933516D01*
X157324082Y-128807663D01*
X157484263Y-128647482D01*
X157610116Y-128459129D01*
X157696806Y-128249843D01*
X157721286Y-128126773D01*
X157949941Y-128126773D01*
X158014067Y-128353105D01*
X158121116Y-128562578D01*
X158266974Y-128747142D01*
X158446036Y-128899704D01*
X158651421Y-129014402D01*
X158875236Y-129086827D01*
X158918627Y-129095458D01*
X159106000Y-129026619D01*
X159106000Y-127939400D01*
X159156000Y-127939400D01*
X159156000Y-129026619D01*
X159343373Y-129095458D01*
X159386764Y-129086827D01*
X159610579Y-129014402D01*
X159815964Y-128899704D01*
X159995026Y-128747142D01*
X160140884Y-128562578D01*
X160247933Y-128353105D01*
X160312059Y-128126773D01*
X160243241Y-127939400D01*
X159156000Y-127939400D01*
X159106000Y-127939400D01*
X158018759Y-127939400D01*
X157949941Y-128126773D01*
X157721286Y-128126773D01*
X157741000Y-128027665D01*
X157741000Y-127801135D01*
X157721287Y-127702027D01*
X157949941Y-127702027D01*
X158018759Y-127889400D01*
X159106000Y-127889400D01*
X159106000Y-126802181D01*
X159156000Y-126802181D01*
X159156000Y-127889400D01*
X160243241Y-127889400D01*
X160312059Y-127702027D01*
X160247933Y-127475695D01*
X160140884Y-127266222D01*
X159995026Y-127081658D01*
X159815964Y-126929096D01*
X159610579Y-126814398D01*
X159386764Y-126741973D01*
X159343373Y-126733342D01*
X159156000Y-126802181D01*
X159106000Y-126802181D01*
X158918627Y-126733342D01*
X158875236Y-126741973D01*
X158651421Y-126814398D01*
X158446036Y-126929096D01*
X158266974Y-127081658D01*
X158121116Y-127266222D01*
X158014067Y-127475695D01*
X157949941Y-127702027D01*
X157721287Y-127702027D01*
X157696806Y-127578957D01*
X157610116Y-127369671D01*
X157484263Y-127181318D01*
X157324082Y-127021137D01*
X157135729Y-126895284D01*
X156926443Y-126808594D01*
X156704265Y-126764400D01*
X156477735Y-126764400D01*
X156255557Y-126808594D01*
X156046271Y-126895284D01*
X155857918Y-127021137D01*
X155697737Y-127181318D01*
X155571884Y-127369671D01*
X155485194Y-127578957D01*
X155441000Y-127801135D01*
X155201000Y-127801135D01*
X155156806Y-127578957D01*
X155070116Y-127369671D01*
X154944263Y-127181318D01*
X154784082Y-127021137D01*
X154595729Y-126895284D01*
X154386443Y-126808594D01*
X154164265Y-126764400D01*
X153937735Y-126764400D01*
X153715557Y-126808594D01*
X153506271Y-126895284D01*
X153317918Y-127021137D01*
X153157737Y-127181318D01*
X153031884Y-127369671D01*
X152945194Y-127578957D01*
X152901000Y-127801135D01*
X152661000Y-127801135D01*
X152616806Y-127578957D01*
X152530116Y-127369671D01*
X152404263Y-127181318D01*
X152244082Y-127021137D01*
X152055729Y-126895284D01*
X151846443Y-126808594D01*
X151624265Y-126764400D01*
X151397735Y-126764400D01*
X151175557Y-126808594D01*
X150966271Y-126895284D01*
X150777918Y-127021137D01*
X150617737Y-127181318D01*
X150491884Y-127369671D01*
X150405194Y-127578957D01*
X150361000Y-127801135D01*
X150121000Y-127801135D01*
X150076806Y-127578957D01*
X149990116Y-127369671D01*
X149864263Y-127181318D01*
X149704082Y-127021137D01*
X149515729Y-126895284D01*
X149306443Y-126808594D01*
X149084265Y-126764400D01*
X148857735Y-126764400D01*
X148635557Y-126808594D01*
X148426271Y-126895284D01*
X148237918Y-127021137D01*
X148077737Y-127181318D01*
X147951884Y-127369671D01*
X147865194Y-127578957D01*
X147821000Y-127801135D01*
X147581000Y-127801135D01*
X147536806Y-127578957D01*
X147450116Y-127369671D01*
X147324263Y-127181318D01*
X147164082Y-127021137D01*
X146975729Y-126895284D01*
X146766443Y-126808594D01*
X146544265Y-126764400D01*
X146317735Y-126764400D01*
X146095557Y-126808594D01*
X145886271Y-126895284D01*
X145697918Y-127021137D01*
X145537737Y-127181318D01*
X145411884Y-127369671D01*
X145325194Y-127578957D01*
X145281000Y-127801135D01*
X145041000Y-127801135D01*
X144996806Y-127578957D01*
X144910116Y-127369671D01*
X144784263Y-127181318D01*
X144624082Y-127021137D01*
X144435729Y-126895284D01*
X144226443Y-126808594D01*
X144004265Y-126764400D01*
X143777735Y-126764400D01*
X143555557Y-126808594D01*
X143346271Y-126895284D01*
X143157918Y-127021137D01*
X142997737Y-127181318D01*
X142871884Y-127369671D01*
X142785194Y-127578957D01*
X142741000Y-127801135D01*
X142501000Y-127801135D01*
X142456806Y-127578957D01*
X142370116Y-127369671D01*
X142244263Y-127181318D01*
X142084082Y-127021137D01*
X141895729Y-126895284D01*
X141686443Y-126808594D01*
X141464265Y-126764400D01*
X141237735Y-126764400D01*
X141015557Y-126808594D01*
X140806271Y-126895284D01*
X140617918Y-127021137D01*
X140457737Y-127181318D01*
X140331884Y-127369671D01*
X140245194Y-127578957D01*
X140201000Y-127801135D01*
X139962451Y-127801135D01*
X139962451Y-127064400D01*
X139956659Y-127005590D01*
X139939504Y-126949040D01*
X139911647Y-126896923D01*
X139874158Y-126851242D01*
X139828477Y-126813753D01*
X139776360Y-126785896D01*
X139719810Y-126768741D01*
X139661000Y-126762949D01*
X137961000Y-126762949D01*
X137902190Y-126768741D01*
X137845640Y-126785896D01*
X137793523Y-126813753D01*
X137747842Y-126851242D01*
X137710353Y-126896923D01*
X137682496Y-126949040D01*
X137665341Y-127005590D01*
X137659549Y-127064400D01*
X133669618Y-127064400D01*
X133595398Y-126691270D01*
X133384328Y-126181703D01*
X133077902Y-125723104D01*
X132779090Y-125424292D01*
X154796000Y-125424292D01*
X154796000Y-125527708D01*
X154816176Y-125629137D01*
X154855751Y-125724681D01*
X154913206Y-125810668D01*
X154986332Y-125883794D01*
X155072319Y-125941249D01*
X155167863Y-125980824D01*
X155269292Y-126001000D01*
X155372708Y-126001000D01*
X155474137Y-125980824D01*
X155569681Y-125941249D01*
X155655668Y-125883794D01*
X155728794Y-125810668D01*
X155786249Y-125724681D01*
X155825824Y-125629137D01*
X155846000Y-125527708D01*
X155846000Y-125449692D01*
X156320000Y-125449692D01*
X156320000Y-125553108D01*
X156340176Y-125654537D01*
X156379751Y-125750081D01*
X156437206Y-125836068D01*
X156510332Y-125909194D01*
X156596319Y-125966649D01*
X156691863Y-126006224D01*
X156793292Y-126026400D01*
X156896708Y-126026400D01*
X156998137Y-126006224D01*
X157093681Y-125966649D01*
X157179668Y-125909194D01*
X157252794Y-125836068D01*
X157310249Y-125750081D01*
X157349824Y-125654537D01*
X157370000Y-125553108D01*
X157370000Y-125449692D01*
X157349824Y-125348263D01*
X157310249Y-125252719D01*
X157252794Y-125166732D01*
X157179668Y-125093606D01*
X157093681Y-125036151D01*
X156998137Y-124996576D01*
X156896708Y-124976400D01*
X156793292Y-124976400D01*
X156691863Y-124996576D01*
X156596319Y-125036151D01*
X156510332Y-125093606D01*
X156437206Y-125166732D01*
X156379751Y-125252719D01*
X156340176Y-125348263D01*
X156320000Y-125449692D01*
X155846000Y-125449692D01*
X155846000Y-125424292D01*
X155825824Y-125322863D01*
X155786249Y-125227319D01*
X155728794Y-125141332D01*
X155655668Y-125068206D01*
X155569681Y-125010751D01*
X155474137Y-124971176D01*
X155372708Y-124951000D01*
X155269292Y-124951000D01*
X155167863Y-124971176D01*
X155072319Y-125010751D01*
X154986332Y-125068206D01*
X154913206Y-125141332D01*
X154855751Y-125227319D01*
X154816176Y-125322863D01*
X154796000Y-125424292D01*
X132779090Y-125424292D01*
X132687896Y-125333098D01*
X132561000Y-125248309D01*
X132561000Y-120242693D01*
X140216401Y-120242693D01*
X140216401Y-120346109D01*
X140236577Y-120447538D01*
X140276152Y-120543082D01*
X140333607Y-120629069D01*
X140406733Y-120702195D01*
X140492720Y-120759650D01*
X140588264Y-120799225D01*
X140689693Y-120819401D01*
X140793109Y-120819401D01*
X140894538Y-120799225D01*
X140990082Y-120759650D01*
X141076069Y-120702195D01*
X141149195Y-120629069D01*
X141206650Y-120543082D01*
X141222299Y-120505301D01*
X147125200Y-120505301D01*
X147125200Y-120608717D01*
X147145376Y-120710146D01*
X147184951Y-120805690D01*
X147242406Y-120891677D01*
X147315532Y-120964803D01*
X147401519Y-121022258D01*
X147497063Y-121061833D01*
X147598492Y-121082009D01*
X147701908Y-121082009D01*
X147803337Y-121061833D01*
X147898881Y-121022258D01*
X147984868Y-120964803D01*
X148057994Y-120891677D01*
X148115449Y-120805690D01*
X148155024Y-120710146D01*
X148175200Y-120608717D01*
X148175200Y-120505301D01*
X148155024Y-120403872D01*
X148130346Y-120344292D01*
X148319000Y-120344292D01*
X148319000Y-120447708D01*
X148339176Y-120549137D01*
X148378751Y-120644681D01*
X148436206Y-120730668D01*
X148509332Y-120803794D01*
X148595319Y-120861249D01*
X148690863Y-120900824D01*
X148792292Y-120921000D01*
X148895708Y-120921000D01*
X148997137Y-120900824D01*
X149092681Y-120861249D01*
X149178668Y-120803794D01*
X149251794Y-120730668D01*
X149309249Y-120644681D01*
X149348824Y-120549137D01*
X149369000Y-120447708D01*
X149369000Y-120344292D01*
X152129000Y-120344292D01*
X152129000Y-120447708D01*
X152149176Y-120549137D01*
X152188751Y-120644681D01*
X152246206Y-120730668D01*
X152319332Y-120803794D01*
X152405319Y-120861249D01*
X152500863Y-120900824D01*
X152602292Y-120921000D01*
X152705708Y-120921000D01*
X152807137Y-120900824D01*
X152902681Y-120861249D01*
X152988668Y-120803794D01*
X153061794Y-120730668D01*
X153119249Y-120644681D01*
X153158824Y-120549137D01*
X153179000Y-120447708D01*
X153179000Y-120369692D01*
X156853400Y-120369692D01*
X156853400Y-120473108D01*
X156873576Y-120574537D01*
X156913151Y-120670081D01*
X156970606Y-120756068D01*
X157043732Y-120829194D01*
X157129719Y-120886649D01*
X157225263Y-120926224D01*
X157326692Y-120946400D01*
X157430108Y-120946400D01*
X157531537Y-120926224D01*
X157627081Y-120886649D01*
X157713068Y-120829194D01*
X157786194Y-120756068D01*
X157843649Y-120670081D01*
X157883224Y-120574537D01*
X157903400Y-120473108D01*
X157903400Y-120369692D01*
X157883224Y-120268263D01*
X157843649Y-120172719D01*
X157786194Y-120086732D01*
X157713068Y-120013606D01*
X157627081Y-119956151D01*
X157531537Y-119916576D01*
X157430108Y-119896400D01*
X157326692Y-119896400D01*
X157225263Y-119916576D01*
X157129719Y-119956151D01*
X157043732Y-120013606D01*
X156970606Y-120086732D01*
X156913151Y-120172719D01*
X156873576Y-120268263D01*
X156853400Y-120369692D01*
X153179000Y-120369692D01*
X153179000Y-120344292D01*
X153158824Y-120242863D01*
X153119249Y-120147319D01*
X153061794Y-120061332D01*
X152988668Y-119988206D01*
X152902681Y-119930751D01*
X152807137Y-119891176D01*
X152705708Y-119871000D01*
X152602292Y-119871000D01*
X152500863Y-119891176D01*
X152405319Y-119930751D01*
X152319332Y-119988206D01*
X152246206Y-120061332D01*
X152188751Y-120147319D01*
X152149176Y-120242863D01*
X152129000Y-120344292D01*
X149369000Y-120344292D01*
X149348824Y-120242863D01*
X149309249Y-120147319D01*
X149251794Y-120061332D01*
X149178668Y-119988206D01*
X149092681Y-119930751D01*
X148997137Y-119891176D01*
X148895708Y-119871000D01*
X148792292Y-119871000D01*
X148690863Y-119891176D01*
X148595319Y-119930751D01*
X148509332Y-119988206D01*
X148436206Y-120061332D01*
X148378751Y-120147319D01*
X148339176Y-120242863D01*
X148319000Y-120344292D01*
X148130346Y-120344292D01*
X148115449Y-120308328D01*
X148057994Y-120222341D01*
X147984868Y-120149215D01*
X147898881Y-120091760D01*
X147803337Y-120052185D01*
X147701908Y-120032009D01*
X147598492Y-120032009D01*
X147497063Y-120052185D01*
X147401519Y-120091760D01*
X147315532Y-120149215D01*
X147242406Y-120222341D01*
X147184951Y-120308328D01*
X147145376Y-120403872D01*
X147125200Y-120505301D01*
X141222299Y-120505301D01*
X141246225Y-120447538D01*
X141266401Y-120346109D01*
X141266401Y-120242693D01*
X141246225Y-120141264D01*
X141206650Y-120045720D01*
X141149195Y-119959733D01*
X141076069Y-119886607D01*
X140990082Y-119829152D01*
X140894538Y-119789577D01*
X140793109Y-119769401D01*
X140689693Y-119769401D01*
X140588264Y-119789577D01*
X140492720Y-119829152D01*
X140406733Y-119886607D01*
X140333607Y-119959733D01*
X140276152Y-120045720D01*
X140236577Y-120141264D01*
X140216401Y-120242693D01*
X132561000Y-120242693D01*
X132561000Y-119455292D01*
X134984000Y-119455292D01*
X134984000Y-119558708D01*
X135004176Y-119660137D01*
X135043751Y-119755681D01*
X135101206Y-119841668D01*
X135174332Y-119914794D01*
X135260319Y-119972249D01*
X135355863Y-120011824D01*
X135457292Y-120032000D01*
X135560708Y-120032000D01*
X135662137Y-120011824D01*
X135757681Y-119972249D01*
X135843668Y-119914794D01*
X135916794Y-119841668D01*
X135953500Y-119786734D01*
X135990206Y-119841668D01*
X136063332Y-119914794D01*
X136149319Y-119972249D01*
X136244863Y-120011824D01*
X136346292Y-120032000D01*
X136449708Y-120032000D01*
X136551137Y-120011824D01*
X136646681Y-119972249D01*
X136732668Y-119914794D01*
X136779000Y-119868462D01*
X136825332Y-119914794D01*
X136911319Y-119972249D01*
X137006863Y-120011824D01*
X137108292Y-120032000D01*
X137211708Y-120032000D01*
X137313137Y-120011824D01*
X137408681Y-119972249D01*
X137494668Y-119914794D01*
X137567794Y-119841668D01*
X137625249Y-119755681D01*
X137664824Y-119660137D01*
X137685000Y-119558708D01*
X137685000Y-119455292D01*
X137664824Y-119353863D01*
X137625249Y-119258319D01*
X137567794Y-119172332D01*
X137494668Y-119099206D01*
X137408681Y-119041751D01*
X137313137Y-119002176D01*
X137211708Y-118982000D01*
X137108292Y-118982000D01*
X137006863Y-119002176D01*
X136911319Y-119041751D01*
X136825332Y-119099206D01*
X136779000Y-119145538D01*
X136732668Y-119099206D01*
X136646681Y-119041751D01*
X136551137Y-119002176D01*
X136449708Y-118982000D01*
X136346292Y-118982000D01*
X136244863Y-119002176D01*
X136149319Y-119041751D01*
X136063332Y-119099206D01*
X135990206Y-119172332D01*
X135953500Y-119227266D01*
X135916794Y-119172332D01*
X135843668Y-119099206D01*
X135757681Y-119041751D01*
X135662137Y-119002176D01*
X135560708Y-118982000D01*
X135457292Y-118982000D01*
X135355863Y-119002176D01*
X135260319Y-119041751D01*
X135174332Y-119099206D01*
X135101206Y-119172332D01*
X135043751Y-119258319D01*
X135004176Y-119353863D01*
X134984000Y-119455292D01*
X132561000Y-119455292D01*
X132561000Y-117169292D01*
X142223000Y-117169292D01*
X142223000Y-117272708D01*
X142243176Y-117374137D01*
X142282751Y-117469681D01*
X142340206Y-117555668D01*
X142413332Y-117628794D01*
X142499319Y-117686249D01*
X142594863Y-117725824D01*
X142696292Y-117746000D01*
X142799708Y-117746000D01*
X142901137Y-117725824D01*
X142996681Y-117686249D01*
X143082668Y-117628794D01*
X143155794Y-117555668D01*
X143213249Y-117469681D01*
X143252824Y-117374137D01*
X143273000Y-117272708D01*
X143273000Y-117169292D01*
X143252824Y-117067863D01*
X143213249Y-116972319D01*
X143155794Y-116886332D01*
X143082668Y-116813206D01*
X142996681Y-116755751D01*
X142901137Y-116716176D01*
X142799708Y-116696000D01*
X142696292Y-116696000D01*
X142594863Y-116716176D01*
X142499319Y-116755751D01*
X142413332Y-116813206D01*
X142340206Y-116886332D01*
X142282751Y-116972319D01*
X142243176Y-117067863D01*
X142223000Y-117169292D01*
X132561000Y-117169292D01*
X132561000Y-115899292D01*
X142748000Y-115899292D01*
X142748000Y-116002708D01*
X142768176Y-116104137D01*
X142807751Y-116199681D01*
X142865206Y-116285668D01*
X142938332Y-116358794D01*
X143024319Y-116416249D01*
X143119863Y-116455824D01*
X143221292Y-116476000D01*
X143324708Y-116476000D01*
X143426137Y-116455824D01*
X143521681Y-116416249D01*
X143607668Y-116358794D01*
X143680794Y-116285668D01*
X143738249Y-116199681D01*
X143777824Y-116104137D01*
X143798000Y-116002708D01*
X143798000Y-115899292D01*
X143777824Y-115797863D01*
X143738249Y-115702319D01*
X143680794Y-115616332D01*
X143607668Y-115543206D01*
X143521681Y-115485751D01*
X143426137Y-115446176D01*
X143324708Y-115426000D01*
X143221292Y-115426000D01*
X143119863Y-115446176D01*
X143024319Y-115485751D01*
X142938332Y-115543206D01*
X142865206Y-115616332D01*
X142807751Y-115702319D01*
X142768176Y-115797863D01*
X142748000Y-115899292D01*
X132561000Y-115899292D01*
X132561000Y-108279292D01*
X151748000Y-108279292D01*
X151748000Y-108382708D01*
X151768176Y-108484137D01*
X151807751Y-108579681D01*
X151865206Y-108665668D01*
X151938332Y-108738794D01*
X152024319Y-108796249D01*
X152119863Y-108835824D01*
X152221292Y-108856000D01*
X152324708Y-108856000D01*
X152426137Y-108835824D01*
X152521681Y-108796249D01*
X152607668Y-108738794D01*
X152680794Y-108665668D01*
X152738249Y-108579681D01*
X152777824Y-108484137D01*
X152798000Y-108382708D01*
X152798000Y-108279292D01*
X152777824Y-108177863D01*
X152738249Y-108082319D01*
X152680794Y-107996332D01*
X152646254Y-107961792D01*
X154732500Y-107961792D01*
X154732500Y-108065208D01*
X154752676Y-108166637D01*
X154792251Y-108262181D01*
X154849706Y-108348168D01*
X154922832Y-108421294D01*
X155008819Y-108478749D01*
X155104363Y-108518324D01*
X155205792Y-108538500D01*
X155309208Y-108538500D01*
X155410637Y-108518324D01*
X155506181Y-108478749D01*
X155592168Y-108421294D01*
X155665294Y-108348168D01*
X155722749Y-108262181D01*
X155762324Y-108166637D01*
X155782500Y-108065208D01*
X155782500Y-107961792D01*
X155762324Y-107860363D01*
X155722749Y-107764819D01*
X155665294Y-107678832D01*
X155592168Y-107605706D01*
X155506181Y-107548251D01*
X155410637Y-107508676D01*
X155309208Y-107488500D01*
X155205792Y-107488500D01*
X155104363Y-107508676D01*
X155008819Y-107548251D01*
X154922832Y-107605706D01*
X154849706Y-107678832D01*
X154792251Y-107764819D01*
X154752676Y-107860363D01*
X154732500Y-107961792D01*
X152646254Y-107961792D01*
X152607668Y-107923206D01*
X152521681Y-107865751D01*
X152426137Y-107826176D01*
X152324708Y-107806000D01*
X152221292Y-107806000D01*
X152119863Y-107826176D01*
X152024319Y-107865751D01*
X151938332Y-107923206D01*
X151865206Y-107996332D01*
X151807751Y-108082319D01*
X151768176Y-108177863D01*
X151748000Y-108279292D01*
X132561000Y-108279292D01*
X132561000Y-107696000D01*
X132559079Y-107676491D01*
X132553388Y-107657732D01*
X132544147Y-107640443D01*
X132531711Y-107625289D01*
X132516557Y-107612853D01*
X132499268Y-107603612D01*
X132480509Y-107597921D01*
X132461000Y-107596000D01*
X128312000Y-107596000D01*
X128312000Y-107299313D01*
X137651000Y-107299313D01*
X137651000Y-107402729D01*
X137671176Y-107504158D01*
X137710751Y-107599702D01*
X137768206Y-107685689D01*
X137841332Y-107758815D01*
X137927319Y-107816270D01*
X138022863Y-107855845D01*
X138124292Y-107876021D01*
X138227708Y-107876021D01*
X138329137Y-107855845D01*
X138424681Y-107816270D01*
X138510668Y-107758815D01*
X138583794Y-107685689D01*
X138641249Y-107599702D01*
X138680824Y-107504158D01*
X138701000Y-107402729D01*
X138701000Y-107299313D01*
X138680824Y-107197884D01*
X138655313Y-107136292D01*
X140064000Y-107136292D01*
X140064000Y-107239708D01*
X140084176Y-107341137D01*
X140123751Y-107436681D01*
X140181206Y-107522668D01*
X140254332Y-107595794D01*
X140340319Y-107653249D01*
X140435863Y-107692824D01*
X140537292Y-107713000D01*
X140640708Y-107713000D01*
X140742137Y-107692824D01*
X140837681Y-107653249D01*
X140923668Y-107595794D01*
X140996794Y-107522668D01*
X141035802Y-107464288D01*
X141387000Y-107464288D01*
X141387000Y-107567704D01*
X141407176Y-107669133D01*
X141446751Y-107764677D01*
X141504206Y-107850664D01*
X141577332Y-107923790D01*
X141663319Y-107981245D01*
X141758863Y-108020820D01*
X141860292Y-108040996D01*
X141963708Y-108040996D01*
X142065137Y-108020820D01*
X142160681Y-107981245D01*
X142246668Y-107923790D01*
X142319794Y-107850664D01*
X142377249Y-107764677D01*
X142416824Y-107669133D01*
X142437000Y-107567704D01*
X142437000Y-107464288D01*
X142416824Y-107362859D01*
X142377249Y-107267315D01*
X142319794Y-107181328D01*
X142246668Y-107108202D01*
X142160681Y-107050747D01*
X142065137Y-107011172D01*
X141963708Y-106990996D01*
X141860292Y-106990996D01*
X141758863Y-107011172D01*
X141663319Y-107050747D01*
X141577332Y-107108202D01*
X141504206Y-107181328D01*
X141446751Y-107267315D01*
X141407176Y-107362859D01*
X141387000Y-107464288D01*
X141035802Y-107464288D01*
X141054249Y-107436681D01*
X141093824Y-107341137D01*
X141114000Y-107239708D01*
X141114000Y-107136292D01*
X141093824Y-107034863D01*
X141054249Y-106939319D01*
X140996794Y-106853332D01*
X140923668Y-106780206D01*
X140837681Y-106722751D01*
X140742137Y-106683176D01*
X140640708Y-106663000D01*
X140537292Y-106663000D01*
X140435863Y-106683176D01*
X140340319Y-106722751D01*
X140254332Y-106780206D01*
X140181206Y-106853332D01*
X140123751Y-106939319D01*
X140084176Y-107034863D01*
X140064000Y-107136292D01*
X138655313Y-107136292D01*
X138641249Y-107102340D01*
X138583794Y-107016353D01*
X138510668Y-106943227D01*
X138424681Y-106885772D01*
X138329137Y-106846197D01*
X138227708Y-106826021D01*
X138124292Y-106826021D01*
X138022863Y-106846197D01*
X137927319Y-106885772D01*
X137841332Y-106943227D01*
X137768206Y-107016353D01*
X137710751Y-107102340D01*
X137671176Y-107197884D01*
X137651000Y-107299313D01*
X128312000Y-107299313D01*
X128312000Y-106139104D01*
X129393639Y-106139104D01*
X129434037Y-106283684D01*
X129508263Y-106432948D01*
X129610183Y-106564863D01*
X129735880Y-106674360D01*
X129880523Y-106757230D01*
X130038554Y-106810290D01*
X130203900Y-106831500D01*
X130503900Y-106831500D01*
X130503900Y-106006500D01*
X130553900Y-106006500D01*
X130553900Y-106831500D01*
X130853900Y-106831500D01*
X131019246Y-106810290D01*
X131177277Y-106757230D01*
X131321920Y-106674360D01*
X131447617Y-106564863D01*
X131549537Y-106432948D01*
X131623763Y-106283684D01*
X131663043Y-106143104D01*
X133323639Y-106143104D01*
X133364037Y-106287684D01*
X133438263Y-106436948D01*
X133540183Y-106568863D01*
X133665880Y-106678360D01*
X133810523Y-106761230D01*
X133968554Y-106814290D01*
X134133900Y-106835500D01*
X134683900Y-106835500D01*
X134683900Y-106010500D01*
X134733900Y-106010500D01*
X134733900Y-106835500D01*
X135283900Y-106835500D01*
X135449246Y-106814290D01*
X135607277Y-106761230D01*
X135751920Y-106678360D01*
X135877617Y-106568863D01*
X135979537Y-106436948D01*
X136053763Y-106287684D01*
X136094161Y-106143104D01*
X136020990Y-106010500D01*
X134733900Y-106010500D01*
X134683900Y-106010500D01*
X133396810Y-106010500D01*
X133323639Y-106143104D01*
X131663043Y-106143104D01*
X131664161Y-106139104D01*
X131590990Y-106006500D01*
X130553900Y-106006500D01*
X130503900Y-106006500D01*
X129466810Y-106006500D01*
X129393639Y-106139104D01*
X128312000Y-106139104D01*
X128312000Y-105823896D01*
X129393639Y-105823896D01*
X129466810Y-105956500D01*
X130503900Y-105956500D01*
X130503900Y-105131500D01*
X130553900Y-105131500D01*
X130553900Y-105956500D01*
X131590990Y-105956500D01*
X131664161Y-105823896D01*
X131623763Y-105679316D01*
X131549537Y-105530052D01*
X131447617Y-105398137D01*
X131321920Y-105288640D01*
X131177277Y-105205770D01*
X131019246Y-105152710D01*
X130853900Y-105131500D01*
X130553900Y-105131500D01*
X130503900Y-105131500D01*
X130203900Y-105131500D01*
X130038554Y-105152710D01*
X129880523Y-105205770D01*
X129735880Y-105288640D01*
X129610183Y-105398137D01*
X129508263Y-105530052D01*
X129434037Y-105679316D01*
X129393639Y-105823896D01*
X128312000Y-105823896D01*
X128312000Y-104088292D01*
X132697998Y-104088292D01*
X132697998Y-104191708D01*
X132718174Y-104293137D01*
X132757749Y-104388681D01*
X132815204Y-104474668D01*
X132888330Y-104547794D01*
X132974317Y-104605249D01*
X133069861Y-104644824D01*
X133171290Y-104665000D01*
X133274706Y-104665000D01*
X133376135Y-104644824D01*
X133471679Y-104605249D01*
X133557666Y-104547794D01*
X133630792Y-104474668D01*
X133656722Y-104435861D01*
X133639400Y-104522943D01*
X133639400Y-104646057D01*
X133663419Y-104766806D01*
X133710532Y-104880548D01*
X133778931Y-104982914D01*
X133865986Y-105069969D01*
X133968352Y-105138368D01*
X134002211Y-105152393D01*
X133968554Y-105156710D01*
X133810523Y-105209770D01*
X133665880Y-105292640D01*
X133540183Y-105402137D01*
X133438263Y-105534052D01*
X133364037Y-105683316D01*
X133323639Y-105827896D01*
X133396810Y-105960500D01*
X134683900Y-105960500D01*
X134683900Y-105135500D01*
X134733900Y-105135500D01*
X134733900Y-105960500D01*
X136020990Y-105960500D01*
X136094161Y-105827896D01*
X136053763Y-105683316D01*
X135979537Y-105534052D01*
X135877617Y-105402137D01*
X135827286Y-105358292D01*
X138957021Y-105358292D01*
X138957021Y-105461708D01*
X138977197Y-105563137D01*
X139016772Y-105658681D01*
X139074227Y-105744668D01*
X139147353Y-105817794D01*
X139233340Y-105875249D01*
X139328884Y-105914824D01*
X139430313Y-105935000D01*
X139533729Y-105935000D01*
X139635158Y-105914824D01*
X139730702Y-105875249D01*
X139816689Y-105817794D01*
X139889815Y-105744668D01*
X139947270Y-105658681D01*
X139986845Y-105563137D01*
X139987171Y-105561496D01*
X142629400Y-105561496D01*
X142629400Y-105664912D01*
X142649576Y-105766341D01*
X142689151Y-105861885D01*
X142746606Y-105947872D01*
X142819732Y-106020998D01*
X142905719Y-106078453D01*
X143001263Y-106118028D01*
X143102692Y-106138204D01*
X143206108Y-106138204D01*
X143307537Y-106118028D01*
X143403081Y-106078453D01*
X143489068Y-106020998D01*
X143533775Y-105976291D01*
X144999999Y-105976291D01*
X144999999Y-106079707D01*
X145020175Y-106181136D01*
X145059750Y-106276680D01*
X145117205Y-106362667D01*
X145190331Y-106435793D01*
X145276318Y-106493248D01*
X145371862Y-106532823D01*
X145473291Y-106552999D01*
X145576707Y-106552999D01*
X145678136Y-106532823D01*
X145773680Y-106493248D01*
X145859667Y-106435793D01*
X145932793Y-106362667D01*
X145990248Y-106276680D01*
X146029823Y-106181136D01*
X146049999Y-106079707D01*
X146049999Y-105993292D01*
X146439400Y-105993292D01*
X146439400Y-106096708D01*
X146459576Y-106198137D01*
X146499151Y-106293681D01*
X146556606Y-106379668D01*
X146629732Y-106452794D01*
X146715719Y-106510249D01*
X146811263Y-106549824D01*
X146912692Y-106570000D01*
X147016108Y-106570000D01*
X147117537Y-106549824D01*
X147213081Y-106510249D01*
X147299068Y-106452794D01*
X147372194Y-106379668D01*
X147429649Y-106293681D01*
X147469224Y-106198137D01*
X147489400Y-106096708D01*
X147489400Y-105993292D01*
X147469224Y-105891863D01*
X147429649Y-105796319D01*
X147372194Y-105710332D01*
X147299068Y-105637206D01*
X147213081Y-105579751D01*
X147117537Y-105540176D01*
X147016108Y-105520000D01*
X146912692Y-105520000D01*
X146811263Y-105540176D01*
X146715719Y-105579751D01*
X146629732Y-105637206D01*
X146556606Y-105710332D01*
X146499151Y-105796319D01*
X146459576Y-105891863D01*
X146439400Y-105993292D01*
X146049999Y-105993292D01*
X146049999Y-105976291D01*
X146029823Y-105874862D01*
X145990248Y-105779318D01*
X145932793Y-105693331D01*
X145859667Y-105620205D01*
X145773680Y-105562750D01*
X145678136Y-105523175D01*
X145576707Y-105502999D01*
X145473291Y-105502999D01*
X145371862Y-105523175D01*
X145276318Y-105562750D01*
X145190331Y-105620205D01*
X145117205Y-105693331D01*
X145059750Y-105779318D01*
X145020175Y-105874862D01*
X144999999Y-105976291D01*
X143533775Y-105976291D01*
X143562194Y-105947872D01*
X143619649Y-105861885D01*
X143659224Y-105766341D01*
X143679400Y-105664912D01*
X143679400Y-105561496D01*
X143659224Y-105460067D01*
X143619649Y-105364523D01*
X143562194Y-105278536D01*
X143489068Y-105205410D01*
X143403081Y-105147955D01*
X143307537Y-105108380D01*
X143206108Y-105088204D01*
X143102692Y-105088204D01*
X143001263Y-105108380D01*
X142905719Y-105147955D01*
X142819732Y-105205410D01*
X142746606Y-105278536D01*
X142689151Y-105364523D01*
X142649576Y-105460067D01*
X142629400Y-105561496D01*
X139987171Y-105561496D01*
X140007021Y-105461708D01*
X140007021Y-105358292D01*
X139986845Y-105256863D01*
X139947270Y-105161319D01*
X139889815Y-105075332D01*
X139816689Y-105002206D01*
X139730702Y-104944751D01*
X139635158Y-104905176D01*
X139533729Y-104885000D01*
X139430313Y-104885000D01*
X139328884Y-104905176D01*
X139233340Y-104944751D01*
X139147353Y-105002206D01*
X139074227Y-105075332D01*
X139016772Y-105161319D01*
X138977197Y-105256863D01*
X138957021Y-105358292D01*
X135827286Y-105358292D01*
X135751920Y-105292640D01*
X135607277Y-105209770D01*
X135449246Y-105156710D01*
X135283900Y-105135500D01*
X134733900Y-105135500D01*
X134683900Y-105135500D01*
X134564740Y-105135500D01*
X134662814Y-105069969D01*
X134749869Y-104982914D01*
X134818268Y-104880548D01*
X134830800Y-104850292D01*
X149817600Y-104850292D01*
X149817600Y-104953708D01*
X149837776Y-105055137D01*
X149877351Y-105150681D01*
X149934806Y-105236668D01*
X150007932Y-105309794D01*
X150093919Y-105367249D01*
X150189463Y-105406824D01*
X150290892Y-105427000D01*
X150394308Y-105427000D01*
X150495737Y-105406824D01*
X150591281Y-105367249D01*
X150677268Y-105309794D01*
X150750394Y-105236668D01*
X150807849Y-105150681D01*
X150847424Y-105055137D01*
X150867600Y-104953708D01*
X150867600Y-104850292D01*
X150847424Y-104748863D01*
X150807849Y-104653319D01*
X150750394Y-104567332D01*
X150677268Y-104494206D01*
X150591281Y-104436751D01*
X150495737Y-104397176D01*
X150394308Y-104377000D01*
X150290892Y-104377000D01*
X150189463Y-104397176D01*
X150093919Y-104436751D01*
X150007932Y-104494206D01*
X149934806Y-104567332D01*
X149877351Y-104653319D01*
X149837776Y-104748863D01*
X149817600Y-104850292D01*
X134830800Y-104850292D01*
X134865381Y-104766806D01*
X134889400Y-104646057D01*
X134889400Y-104522943D01*
X134865381Y-104402194D01*
X134818268Y-104288452D01*
X134749869Y-104186086D01*
X134662814Y-104099031D01*
X134560448Y-104030632D01*
X134446706Y-103983519D01*
X134325957Y-103959500D01*
X134202843Y-103959500D01*
X134082094Y-103983519D01*
X133968352Y-104030632D01*
X133865986Y-104099031D01*
X133778931Y-104186086D01*
X133736478Y-104249621D01*
X133747998Y-104191708D01*
X133747998Y-104088292D01*
X133727822Y-103986863D01*
X133688247Y-103891319D01*
X133630792Y-103805332D01*
X133557666Y-103732206D01*
X133471679Y-103674751D01*
X133376135Y-103635176D01*
X133274706Y-103615000D01*
X133171290Y-103615000D01*
X133069861Y-103635176D01*
X132974317Y-103674751D01*
X132888330Y-103732206D01*
X132815204Y-103805332D01*
X132757749Y-103891319D01*
X132718174Y-103986863D01*
X132697998Y-104088292D01*
X128312000Y-104088292D01*
X128312000Y-103326292D01*
X139683000Y-103326292D01*
X139683000Y-103429708D01*
X139703176Y-103531137D01*
X139742751Y-103626681D01*
X139800206Y-103712668D01*
X139873332Y-103785794D01*
X139959319Y-103843249D01*
X140054863Y-103882824D01*
X140156292Y-103903000D01*
X140259708Y-103903000D01*
X140361137Y-103882824D01*
X140456681Y-103843249D01*
X140542668Y-103785794D01*
X140615794Y-103712668D01*
X140673249Y-103626681D01*
X140692463Y-103580292D01*
X149144500Y-103580292D01*
X149144500Y-103683708D01*
X149164676Y-103785137D01*
X149204251Y-103880681D01*
X149261706Y-103966668D01*
X149334832Y-104039794D01*
X149420819Y-104097249D01*
X149516363Y-104136824D01*
X149617792Y-104157000D01*
X149721208Y-104157000D01*
X149822637Y-104136824D01*
X149918181Y-104097249D01*
X150004168Y-104039794D01*
X150077294Y-103966668D01*
X150080886Y-103961292D01*
X153018000Y-103961292D01*
X153018000Y-104064708D01*
X153038176Y-104166137D01*
X153077751Y-104261681D01*
X153135206Y-104347668D01*
X153208332Y-104420794D01*
X153294319Y-104478249D01*
X153389863Y-104517824D01*
X153491292Y-104538000D01*
X153594708Y-104538000D01*
X153696137Y-104517824D01*
X153791681Y-104478249D01*
X153877668Y-104420794D01*
X153950794Y-104347668D01*
X154008249Y-104261681D01*
X154047824Y-104166137D01*
X154068000Y-104064708D01*
X154068000Y-103961292D01*
X154062948Y-103935892D01*
X155812000Y-103935892D01*
X155812000Y-104039308D01*
X155832176Y-104140737D01*
X155871751Y-104236281D01*
X155929206Y-104322268D01*
X156002332Y-104395394D01*
X156088319Y-104452849D01*
X156183863Y-104492424D01*
X156285292Y-104512600D01*
X156388708Y-104512600D01*
X156490137Y-104492424D01*
X156585681Y-104452849D01*
X156671668Y-104395394D01*
X156744794Y-104322268D01*
X156802249Y-104236281D01*
X156841824Y-104140737D01*
X156862000Y-104039308D01*
X156862000Y-103935892D01*
X156841824Y-103834463D01*
X156802249Y-103738919D01*
X156744794Y-103652932D01*
X156671668Y-103579806D01*
X156585681Y-103522351D01*
X156490137Y-103482776D01*
X156388708Y-103462600D01*
X156285292Y-103462600D01*
X156183863Y-103482776D01*
X156088319Y-103522351D01*
X156002332Y-103579806D01*
X155929206Y-103652932D01*
X155871751Y-103738919D01*
X155832176Y-103834463D01*
X155812000Y-103935892D01*
X154062948Y-103935892D01*
X154047824Y-103859863D01*
X154008249Y-103764319D01*
X153950794Y-103678332D01*
X153877668Y-103605206D01*
X153791681Y-103547751D01*
X153696137Y-103508176D01*
X153594708Y-103488000D01*
X153491292Y-103488000D01*
X153389863Y-103508176D01*
X153294319Y-103547751D01*
X153208332Y-103605206D01*
X153135206Y-103678332D01*
X153077751Y-103764319D01*
X153038176Y-103859863D01*
X153018000Y-103961292D01*
X150080886Y-103961292D01*
X150134749Y-103880681D01*
X150174324Y-103785137D01*
X150194500Y-103683708D01*
X150194500Y-103580292D01*
X150174324Y-103478863D01*
X150134749Y-103383319D01*
X150077294Y-103297332D01*
X150004168Y-103224206D01*
X149918181Y-103166751D01*
X149822637Y-103127176D01*
X149721208Y-103107000D01*
X149617792Y-103107000D01*
X149516363Y-103127176D01*
X149420819Y-103166751D01*
X149334832Y-103224206D01*
X149261706Y-103297332D01*
X149204251Y-103383319D01*
X149164676Y-103478863D01*
X149144500Y-103580292D01*
X140692463Y-103580292D01*
X140712824Y-103531137D01*
X140733000Y-103429708D01*
X140733000Y-103326292D01*
X140712824Y-103224863D01*
X140673249Y-103129319D01*
X140615794Y-103043332D01*
X140542668Y-102970206D01*
X140456681Y-102912751D01*
X140361137Y-102873176D01*
X140259708Y-102853000D01*
X140156292Y-102853000D01*
X140054863Y-102873176D01*
X139959319Y-102912751D01*
X139873332Y-102970206D01*
X139800206Y-103043332D01*
X139742751Y-103129319D01*
X139703176Y-103224863D01*
X139683000Y-103326292D01*
X128312000Y-103326292D01*
X128312000Y-102564292D01*
X135822200Y-102564292D01*
X135822200Y-102667708D01*
X135842376Y-102769137D01*
X135881951Y-102864681D01*
X135939406Y-102950668D01*
X136012532Y-103023794D01*
X136098519Y-103081249D01*
X136194063Y-103120824D01*
X136295492Y-103141000D01*
X136398908Y-103141000D01*
X136500337Y-103120824D01*
X136595881Y-103081249D01*
X136681868Y-103023794D01*
X136754994Y-102950668D01*
X136812449Y-102864681D01*
X136852024Y-102769137D01*
X136872200Y-102667708D01*
X136872200Y-102564292D01*
X136854110Y-102473346D01*
X145053054Y-102473346D01*
X145053054Y-102576762D01*
X145073230Y-102678191D01*
X145112805Y-102773735D01*
X145170260Y-102859722D01*
X145243386Y-102932848D01*
X145329373Y-102990303D01*
X145424917Y-103029878D01*
X145526346Y-103050054D01*
X145629762Y-103050054D01*
X145731191Y-103029878D01*
X145826735Y-102990303D01*
X145912722Y-102932848D01*
X145985848Y-102859722D01*
X146043303Y-102773735D01*
X146056409Y-102742092D01*
X147023600Y-102742092D01*
X147023600Y-102845508D01*
X147043776Y-102946937D01*
X147083351Y-103042481D01*
X147140806Y-103128468D01*
X147213932Y-103201594D01*
X147299919Y-103259049D01*
X147395463Y-103298624D01*
X147496892Y-103318800D01*
X147600308Y-103318800D01*
X147701737Y-103298624D01*
X147797281Y-103259049D01*
X147883268Y-103201594D01*
X147956394Y-103128468D01*
X148013849Y-103042481D01*
X148053424Y-102946937D01*
X148073600Y-102845508D01*
X148073600Y-102818292D01*
X150427200Y-102818292D01*
X150427200Y-102921708D01*
X150447376Y-103023137D01*
X150486951Y-103118681D01*
X150544406Y-103204668D01*
X150617532Y-103277794D01*
X150703519Y-103335249D01*
X150799063Y-103374824D01*
X150900492Y-103395000D01*
X151003908Y-103395000D01*
X151105337Y-103374824D01*
X151200881Y-103335249D01*
X151286868Y-103277794D01*
X151314570Y-103250092D01*
X154008600Y-103250092D01*
X154008600Y-103353508D01*
X154028776Y-103454937D01*
X154068351Y-103550481D01*
X154125806Y-103636468D01*
X154198932Y-103709594D01*
X154284919Y-103767049D01*
X154380463Y-103806624D01*
X154481892Y-103826800D01*
X154585308Y-103826800D01*
X154686737Y-103806624D01*
X154782281Y-103767049D01*
X154868268Y-103709594D01*
X154941394Y-103636468D01*
X154998849Y-103550481D01*
X155038424Y-103454937D01*
X155058600Y-103353508D01*
X155058600Y-103250092D01*
X155038424Y-103148663D01*
X154998849Y-103053119D01*
X154941394Y-102967132D01*
X154868268Y-102894006D01*
X154782281Y-102836551D01*
X154686737Y-102796976D01*
X154585308Y-102776800D01*
X154481892Y-102776800D01*
X154380463Y-102796976D01*
X154284919Y-102836551D01*
X154198932Y-102894006D01*
X154125806Y-102967132D01*
X154068351Y-103053119D01*
X154028776Y-103148663D01*
X154008600Y-103250092D01*
X151314570Y-103250092D01*
X151359994Y-103204668D01*
X151417449Y-103118681D01*
X151457024Y-103023137D01*
X151477200Y-102921708D01*
X151477200Y-102818292D01*
X151457024Y-102716863D01*
X151417449Y-102621319D01*
X151359994Y-102535332D01*
X151286868Y-102462206D01*
X151200881Y-102404751D01*
X151105337Y-102365176D01*
X151003908Y-102345000D01*
X150900492Y-102345000D01*
X150799063Y-102365176D01*
X150703519Y-102404751D01*
X150617532Y-102462206D01*
X150544406Y-102535332D01*
X150486951Y-102621319D01*
X150447376Y-102716863D01*
X150427200Y-102818292D01*
X148073600Y-102818292D01*
X148073600Y-102742092D01*
X148053424Y-102640663D01*
X148013849Y-102545119D01*
X147956394Y-102459132D01*
X147883268Y-102386006D01*
X147797281Y-102328551D01*
X147701737Y-102288976D01*
X147600308Y-102268800D01*
X147496892Y-102268800D01*
X147395463Y-102288976D01*
X147299919Y-102328551D01*
X147213932Y-102386006D01*
X147140806Y-102459132D01*
X147083351Y-102545119D01*
X147043776Y-102640663D01*
X147023600Y-102742092D01*
X146056409Y-102742092D01*
X146082878Y-102678191D01*
X146103054Y-102576762D01*
X146103054Y-102473346D01*
X146082878Y-102371917D01*
X146043303Y-102276373D01*
X145985848Y-102190386D01*
X145912722Y-102117260D01*
X145826735Y-102059805D01*
X145731191Y-102020230D01*
X145629762Y-102000054D01*
X145526346Y-102000054D01*
X145424917Y-102020230D01*
X145329373Y-102059805D01*
X145243386Y-102117260D01*
X145170260Y-102190386D01*
X145112805Y-102276373D01*
X145073230Y-102371917D01*
X145053054Y-102473346D01*
X136854110Y-102473346D01*
X136852024Y-102462863D01*
X136812449Y-102367319D01*
X136754994Y-102281332D01*
X136681868Y-102208206D01*
X136595881Y-102150751D01*
X136500337Y-102111176D01*
X136398908Y-102091000D01*
X136295492Y-102091000D01*
X136194063Y-102111176D01*
X136098519Y-102150751D01*
X136012532Y-102208206D01*
X135939406Y-102281332D01*
X135881951Y-102367319D01*
X135842376Y-102462863D01*
X135822200Y-102564292D01*
X128312000Y-102564292D01*
X128312000Y-100837092D01*
X135746000Y-100837092D01*
X135746000Y-100940508D01*
X135766176Y-101041937D01*
X135805751Y-101137481D01*
X135863206Y-101223468D01*
X135936332Y-101296594D01*
X136022319Y-101354049D01*
X136117863Y-101393624D01*
X136219292Y-101413800D01*
X136322708Y-101413800D01*
X136424137Y-101393624D01*
X136519681Y-101354049D01*
X136605668Y-101296594D01*
X136671470Y-101230792D01*
X154796000Y-101230792D01*
X154796000Y-101334208D01*
X154816176Y-101435637D01*
X154855751Y-101531181D01*
X154913206Y-101617168D01*
X154986332Y-101690294D01*
X155072319Y-101747749D01*
X155167863Y-101787324D01*
X155269292Y-101807500D01*
X155372708Y-101807500D01*
X155474137Y-101787324D01*
X155569681Y-101747749D01*
X155655668Y-101690294D01*
X155728794Y-101617168D01*
X155786249Y-101531181D01*
X155825824Y-101435637D01*
X155846000Y-101334208D01*
X155846000Y-101230792D01*
X155825824Y-101129363D01*
X155786249Y-101033819D01*
X155728794Y-100947832D01*
X155655668Y-100874706D01*
X155569681Y-100817251D01*
X155474137Y-100777676D01*
X155372708Y-100757500D01*
X155269292Y-100757500D01*
X155167863Y-100777676D01*
X155072319Y-100817251D01*
X154986332Y-100874706D01*
X154913206Y-100947832D01*
X154855751Y-101033819D01*
X154816176Y-101129363D01*
X154796000Y-101230792D01*
X136671470Y-101230792D01*
X136678794Y-101223468D01*
X136736249Y-101137481D01*
X136775824Y-101041937D01*
X136796000Y-100940508D01*
X136796000Y-100837092D01*
X136775824Y-100735663D01*
X136736249Y-100640119D01*
X136678794Y-100554132D01*
X136605668Y-100481006D01*
X136519681Y-100423551D01*
X136424137Y-100383976D01*
X136322708Y-100363800D01*
X136219292Y-100363800D01*
X136117863Y-100383976D01*
X136022319Y-100423551D01*
X135936332Y-100481006D01*
X135863206Y-100554132D01*
X135805751Y-100640119D01*
X135766176Y-100735663D01*
X135746000Y-100837092D01*
X128312000Y-100837092D01*
X128312000Y-97499104D01*
X129393639Y-97499104D01*
X129434037Y-97643684D01*
X129508263Y-97792948D01*
X129610183Y-97924863D01*
X129735880Y-98034360D01*
X129880523Y-98117230D01*
X130038554Y-98170290D01*
X130203900Y-98191500D01*
X130503900Y-98191500D01*
X130503900Y-97366500D01*
X130553900Y-97366500D01*
X130553900Y-98191500D01*
X130853900Y-98191500D01*
X131019246Y-98170290D01*
X131177277Y-98117230D01*
X131321920Y-98034360D01*
X131447617Y-97924863D01*
X131549537Y-97792948D01*
X131623763Y-97643684D01*
X131663043Y-97503104D01*
X133323639Y-97503104D01*
X133364037Y-97647684D01*
X133438263Y-97796948D01*
X133540183Y-97928863D01*
X133665880Y-98038360D01*
X133810523Y-98121230D01*
X133968554Y-98174290D01*
X133994837Y-98177662D01*
X133968352Y-98188632D01*
X133865986Y-98257031D01*
X133778931Y-98344086D01*
X133710532Y-98446452D01*
X133663419Y-98560194D01*
X133639400Y-98680943D01*
X133639400Y-98804057D01*
X133663419Y-98924806D01*
X133710532Y-99038548D01*
X133778931Y-99140914D01*
X133800786Y-99162769D01*
X133761719Y-99178951D01*
X133675732Y-99236406D01*
X133602606Y-99309532D01*
X133545151Y-99395519D01*
X133505576Y-99491063D01*
X133485400Y-99592492D01*
X133485400Y-99695908D01*
X133505576Y-99797337D01*
X133545151Y-99892881D01*
X133602606Y-99978868D01*
X133675732Y-100051994D01*
X133761719Y-100109449D01*
X133857263Y-100149024D01*
X133958692Y-100169200D01*
X134062108Y-100169200D01*
X134163537Y-100149024D01*
X134259081Y-100109449D01*
X134272486Y-100100492D01*
X140216400Y-100100492D01*
X140216400Y-100203908D01*
X140236576Y-100305337D01*
X140276151Y-100400881D01*
X140333606Y-100486868D01*
X140406732Y-100559994D01*
X140492719Y-100617449D01*
X140588263Y-100657024D01*
X140689692Y-100677200D01*
X140793108Y-100677200D01*
X140894537Y-100657024D01*
X140990081Y-100617449D01*
X141076068Y-100559994D01*
X141149194Y-100486868D01*
X141206649Y-100400881D01*
X141209061Y-100395056D01*
X167505000Y-100395056D01*
X167505000Y-100532944D01*
X167531901Y-100668182D01*
X167584668Y-100795574D01*
X167661274Y-100910224D01*
X167758776Y-101007726D01*
X167873426Y-101084332D01*
X168000818Y-101137099D01*
X168136056Y-101164000D01*
X168273944Y-101164000D01*
X168409182Y-101137099D01*
X168536574Y-101084332D01*
X168651224Y-101007726D01*
X168748726Y-100910224D01*
X168825332Y-100795574D01*
X168878099Y-100668182D01*
X168905000Y-100532944D01*
X168905000Y-100395056D01*
X168878099Y-100259818D01*
X168825332Y-100132426D01*
X168748726Y-100017776D01*
X168651224Y-99920274D01*
X168536574Y-99843668D01*
X168409182Y-99790901D01*
X168273944Y-99764000D01*
X168136056Y-99764000D01*
X168000818Y-99790901D01*
X167873426Y-99843668D01*
X167758776Y-99920274D01*
X167661274Y-100017776D01*
X167584668Y-100132426D01*
X167531901Y-100259818D01*
X167505000Y-100395056D01*
X141209061Y-100395056D01*
X141246224Y-100305337D01*
X141266400Y-100203908D01*
X141266400Y-100100492D01*
X141246224Y-99999063D01*
X141206649Y-99903519D01*
X141149194Y-99817532D01*
X141076068Y-99744406D01*
X140990081Y-99686951D01*
X140894537Y-99647376D01*
X140793108Y-99627200D01*
X140689692Y-99627200D01*
X140588263Y-99647376D01*
X140492719Y-99686951D01*
X140406732Y-99744406D01*
X140333606Y-99817532D01*
X140276151Y-99903519D01*
X140236576Y-99999063D01*
X140216400Y-100100492D01*
X134272486Y-100100492D01*
X134345068Y-100051994D01*
X134418194Y-99978868D01*
X134475649Y-99892881D01*
X134515224Y-99797337D01*
X134535400Y-99695908D01*
X134535400Y-99592492D01*
X134515224Y-99491063D01*
X134475649Y-99395519D01*
X134441562Y-99344504D01*
X134446706Y-99343481D01*
X134560448Y-99296368D01*
X134662814Y-99227969D01*
X134749869Y-99140914D01*
X134753625Y-99135292D01*
X157209000Y-99135292D01*
X157209000Y-99238708D01*
X157229176Y-99340137D01*
X157268751Y-99435681D01*
X157326206Y-99521668D01*
X157399332Y-99594794D01*
X157485319Y-99652249D01*
X157580863Y-99691824D01*
X157682292Y-99712000D01*
X157785708Y-99712000D01*
X157887137Y-99691824D01*
X157982681Y-99652249D01*
X158068668Y-99594794D01*
X158141794Y-99521668D01*
X158199249Y-99435681D01*
X158238824Y-99340137D01*
X158259000Y-99238708D01*
X158259000Y-99135292D01*
X158238824Y-99033863D01*
X158199249Y-98938319D01*
X158141794Y-98852332D01*
X158068668Y-98779206D01*
X157982681Y-98721751D01*
X157887137Y-98682176D01*
X157785708Y-98662000D01*
X157682292Y-98662000D01*
X157580863Y-98682176D01*
X157485319Y-98721751D01*
X157399332Y-98779206D01*
X157326206Y-98852332D01*
X157268751Y-98938319D01*
X157229176Y-99033863D01*
X157209000Y-99135292D01*
X134753625Y-99135292D01*
X134818268Y-99038548D01*
X134865381Y-98924806D01*
X134889400Y-98804057D01*
X134889400Y-98680943D01*
X134865381Y-98560194D01*
X134818268Y-98446452D01*
X134749869Y-98344086D01*
X134662814Y-98257031D01*
X134646743Y-98246292D01*
X149360400Y-98246292D01*
X149360400Y-98349708D01*
X149380576Y-98451137D01*
X149420151Y-98546681D01*
X149477606Y-98632668D01*
X149550732Y-98705794D01*
X149636719Y-98763249D01*
X149732263Y-98802824D01*
X149833692Y-98823000D01*
X149937108Y-98823000D01*
X150038537Y-98802824D01*
X150134081Y-98763249D01*
X150220068Y-98705794D01*
X150293194Y-98632668D01*
X150350649Y-98546681D01*
X150369863Y-98500292D01*
X163813000Y-98500292D01*
X163813000Y-98603708D01*
X163833176Y-98705137D01*
X163872751Y-98800681D01*
X163930206Y-98886668D01*
X164003332Y-98959794D01*
X164089319Y-99017249D01*
X164184863Y-99056824D01*
X164286292Y-99077000D01*
X164389708Y-99077000D01*
X164491137Y-99056824D01*
X164586681Y-99017249D01*
X164672668Y-98959794D01*
X164745794Y-98886668D01*
X164803249Y-98800681D01*
X164842824Y-98705137D01*
X164863000Y-98603708D01*
X164863000Y-98500292D01*
X164842824Y-98398863D01*
X164803249Y-98303319D01*
X164745794Y-98217332D01*
X164672668Y-98144206D01*
X164599111Y-98095056D01*
X167505000Y-98095056D01*
X167505000Y-98232944D01*
X167531901Y-98368182D01*
X167584668Y-98495574D01*
X167661274Y-98610224D01*
X167758776Y-98707726D01*
X167873426Y-98784332D01*
X168000818Y-98837099D01*
X168136056Y-98864000D01*
X168273944Y-98864000D01*
X168409182Y-98837099D01*
X168536574Y-98784332D01*
X168651224Y-98707726D01*
X168748726Y-98610224D01*
X168825332Y-98495574D01*
X168878099Y-98368182D01*
X168905000Y-98232944D01*
X168905000Y-98095056D01*
X168878099Y-97959818D01*
X168825332Y-97832426D01*
X168748726Y-97717776D01*
X168651224Y-97620274D01*
X168536574Y-97543668D01*
X168409182Y-97490901D01*
X168273944Y-97464000D01*
X168136056Y-97464000D01*
X168000818Y-97490901D01*
X167873426Y-97543668D01*
X167758776Y-97620274D01*
X167661274Y-97717776D01*
X167584668Y-97832426D01*
X167531901Y-97959818D01*
X167505000Y-98095056D01*
X164599111Y-98095056D01*
X164586681Y-98086751D01*
X164491137Y-98047176D01*
X164389708Y-98027000D01*
X164286292Y-98027000D01*
X164184863Y-98047176D01*
X164089319Y-98086751D01*
X164003332Y-98144206D01*
X163930206Y-98217332D01*
X163872751Y-98303319D01*
X163833176Y-98398863D01*
X163813000Y-98500292D01*
X150369863Y-98500292D01*
X150390224Y-98451137D01*
X150410400Y-98349708D01*
X150410400Y-98246292D01*
X150390224Y-98144863D01*
X150350649Y-98049319D01*
X150293194Y-97963332D01*
X150220068Y-97890206D01*
X150134081Y-97832751D01*
X150038537Y-97793176D01*
X149937108Y-97773000D01*
X149833692Y-97773000D01*
X149732263Y-97793176D01*
X149636719Y-97832751D01*
X149550732Y-97890206D01*
X149477606Y-97963332D01*
X149420151Y-98049319D01*
X149380576Y-98144863D01*
X149360400Y-98246292D01*
X134646743Y-98246292D01*
X134570727Y-98195500D01*
X134683900Y-98195500D01*
X134683900Y-97370500D01*
X134733900Y-97370500D01*
X134733900Y-98195500D01*
X135283900Y-98195500D01*
X135449246Y-98174290D01*
X135607277Y-98121230D01*
X135751920Y-98038360D01*
X135877617Y-97928863D01*
X135979537Y-97796948D01*
X136053763Y-97647684D01*
X136094161Y-97503104D01*
X136069765Y-97458892D01*
X153805400Y-97458892D01*
X153805400Y-97562308D01*
X153825576Y-97663737D01*
X153865151Y-97759281D01*
X153922606Y-97845268D01*
X153995732Y-97918394D01*
X154081719Y-97975849D01*
X154177263Y-98015424D01*
X154278692Y-98035600D01*
X154382108Y-98035600D01*
X154483537Y-98015424D01*
X154579081Y-97975849D01*
X154665068Y-97918394D01*
X154738194Y-97845268D01*
X154795649Y-97759281D01*
X154835224Y-97663737D01*
X154855400Y-97562308D01*
X154855400Y-97458892D01*
X154835224Y-97357463D01*
X154795649Y-97261919D01*
X154738194Y-97175932D01*
X154665068Y-97102806D01*
X154579081Y-97045351D01*
X154483537Y-97005776D01*
X154382108Y-96985600D01*
X154278692Y-96985600D01*
X154177263Y-97005776D01*
X154081719Y-97045351D01*
X153995732Y-97102806D01*
X153922606Y-97175932D01*
X153865151Y-97261919D01*
X153825576Y-97357463D01*
X153805400Y-97458892D01*
X136069765Y-97458892D01*
X136020990Y-97370500D01*
X134733900Y-97370500D01*
X134683900Y-97370500D01*
X133396810Y-97370500D01*
X133323639Y-97503104D01*
X131663043Y-97503104D01*
X131664161Y-97499104D01*
X131590990Y-97366500D01*
X130553900Y-97366500D01*
X130503900Y-97366500D01*
X129466810Y-97366500D01*
X129393639Y-97499104D01*
X128312000Y-97499104D01*
X128312000Y-97183896D01*
X129393639Y-97183896D01*
X129466810Y-97316500D01*
X130503900Y-97316500D01*
X130503900Y-96491500D01*
X130553900Y-96491500D01*
X130553900Y-97316500D01*
X131590990Y-97316500D01*
X131661953Y-97187896D01*
X133323639Y-97187896D01*
X133396810Y-97320500D01*
X134683900Y-97320500D01*
X134683900Y-96495500D01*
X134733900Y-96495500D01*
X134733900Y-97320500D01*
X136020990Y-97320500D01*
X136094161Y-97187896D01*
X136053763Y-97043316D01*
X135979537Y-96894052D01*
X135877617Y-96762137D01*
X135751920Y-96652640D01*
X135607277Y-96569770D01*
X135449246Y-96516710D01*
X135283900Y-96495500D01*
X134733900Y-96495500D01*
X134683900Y-96495500D01*
X134133900Y-96495500D01*
X133968554Y-96516710D01*
X133810523Y-96569770D01*
X133665880Y-96652640D01*
X133540183Y-96762137D01*
X133438263Y-96894052D01*
X133364037Y-97043316D01*
X133323639Y-97187896D01*
X131661953Y-97187896D01*
X131664161Y-97183896D01*
X131623763Y-97039316D01*
X131549537Y-96890052D01*
X131447617Y-96758137D01*
X131321920Y-96648640D01*
X131177277Y-96565770D01*
X131019246Y-96512710D01*
X130853900Y-96491500D01*
X130553900Y-96491500D01*
X130503900Y-96491500D01*
X130203900Y-96491500D01*
X130038554Y-96512710D01*
X129880523Y-96565770D01*
X129735880Y-96648640D01*
X129610183Y-96758137D01*
X129508263Y-96890052D01*
X129434037Y-97039316D01*
X129393639Y-97183896D01*
X128312000Y-97183896D01*
X128312000Y-96341292D01*
X147557000Y-96341292D01*
X147557000Y-96444708D01*
X147577176Y-96546137D01*
X147616751Y-96641681D01*
X147674206Y-96727668D01*
X147747332Y-96800794D01*
X147833319Y-96858249D01*
X147928863Y-96897824D01*
X148030292Y-96918000D01*
X148133708Y-96918000D01*
X148235137Y-96897824D01*
X148330681Y-96858249D01*
X148416668Y-96800794D01*
X148489794Y-96727668D01*
X148547249Y-96641681D01*
X148586824Y-96546137D01*
X148607000Y-96444708D01*
X148607000Y-96341292D01*
X148586824Y-96239863D01*
X148576233Y-96214292D01*
X149208000Y-96214292D01*
X149208000Y-96317708D01*
X149228176Y-96419137D01*
X149267751Y-96514681D01*
X149325206Y-96600668D01*
X149398332Y-96673794D01*
X149484319Y-96731249D01*
X149579863Y-96770824D01*
X149681292Y-96791000D01*
X149784708Y-96791000D01*
X149886137Y-96770824D01*
X149981681Y-96731249D01*
X150067668Y-96673794D01*
X150140794Y-96600668D01*
X150198249Y-96514681D01*
X150237824Y-96419137D01*
X150253308Y-96341292D01*
X150478000Y-96341292D01*
X150478000Y-96444708D01*
X150498176Y-96546137D01*
X150537751Y-96641681D01*
X150595206Y-96727668D01*
X150668332Y-96800794D01*
X150754319Y-96858249D01*
X150849863Y-96897824D01*
X150951292Y-96918000D01*
X151054708Y-96918000D01*
X151156137Y-96897824D01*
X151251681Y-96858249D01*
X151337668Y-96800794D01*
X151410794Y-96727668D01*
X151468249Y-96641681D01*
X151507824Y-96546137D01*
X151528000Y-96444708D01*
X151528000Y-96341292D01*
X151512843Y-96265092D01*
X152332200Y-96265092D01*
X152332200Y-96368508D01*
X152352376Y-96469937D01*
X152391951Y-96565481D01*
X152449406Y-96651468D01*
X152522532Y-96724594D01*
X152608519Y-96782049D01*
X152704063Y-96821624D01*
X152805492Y-96841800D01*
X152908908Y-96841800D01*
X153010337Y-96821624D01*
X153105881Y-96782049D01*
X153191868Y-96724594D01*
X153264994Y-96651468D01*
X153322449Y-96565481D01*
X153362024Y-96469937D01*
X153373600Y-96411742D01*
X153373600Y-96419308D01*
X153393776Y-96520737D01*
X153433351Y-96616281D01*
X153490806Y-96702268D01*
X153563932Y-96775394D01*
X153649919Y-96832849D01*
X153745463Y-96872424D01*
X153846892Y-96892600D01*
X153950308Y-96892600D01*
X154051737Y-96872424D01*
X154147281Y-96832849D01*
X154233268Y-96775394D01*
X154306394Y-96702268D01*
X154363849Y-96616281D01*
X154403424Y-96520737D01*
X154423600Y-96419308D01*
X154423600Y-96315892D01*
X154403424Y-96214463D01*
X154363849Y-96118919D01*
X154306394Y-96032932D01*
X154233268Y-95959806D01*
X154147281Y-95902351D01*
X154051737Y-95862776D01*
X153950308Y-95842600D01*
X153846892Y-95842600D01*
X153745463Y-95862776D01*
X153649919Y-95902351D01*
X153563932Y-95959806D01*
X153490806Y-96032932D01*
X153433351Y-96118919D01*
X153393776Y-96214463D01*
X153382200Y-96272658D01*
X153382200Y-96265092D01*
X153362024Y-96163663D01*
X153322449Y-96068119D01*
X153264994Y-95982132D01*
X153191868Y-95909006D01*
X153105881Y-95851551D01*
X153010337Y-95811976D01*
X152908908Y-95791800D01*
X152805492Y-95791800D01*
X152704063Y-95811976D01*
X152608519Y-95851551D01*
X152522532Y-95909006D01*
X152449406Y-95982132D01*
X152391951Y-96068119D01*
X152352376Y-96163663D01*
X152332200Y-96265092D01*
X151512843Y-96265092D01*
X151507824Y-96239863D01*
X151468249Y-96144319D01*
X151410794Y-96058332D01*
X151337668Y-95985206D01*
X151251681Y-95927751D01*
X151156137Y-95888176D01*
X151054708Y-95868000D01*
X150951292Y-95868000D01*
X150849863Y-95888176D01*
X150754319Y-95927751D01*
X150668332Y-95985206D01*
X150595206Y-96058332D01*
X150537751Y-96144319D01*
X150498176Y-96239863D01*
X150478000Y-96341292D01*
X150253308Y-96341292D01*
X150258000Y-96317708D01*
X150258000Y-96214292D01*
X150237824Y-96112863D01*
X150198249Y-96017319D01*
X150140794Y-95931332D01*
X150067668Y-95858206D01*
X149981681Y-95800751D01*
X149886137Y-95761176D01*
X149784708Y-95741000D01*
X149681292Y-95741000D01*
X149579863Y-95761176D01*
X149484319Y-95800751D01*
X149398332Y-95858206D01*
X149325206Y-95931332D01*
X149267751Y-96017319D01*
X149228176Y-96112863D01*
X149208000Y-96214292D01*
X148576233Y-96214292D01*
X148547249Y-96144319D01*
X148489794Y-96058332D01*
X148416668Y-95985206D01*
X148330681Y-95927751D01*
X148235137Y-95888176D01*
X148133708Y-95868000D01*
X148030292Y-95868000D01*
X147928863Y-95888176D01*
X147833319Y-95927751D01*
X147747332Y-95985206D01*
X147674206Y-96058332D01*
X147616751Y-96144319D01*
X147577176Y-96239863D01*
X147557000Y-96341292D01*
X128312000Y-96341292D01*
X128312000Y-94354298D01*
X136381000Y-94354298D01*
X136381000Y-94457714D01*
X136401176Y-94559143D01*
X136440751Y-94654687D01*
X136498206Y-94740674D01*
X136571332Y-94813800D01*
X136657319Y-94871255D01*
X136752863Y-94910830D01*
X136854292Y-94931006D01*
X136957708Y-94931006D01*
X137059137Y-94910830D01*
X137154681Y-94871255D01*
X137240668Y-94813800D01*
X137313794Y-94740674D01*
X137371249Y-94654687D01*
X137410824Y-94559143D01*
X137431000Y-94457714D01*
X137431000Y-94354300D01*
X137651000Y-94354300D01*
X137651000Y-94457716D01*
X137671176Y-94559145D01*
X137710751Y-94654689D01*
X137768206Y-94740676D01*
X137841332Y-94813802D01*
X137927319Y-94871257D01*
X138022863Y-94910832D01*
X138124292Y-94931008D01*
X138227708Y-94931008D01*
X138329137Y-94910832D01*
X138424681Y-94871257D01*
X138510668Y-94813802D01*
X138583794Y-94740676D01*
X138641249Y-94654689D01*
X138680824Y-94559145D01*
X138701000Y-94457716D01*
X138701000Y-94354300D01*
X138700996Y-94354278D01*
X138921000Y-94354278D01*
X138921000Y-94457694D01*
X138941176Y-94559123D01*
X138980751Y-94654667D01*
X139038206Y-94740654D01*
X139111332Y-94813780D01*
X139197319Y-94871235D01*
X139292863Y-94910810D01*
X139394292Y-94930986D01*
X139497708Y-94930986D01*
X139599137Y-94910810D01*
X139694681Y-94871235D01*
X139780668Y-94813780D01*
X139853794Y-94740654D01*
X139911249Y-94654667D01*
X139950824Y-94559123D01*
X139971000Y-94457694D01*
X139971000Y-94354286D01*
X140191000Y-94354286D01*
X140191000Y-94457702D01*
X140211176Y-94559131D01*
X140250751Y-94654675D01*
X140308206Y-94740662D01*
X140381332Y-94813788D01*
X140467319Y-94871243D01*
X140562863Y-94910818D01*
X140664292Y-94930994D01*
X140767708Y-94930994D01*
X140869137Y-94910818D01*
X140964681Y-94871243D01*
X141050668Y-94813788D01*
X141123794Y-94740662D01*
X141181249Y-94654675D01*
X141220824Y-94559131D01*
X141241000Y-94457702D01*
X141241000Y-94354286D01*
X141461000Y-94354286D01*
X141461000Y-94457702D01*
X141481176Y-94559131D01*
X141520751Y-94654675D01*
X141578206Y-94740662D01*
X141651332Y-94813788D01*
X141737319Y-94871243D01*
X141832863Y-94910818D01*
X141934292Y-94930994D01*
X142037708Y-94930994D01*
X142139137Y-94910818D01*
X142234681Y-94871243D01*
X142320668Y-94813788D01*
X142393794Y-94740662D01*
X142451249Y-94654675D01*
X142490824Y-94559131D01*
X142511000Y-94457702D01*
X142511000Y-94354304D01*
X142731000Y-94354304D01*
X142731000Y-94457720D01*
X142751176Y-94559149D01*
X142790751Y-94654693D01*
X142848206Y-94740680D01*
X142921332Y-94813806D01*
X143007319Y-94871261D01*
X143102863Y-94910836D01*
X143204292Y-94931012D01*
X143307708Y-94931012D01*
X143409137Y-94910836D01*
X143504681Y-94871261D01*
X143590668Y-94813806D01*
X143663794Y-94740680D01*
X143721249Y-94654693D01*
X143760824Y-94559149D01*
X143781000Y-94457720D01*
X143781000Y-94354304D01*
X143780998Y-94354292D01*
X144001000Y-94354292D01*
X144001000Y-94457708D01*
X144021176Y-94559137D01*
X144060751Y-94654681D01*
X144118206Y-94740668D01*
X144191332Y-94813794D01*
X144277319Y-94871249D01*
X144372863Y-94910824D01*
X144474292Y-94931000D01*
X144577708Y-94931000D01*
X144679137Y-94910824D01*
X144774681Y-94871249D01*
X144860668Y-94813794D01*
X144933794Y-94740668D01*
X144991249Y-94654681D01*
X145030824Y-94559137D01*
X145051000Y-94457708D01*
X145051000Y-94354292D01*
X145050999Y-94354284D01*
X145271000Y-94354284D01*
X145271000Y-94457700D01*
X145291176Y-94559129D01*
X145330751Y-94654673D01*
X145388206Y-94740660D01*
X145461332Y-94813786D01*
X145547319Y-94871241D01*
X145642863Y-94910816D01*
X145744292Y-94930992D01*
X145847708Y-94930992D01*
X145949137Y-94910816D01*
X146044681Y-94871241D01*
X146130668Y-94813786D01*
X146203794Y-94740660D01*
X146261249Y-94654673D01*
X146300824Y-94559129D01*
X146321000Y-94457700D01*
X146321000Y-94354286D01*
X146541000Y-94354286D01*
X146541000Y-94457702D01*
X146561176Y-94559131D01*
X146600751Y-94654675D01*
X146658206Y-94740662D01*
X146731332Y-94813788D01*
X146817319Y-94871243D01*
X146912863Y-94910818D01*
X147014292Y-94930994D01*
X147117708Y-94930994D01*
X147219137Y-94910818D01*
X147314681Y-94871243D01*
X147400668Y-94813788D01*
X147473794Y-94740662D01*
X147531249Y-94654675D01*
X147570824Y-94559131D01*
X147591000Y-94457702D01*
X147591000Y-94354292D01*
X147811000Y-94354292D01*
X147811000Y-94457708D01*
X147831176Y-94559137D01*
X147870751Y-94654681D01*
X147928206Y-94740668D01*
X148001332Y-94813794D01*
X148087319Y-94871249D01*
X148182863Y-94910824D01*
X148284292Y-94931000D01*
X148387708Y-94931000D01*
X148489137Y-94910824D01*
X148584681Y-94871249D01*
X148670668Y-94813794D01*
X148743794Y-94740668D01*
X148801249Y-94654681D01*
X148840824Y-94559137D01*
X148861000Y-94457708D01*
X148861000Y-94354292D01*
X150351000Y-94354292D01*
X150351000Y-94457708D01*
X150371176Y-94559137D01*
X150410751Y-94654681D01*
X150468206Y-94740668D01*
X150541332Y-94813794D01*
X150627319Y-94871249D01*
X150722863Y-94910824D01*
X150824292Y-94931000D01*
X150927708Y-94931000D01*
X151029137Y-94910824D01*
X151124681Y-94871249D01*
X151210668Y-94813794D01*
X151283794Y-94740668D01*
X151341249Y-94654681D01*
X151380824Y-94559137D01*
X151401000Y-94457708D01*
X151401000Y-94354292D01*
X151621000Y-94354292D01*
X151621000Y-94457708D01*
X151641176Y-94559137D01*
X151680751Y-94654681D01*
X151738206Y-94740668D01*
X151811332Y-94813794D01*
X151897319Y-94871249D01*
X151992863Y-94910824D01*
X152094292Y-94931000D01*
X152197708Y-94931000D01*
X152299137Y-94910824D01*
X152394681Y-94871249D01*
X152480668Y-94813794D01*
X152553794Y-94740668D01*
X152611249Y-94654681D01*
X152650824Y-94559137D01*
X152671000Y-94457708D01*
X152671000Y-94354292D01*
X152662049Y-94309292D01*
X152891000Y-94309292D01*
X152891000Y-94412708D01*
X152911176Y-94514137D01*
X152950751Y-94609681D01*
X153008206Y-94695668D01*
X153081332Y-94768794D01*
X153167319Y-94826249D01*
X153262863Y-94865824D01*
X153364292Y-94886000D01*
X153467708Y-94886000D01*
X153569137Y-94865824D01*
X153664681Y-94826249D01*
X153750668Y-94768794D01*
X153823794Y-94695668D01*
X153881249Y-94609681D01*
X153920824Y-94514137D01*
X153941000Y-94412708D01*
X153941000Y-94354300D01*
X154161000Y-94354300D01*
X154161000Y-94457716D01*
X154181176Y-94559145D01*
X154220751Y-94654689D01*
X154278206Y-94740676D01*
X154351332Y-94813802D01*
X154437319Y-94871257D01*
X154532863Y-94910832D01*
X154634292Y-94931008D01*
X154737708Y-94931008D01*
X154839137Y-94910832D01*
X154934681Y-94871257D01*
X155020668Y-94813802D01*
X155093794Y-94740676D01*
X155151249Y-94654689D01*
X155190824Y-94559145D01*
X155211000Y-94457716D01*
X155211000Y-94354300D01*
X155210998Y-94354288D01*
X155431000Y-94354288D01*
X155431000Y-94457704D01*
X155451176Y-94559133D01*
X155490751Y-94654677D01*
X155548206Y-94740664D01*
X155621332Y-94813790D01*
X155707319Y-94871245D01*
X155802863Y-94910820D01*
X155904292Y-94930996D01*
X156007708Y-94930996D01*
X156109137Y-94910820D01*
X156204681Y-94871245D01*
X156290668Y-94813790D01*
X156363794Y-94740664D01*
X156421249Y-94654677D01*
X156460824Y-94559133D01*
X156481000Y-94457704D01*
X156481000Y-94354292D01*
X156701000Y-94354292D01*
X156701000Y-94457708D01*
X156721176Y-94559137D01*
X156760751Y-94654681D01*
X156818206Y-94740668D01*
X156891332Y-94813794D01*
X156977319Y-94871249D01*
X157072863Y-94910824D01*
X157174292Y-94931000D01*
X157277708Y-94931000D01*
X157379137Y-94910824D01*
X157474681Y-94871249D01*
X157560668Y-94813794D01*
X157633794Y-94740668D01*
X157691249Y-94654681D01*
X157730824Y-94559137D01*
X157751000Y-94457708D01*
X157751000Y-94354292D01*
X157751000Y-94354288D01*
X157971000Y-94354288D01*
X157971000Y-94457704D01*
X157991176Y-94559133D01*
X158030751Y-94654677D01*
X158088206Y-94740664D01*
X158161332Y-94813790D01*
X158247319Y-94871245D01*
X158342863Y-94910820D01*
X158444292Y-94930996D01*
X158547708Y-94930996D01*
X158649137Y-94910820D01*
X158744681Y-94871245D01*
X158830668Y-94813790D01*
X158903794Y-94740664D01*
X158961249Y-94654677D01*
X159000824Y-94559133D01*
X159021000Y-94457704D01*
X159021000Y-94354288D01*
X159241000Y-94354288D01*
X159241000Y-94457704D01*
X159261176Y-94559133D01*
X159300751Y-94654677D01*
X159358206Y-94740664D01*
X159431332Y-94813790D01*
X159517319Y-94871245D01*
X159612863Y-94910820D01*
X159714292Y-94930996D01*
X159817708Y-94930996D01*
X159919137Y-94910820D01*
X160014681Y-94871245D01*
X160100668Y-94813790D01*
X160173794Y-94740664D01*
X160231249Y-94654677D01*
X160270824Y-94559133D01*
X160291000Y-94457704D01*
X160291000Y-94354288D01*
X160270824Y-94252859D01*
X160241595Y-94182292D01*
X163609800Y-94182292D01*
X163609800Y-94285708D01*
X163629976Y-94387137D01*
X163669551Y-94482681D01*
X163727006Y-94568668D01*
X163800132Y-94641794D01*
X163886119Y-94699249D01*
X163981663Y-94738824D01*
X164083092Y-94759000D01*
X164186508Y-94759000D01*
X164287937Y-94738824D01*
X164383481Y-94699249D01*
X164469468Y-94641794D01*
X164542594Y-94568668D01*
X164600049Y-94482681D01*
X164639624Y-94387137D01*
X164659800Y-94285708D01*
X164659800Y-94182292D01*
X164639624Y-94080863D01*
X164600049Y-93985319D01*
X164542594Y-93899332D01*
X164469468Y-93826206D01*
X164383481Y-93768751D01*
X164287937Y-93729176D01*
X164186508Y-93709000D01*
X164083092Y-93709000D01*
X163981663Y-93729176D01*
X163886119Y-93768751D01*
X163800132Y-93826206D01*
X163727006Y-93899332D01*
X163669551Y-93985319D01*
X163629976Y-94080863D01*
X163609800Y-94182292D01*
X160241595Y-94182292D01*
X160231249Y-94157315D01*
X160173794Y-94071328D01*
X160100668Y-93998202D01*
X160014681Y-93940747D01*
X159919137Y-93901172D01*
X159817708Y-93880996D01*
X159714292Y-93880996D01*
X159612863Y-93901172D01*
X159517319Y-93940747D01*
X159431332Y-93998202D01*
X159358206Y-94071328D01*
X159300751Y-94157315D01*
X159261176Y-94252859D01*
X159241000Y-94354288D01*
X159021000Y-94354288D01*
X159000824Y-94252859D01*
X158961249Y-94157315D01*
X158903794Y-94071328D01*
X158830668Y-93998202D01*
X158744681Y-93940747D01*
X158649137Y-93901172D01*
X158547708Y-93880996D01*
X158444292Y-93880996D01*
X158342863Y-93901172D01*
X158247319Y-93940747D01*
X158161332Y-93998202D01*
X158088206Y-94071328D01*
X158030751Y-94157315D01*
X157991176Y-94252859D01*
X157971000Y-94354288D01*
X157751000Y-94354288D01*
X157730824Y-94252863D01*
X157691249Y-94157319D01*
X157633794Y-94071332D01*
X157560668Y-93998206D01*
X157474681Y-93940751D01*
X157379137Y-93901176D01*
X157277708Y-93881000D01*
X157174292Y-93881000D01*
X157072863Y-93901176D01*
X156977319Y-93940751D01*
X156891332Y-93998206D01*
X156818206Y-94071332D01*
X156760751Y-94157319D01*
X156721176Y-94252863D01*
X156701000Y-94354292D01*
X156481000Y-94354292D01*
X156481000Y-94354288D01*
X156460824Y-94252859D01*
X156421249Y-94157315D01*
X156363794Y-94071328D01*
X156290668Y-93998202D01*
X156204681Y-93940747D01*
X156109137Y-93901172D01*
X156007708Y-93880996D01*
X155904292Y-93880996D01*
X155802863Y-93901172D01*
X155707319Y-93940747D01*
X155621332Y-93998202D01*
X155548206Y-94071328D01*
X155490751Y-94157315D01*
X155451176Y-94252859D01*
X155431000Y-94354288D01*
X155210998Y-94354288D01*
X155190824Y-94252871D01*
X155151249Y-94157327D01*
X155093794Y-94071340D01*
X155020668Y-93998214D01*
X154934681Y-93940759D01*
X154839137Y-93901184D01*
X154737708Y-93881008D01*
X154634292Y-93881008D01*
X154532863Y-93901184D01*
X154437319Y-93940759D01*
X154351332Y-93998214D01*
X154278206Y-94071340D01*
X154220751Y-94157327D01*
X154181176Y-94252871D01*
X154161000Y-94354300D01*
X153941000Y-94354300D01*
X153941000Y-94309292D01*
X153920824Y-94207863D01*
X153881249Y-94112319D01*
X153823794Y-94026332D01*
X153750668Y-93953206D01*
X153664681Y-93895751D01*
X153569137Y-93856176D01*
X153467708Y-93836000D01*
X153364292Y-93836000D01*
X153262863Y-93856176D01*
X153167319Y-93895751D01*
X153081332Y-93953206D01*
X153008206Y-94026332D01*
X152950751Y-94112319D01*
X152911176Y-94207863D01*
X152891000Y-94309292D01*
X152662049Y-94309292D01*
X152650824Y-94252863D01*
X152611249Y-94157319D01*
X152553794Y-94071332D01*
X152480668Y-93998206D01*
X152394681Y-93940751D01*
X152299137Y-93901176D01*
X152197708Y-93881000D01*
X152094292Y-93881000D01*
X151992863Y-93901176D01*
X151897319Y-93940751D01*
X151811332Y-93998206D01*
X151738206Y-94071332D01*
X151680751Y-94157319D01*
X151641176Y-94252863D01*
X151621000Y-94354292D01*
X151401000Y-94354292D01*
X151380824Y-94252863D01*
X151341249Y-94157319D01*
X151283794Y-94071332D01*
X151210668Y-93998206D01*
X151124681Y-93940751D01*
X151029137Y-93901176D01*
X150927708Y-93881000D01*
X150824292Y-93881000D01*
X150722863Y-93901176D01*
X150627319Y-93940751D01*
X150541332Y-93998206D01*
X150468206Y-94071332D01*
X150410751Y-94157319D01*
X150371176Y-94252863D01*
X150351000Y-94354292D01*
X148861000Y-94354292D01*
X148840824Y-94252863D01*
X148801249Y-94157319D01*
X148743794Y-94071332D01*
X148670668Y-93998206D01*
X148584681Y-93940751D01*
X148489137Y-93901176D01*
X148387708Y-93881000D01*
X148284292Y-93881000D01*
X148182863Y-93901176D01*
X148087319Y-93940751D01*
X148001332Y-93998206D01*
X147928206Y-94071332D01*
X147870751Y-94157319D01*
X147831176Y-94252863D01*
X147811000Y-94354292D01*
X147591000Y-94354292D01*
X147591000Y-94354286D01*
X147570824Y-94252857D01*
X147531249Y-94157313D01*
X147473794Y-94071326D01*
X147400668Y-93998200D01*
X147314681Y-93940745D01*
X147219137Y-93901170D01*
X147117708Y-93880994D01*
X147014292Y-93880994D01*
X146912863Y-93901170D01*
X146817319Y-93940745D01*
X146731332Y-93998200D01*
X146658206Y-94071326D01*
X146600751Y-94157313D01*
X146561176Y-94252857D01*
X146541000Y-94354286D01*
X146321000Y-94354286D01*
X146321000Y-94354284D01*
X146300824Y-94252855D01*
X146261249Y-94157311D01*
X146203794Y-94071324D01*
X146130668Y-93998198D01*
X146044681Y-93940743D01*
X145949137Y-93901168D01*
X145847708Y-93880992D01*
X145744292Y-93880992D01*
X145642863Y-93901168D01*
X145547319Y-93940743D01*
X145461332Y-93998198D01*
X145388206Y-94071324D01*
X145330751Y-94157311D01*
X145291176Y-94252855D01*
X145271000Y-94354284D01*
X145050999Y-94354284D01*
X145030824Y-94252863D01*
X144991249Y-94157319D01*
X144933794Y-94071332D01*
X144860668Y-93998206D01*
X144774681Y-93940751D01*
X144679137Y-93901176D01*
X144577708Y-93881000D01*
X144474292Y-93881000D01*
X144372863Y-93901176D01*
X144277319Y-93940751D01*
X144191332Y-93998206D01*
X144118206Y-94071332D01*
X144060751Y-94157319D01*
X144021176Y-94252863D01*
X144001000Y-94354292D01*
X143780998Y-94354292D01*
X143760824Y-94252875D01*
X143721249Y-94157331D01*
X143663794Y-94071344D01*
X143590668Y-93998218D01*
X143504681Y-93940763D01*
X143409137Y-93901188D01*
X143307708Y-93881012D01*
X143204292Y-93881012D01*
X143102863Y-93901188D01*
X143007319Y-93940763D01*
X142921332Y-93998218D01*
X142848206Y-94071344D01*
X142790751Y-94157331D01*
X142751176Y-94252875D01*
X142731000Y-94354304D01*
X142511000Y-94354304D01*
X142511000Y-94354286D01*
X142490824Y-94252857D01*
X142451249Y-94157313D01*
X142393794Y-94071326D01*
X142320668Y-93998200D01*
X142234681Y-93940745D01*
X142139137Y-93901170D01*
X142037708Y-93880994D01*
X141934292Y-93880994D01*
X141832863Y-93901170D01*
X141737319Y-93940745D01*
X141651332Y-93998200D01*
X141578206Y-94071326D01*
X141520751Y-94157313D01*
X141481176Y-94252857D01*
X141461000Y-94354286D01*
X141241000Y-94354286D01*
X141220824Y-94252857D01*
X141181249Y-94157313D01*
X141123794Y-94071326D01*
X141050668Y-93998200D01*
X140964681Y-93940745D01*
X140869137Y-93901170D01*
X140767708Y-93880994D01*
X140664292Y-93880994D01*
X140562863Y-93901170D01*
X140467319Y-93940745D01*
X140381332Y-93998200D01*
X140308206Y-94071326D01*
X140250751Y-94157313D01*
X140211176Y-94252857D01*
X140191000Y-94354286D01*
X139971000Y-94354286D01*
X139971000Y-94354278D01*
X139950824Y-94252849D01*
X139911249Y-94157305D01*
X139853794Y-94071318D01*
X139780668Y-93998192D01*
X139694681Y-93940737D01*
X139599137Y-93901162D01*
X139497708Y-93880986D01*
X139394292Y-93880986D01*
X139292863Y-93901162D01*
X139197319Y-93940737D01*
X139111332Y-93998192D01*
X139038206Y-94071318D01*
X138980751Y-94157305D01*
X138941176Y-94252849D01*
X138921000Y-94354278D01*
X138700996Y-94354278D01*
X138680824Y-94252871D01*
X138641249Y-94157327D01*
X138583794Y-94071340D01*
X138510668Y-93998214D01*
X138424681Y-93940759D01*
X138329137Y-93901184D01*
X138227708Y-93881008D01*
X138124292Y-93881008D01*
X138022863Y-93901184D01*
X137927319Y-93940759D01*
X137841332Y-93998214D01*
X137768206Y-94071340D01*
X137710751Y-94157327D01*
X137671176Y-94252871D01*
X137651000Y-94354300D01*
X137431000Y-94354300D01*
X137431000Y-94354298D01*
X137410824Y-94252869D01*
X137371249Y-94157325D01*
X137313794Y-94071338D01*
X137240668Y-93998212D01*
X137154681Y-93940757D01*
X137059137Y-93901182D01*
X136957708Y-93881006D01*
X136854292Y-93881006D01*
X136752863Y-93901182D01*
X136657319Y-93940757D01*
X136571332Y-93998212D01*
X136498206Y-94071338D01*
X136440751Y-94157325D01*
X136401176Y-94252869D01*
X136381000Y-94354298D01*
X128312000Y-94354298D01*
X128312000Y-92574526D01*
X128421672Y-92839297D01*
X128728098Y-93297896D01*
X129118104Y-93687902D01*
X129576703Y-93994328D01*
X130086270Y-94205398D01*
X130627224Y-94313000D01*
X131178776Y-94313000D01*
X131719730Y-94205398D01*
X132229297Y-93994328D01*
X132687896Y-93687902D01*
X133077902Y-93297896D01*
X133384328Y-92839297D01*
X133595398Y-92329730D01*
X133703000Y-91788776D01*
X133703000Y-91237224D01*
X133595398Y-90696270D01*
X133495164Y-90454282D01*
X136381000Y-90454282D01*
X136381000Y-90557698D01*
X136401176Y-90659127D01*
X136440751Y-90754671D01*
X136498206Y-90840658D01*
X136571332Y-90913784D01*
X136657319Y-90971239D01*
X136752863Y-91010814D01*
X136854292Y-91030990D01*
X136957708Y-91030990D01*
X137059137Y-91010814D01*
X137154681Y-90971239D01*
X137240668Y-90913784D01*
X137313794Y-90840658D01*
X137371249Y-90754671D01*
X137410824Y-90659127D01*
X137431000Y-90557698D01*
X137431000Y-90454284D01*
X137651000Y-90454284D01*
X137651000Y-90557700D01*
X137671176Y-90659129D01*
X137710751Y-90754673D01*
X137768206Y-90840660D01*
X137841332Y-90913786D01*
X137927319Y-90971241D01*
X138022863Y-91010816D01*
X138124292Y-91030992D01*
X138227708Y-91030992D01*
X138329137Y-91010816D01*
X138424681Y-90971241D01*
X138510668Y-90913786D01*
X138583794Y-90840660D01*
X138641249Y-90754673D01*
X138680824Y-90659129D01*
X138701000Y-90557700D01*
X138701000Y-90454300D01*
X138921000Y-90454300D01*
X138921000Y-90557716D01*
X138941176Y-90659145D01*
X138980751Y-90754689D01*
X139038206Y-90840676D01*
X139111332Y-90913802D01*
X139197319Y-90971257D01*
X139292863Y-91010832D01*
X139394292Y-91031008D01*
X139497708Y-91031008D01*
X139599137Y-91010832D01*
X139694681Y-90971257D01*
X139780668Y-90913802D01*
X139853794Y-90840676D01*
X139911249Y-90754689D01*
X139950824Y-90659145D01*
X139971000Y-90557716D01*
X139971000Y-90454300D01*
X141461000Y-90454300D01*
X141461000Y-90557716D01*
X141481176Y-90659145D01*
X141520751Y-90754689D01*
X141578206Y-90840676D01*
X141651332Y-90913802D01*
X141737319Y-90971257D01*
X141832863Y-91010832D01*
X141934292Y-91031008D01*
X142037708Y-91031008D01*
X142139137Y-91010832D01*
X142234681Y-90971257D01*
X142320668Y-90913802D01*
X142393794Y-90840676D01*
X142451249Y-90754689D01*
X142490824Y-90659145D01*
X142511000Y-90557716D01*
X142511000Y-90454300D01*
X142511000Y-90454298D01*
X142731000Y-90454298D01*
X142731000Y-90557714D01*
X142751176Y-90659143D01*
X142790751Y-90754687D01*
X142848206Y-90840674D01*
X142921332Y-90913800D01*
X143007319Y-90971255D01*
X143102863Y-91010830D01*
X143204292Y-91031006D01*
X143307708Y-91031006D01*
X143409137Y-91010830D01*
X143504681Y-90971255D01*
X143590668Y-90913800D01*
X143663794Y-90840674D01*
X143721249Y-90754687D01*
X143760824Y-90659143D01*
X143781000Y-90557714D01*
X143781000Y-90454298D01*
X143781000Y-90454296D01*
X144001000Y-90454296D01*
X144001000Y-90557712D01*
X144021176Y-90659141D01*
X144060751Y-90754685D01*
X144118206Y-90840672D01*
X144191332Y-90913798D01*
X144277319Y-90971253D01*
X144372863Y-91010828D01*
X144474292Y-91031004D01*
X144577708Y-91031004D01*
X144679137Y-91010828D01*
X144774681Y-90971253D01*
X144860668Y-90913798D01*
X144933794Y-90840672D01*
X144991249Y-90754685D01*
X145030824Y-90659141D01*
X145051000Y-90557712D01*
X145051000Y-90454296D01*
X145050998Y-90454284D01*
X145271000Y-90454284D01*
X145271000Y-90557700D01*
X145291176Y-90659129D01*
X145330751Y-90754673D01*
X145388206Y-90840660D01*
X145461332Y-90913786D01*
X145547319Y-90971241D01*
X145642863Y-91010816D01*
X145744292Y-91030992D01*
X145847708Y-91030992D01*
X145949137Y-91010816D01*
X146044681Y-90971241D01*
X146130668Y-90913786D01*
X146203794Y-90840660D01*
X146261249Y-90754673D01*
X146300824Y-90659129D01*
X146321000Y-90557700D01*
X146321000Y-90454300D01*
X146541000Y-90454300D01*
X146541000Y-90557716D01*
X146561176Y-90659145D01*
X146600751Y-90754689D01*
X146658206Y-90840676D01*
X146731332Y-90913802D01*
X146817319Y-90971257D01*
X146912863Y-91010832D01*
X147014292Y-91031008D01*
X147117708Y-91031008D01*
X147219137Y-91010832D01*
X147314681Y-90971257D01*
X147400668Y-90913802D01*
X147473794Y-90840676D01*
X147531249Y-90754689D01*
X147570824Y-90659145D01*
X147591000Y-90557716D01*
X147591000Y-90454300D01*
X147591000Y-90454296D01*
X147811000Y-90454296D01*
X147811000Y-90557712D01*
X147831176Y-90659141D01*
X147870751Y-90754685D01*
X147928206Y-90840672D01*
X148001332Y-90913798D01*
X148087319Y-90971253D01*
X148182863Y-91010828D01*
X148284292Y-91031004D01*
X148387708Y-91031004D01*
X148489137Y-91010828D01*
X148584681Y-90971253D01*
X148670668Y-90913798D01*
X148743794Y-90840672D01*
X148801249Y-90754685D01*
X148840824Y-90659141D01*
X148861000Y-90557712D01*
X148861000Y-90454296D01*
X148861000Y-90454292D01*
X149081000Y-90454292D01*
X149081000Y-90557708D01*
X149101176Y-90659137D01*
X149140751Y-90754681D01*
X149198206Y-90840668D01*
X149271332Y-90913794D01*
X149357319Y-90971249D01*
X149452863Y-91010824D01*
X149554292Y-91031000D01*
X149657708Y-91031000D01*
X149759137Y-91010824D01*
X149854681Y-90971249D01*
X149940668Y-90913794D01*
X150013794Y-90840668D01*
X150071249Y-90754681D01*
X150110824Y-90659137D01*
X150131000Y-90557708D01*
X150131000Y-90454292D01*
X150351000Y-90454292D01*
X150351000Y-90557708D01*
X150371176Y-90659137D01*
X150410751Y-90754681D01*
X150468206Y-90840668D01*
X150541332Y-90913794D01*
X150627319Y-90971249D01*
X150722863Y-91010824D01*
X150824292Y-91031000D01*
X150927708Y-91031000D01*
X151029137Y-91010824D01*
X151124681Y-90971249D01*
X151210668Y-90913794D01*
X151283794Y-90840668D01*
X151341249Y-90754681D01*
X151380824Y-90659137D01*
X151401000Y-90557708D01*
X151401000Y-90454292D01*
X151621000Y-90454292D01*
X151621000Y-90557708D01*
X151641176Y-90659137D01*
X151680751Y-90754681D01*
X151738206Y-90840668D01*
X151811332Y-90913794D01*
X151897319Y-90971249D01*
X151992863Y-91010824D01*
X152094292Y-91031000D01*
X152197708Y-91031000D01*
X152299137Y-91010824D01*
X152394681Y-90971249D01*
X152480668Y-90913794D01*
X152553794Y-90840668D01*
X152611249Y-90754681D01*
X152650824Y-90659137D01*
X152671000Y-90557708D01*
X152671000Y-90454292D01*
X152670999Y-90454284D01*
X152891000Y-90454284D01*
X152891000Y-90557700D01*
X152911176Y-90659129D01*
X152950751Y-90754673D01*
X153008206Y-90840660D01*
X153081332Y-90913786D01*
X153167319Y-90971241D01*
X153262863Y-91010816D01*
X153364292Y-91030992D01*
X153467708Y-91030992D01*
X153569137Y-91010816D01*
X153664681Y-90971241D01*
X153750668Y-90913786D01*
X153823794Y-90840660D01*
X153881249Y-90754673D01*
X153920824Y-90659129D01*
X153941000Y-90557700D01*
X153941000Y-90454284D01*
X153940999Y-90454276D01*
X154161000Y-90454276D01*
X154161000Y-90557692D01*
X154181176Y-90659121D01*
X154220751Y-90754665D01*
X154278206Y-90840652D01*
X154351332Y-90913778D01*
X154437319Y-90971233D01*
X154532863Y-91010808D01*
X154634292Y-91030984D01*
X154737708Y-91030984D01*
X154839137Y-91010808D01*
X154934681Y-90971233D01*
X155020668Y-90913778D01*
X155093794Y-90840652D01*
X155151249Y-90754665D01*
X155190824Y-90659121D01*
X155211000Y-90557692D01*
X155211000Y-90454288D01*
X156701000Y-90454288D01*
X156701000Y-90557704D01*
X156721176Y-90659133D01*
X156760751Y-90754677D01*
X156818206Y-90840664D01*
X156891332Y-90913790D01*
X156977319Y-90971245D01*
X157072863Y-91010820D01*
X157174292Y-91030996D01*
X157277708Y-91030996D01*
X157379137Y-91010820D01*
X157474681Y-90971245D01*
X157560668Y-90913790D01*
X157633794Y-90840664D01*
X157691249Y-90754677D01*
X157730824Y-90659133D01*
X157751000Y-90557704D01*
X157751000Y-90454288D01*
X157751000Y-90454286D01*
X157971000Y-90454286D01*
X157971000Y-90557702D01*
X157991176Y-90659131D01*
X158030751Y-90754675D01*
X158088206Y-90840662D01*
X158161332Y-90913788D01*
X158247319Y-90971243D01*
X158342863Y-91010818D01*
X158444292Y-91030994D01*
X158547708Y-91030994D01*
X158649137Y-91010818D01*
X158744681Y-90971243D01*
X158830668Y-90913788D01*
X158903794Y-90840662D01*
X158961249Y-90754675D01*
X159000824Y-90659131D01*
X159021000Y-90557702D01*
X159021000Y-90454296D01*
X159241000Y-90454296D01*
X159241000Y-90557712D01*
X159261176Y-90659141D01*
X159300751Y-90754685D01*
X159358206Y-90840672D01*
X159431332Y-90913798D01*
X159517319Y-90971253D01*
X159612863Y-91010828D01*
X159714292Y-91031004D01*
X159817708Y-91031004D01*
X159919137Y-91010828D01*
X160014681Y-90971253D01*
X160100668Y-90913798D01*
X160173794Y-90840672D01*
X160231249Y-90754685D01*
X160270824Y-90659141D01*
X160291000Y-90557712D01*
X160291000Y-90454322D01*
X160511000Y-90454322D01*
X160511000Y-90557738D01*
X160531176Y-90659167D01*
X160570751Y-90754711D01*
X160628206Y-90840698D01*
X160701332Y-90913824D01*
X160787319Y-90971279D01*
X160882863Y-91010854D01*
X160984292Y-91031030D01*
X161087708Y-91031030D01*
X161189137Y-91010854D01*
X161284681Y-90971279D01*
X161370668Y-90913824D01*
X161443794Y-90840698D01*
X161501249Y-90754711D01*
X161540824Y-90659167D01*
X161561000Y-90557738D01*
X161561000Y-90454322D01*
X161540824Y-90352893D01*
X161501249Y-90257349D01*
X161443794Y-90171362D01*
X161370668Y-90098236D01*
X161284681Y-90040781D01*
X161189137Y-90001206D01*
X161087708Y-89981030D01*
X160984292Y-89981030D01*
X160882863Y-90001206D01*
X160787319Y-90040781D01*
X160701332Y-90098236D01*
X160628206Y-90171362D01*
X160570751Y-90257349D01*
X160531176Y-90352893D01*
X160511000Y-90454322D01*
X160291000Y-90454322D01*
X160291000Y-90454296D01*
X160270824Y-90352867D01*
X160231249Y-90257323D01*
X160173794Y-90171336D01*
X160100668Y-90098210D01*
X160014681Y-90040755D01*
X159919137Y-90001180D01*
X159817708Y-89981004D01*
X159714292Y-89981004D01*
X159612863Y-90001180D01*
X159517319Y-90040755D01*
X159431332Y-90098210D01*
X159358206Y-90171336D01*
X159300751Y-90257323D01*
X159261176Y-90352867D01*
X159241000Y-90454296D01*
X159021000Y-90454296D01*
X159021000Y-90454286D01*
X159000824Y-90352857D01*
X158961249Y-90257313D01*
X158903794Y-90171326D01*
X158830668Y-90098200D01*
X158744681Y-90040745D01*
X158649137Y-90001170D01*
X158547708Y-89980994D01*
X158444292Y-89980994D01*
X158342863Y-90001170D01*
X158247319Y-90040745D01*
X158161332Y-90098200D01*
X158088206Y-90171326D01*
X158030751Y-90257313D01*
X157991176Y-90352857D01*
X157971000Y-90454286D01*
X157751000Y-90454286D01*
X157730824Y-90352859D01*
X157691249Y-90257315D01*
X157633794Y-90171328D01*
X157560668Y-90098202D01*
X157474681Y-90040747D01*
X157379137Y-90001172D01*
X157277708Y-89980996D01*
X157174292Y-89980996D01*
X157072863Y-90001172D01*
X156977319Y-90040747D01*
X156891332Y-90098202D01*
X156818206Y-90171328D01*
X156760751Y-90257315D01*
X156721176Y-90352859D01*
X156701000Y-90454288D01*
X155211000Y-90454288D01*
X155211000Y-90454276D01*
X155190824Y-90352847D01*
X155151249Y-90257303D01*
X155093794Y-90171316D01*
X155020668Y-90098190D01*
X154934681Y-90040735D01*
X154839137Y-90001160D01*
X154737708Y-89980984D01*
X154634292Y-89980984D01*
X154532863Y-90001160D01*
X154437319Y-90040735D01*
X154351332Y-90098190D01*
X154278206Y-90171316D01*
X154220751Y-90257303D01*
X154181176Y-90352847D01*
X154161000Y-90454276D01*
X153940999Y-90454276D01*
X153920824Y-90352855D01*
X153881249Y-90257311D01*
X153823794Y-90171324D01*
X153750668Y-90098198D01*
X153664681Y-90040743D01*
X153569137Y-90001168D01*
X153467708Y-89980992D01*
X153364292Y-89980992D01*
X153262863Y-90001168D01*
X153167319Y-90040743D01*
X153081332Y-90098198D01*
X153008206Y-90171324D01*
X152950751Y-90257311D01*
X152911176Y-90352855D01*
X152891000Y-90454284D01*
X152670999Y-90454284D01*
X152650824Y-90352863D01*
X152611249Y-90257319D01*
X152553794Y-90171332D01*
X152480668Y-90098206D01*
X152394681Y-90040751D01*
X152299137Y-90001176D01*
X152197708Y-89981000D01*
X152094292Y-89981000D01*
X151992863Y-90001176D01*
X151897319Y-90040751D01*
X151811332Y-90098206D01*
X151738206Y-90171332D01*
X151680751Y-90257319D01*
X151641176Y-90352863D01*
X151621000Y-90454292D01*
X151401000Y-90454292D01*
X151380824Y-90352863D01*
X151341249Y-90257319D01*
X151283794Y-90171332D01*
X151210668Y-90098206D01*
X151124681Y-90040751D01*
X151029137Y-90001176D01*
X150927708Y-89981000D01*
X150824292Y-89981000D01*
X150722863Y-90001176D01*
X150627319Y-90040751D01*
X150541332Y-90098206D01*
X150468206Y-90171332D01*
X150410751Y-90257319D01*
X150371176Y-90352863D01*
X150351000Y-90454292D01*
X150131000Y-90454292D01*
X150110824Y-90352863D01*
X150071249Y-90257319D01*
X150013794Y-90171332D01*
X149940668Y-90098206D01*
X149854681Y-90040751D01*
X149759137Y-90001176D01*
X149657708Y-89981000D01*
X149554292Y-89981000D01*
X149452863Y-90001176D01*
X149357319Y-90040751D01*
X149271332Y-90098206D01*
X149198206Y-90171332D01*
X149140751Y-90257319D01*
X149101176Y-90352863D01*
X149081000Y-90454292D01*
X148861000Y-90454292D01*
X148840824Y-90352867D01*
X148801249Y-90257323D01*
X148743794Y-90171336D01*
X148670668Y-90098210D01*
X148584681Y-90040755D01*
X148489137Y-90001180D01*
X148387708Y-89981004D01*
X148284292Y-89981004D01*
X148182863Y-90001180D01*
X148087319Y-90040755D01*
X148001332Y-90098210D01*
X147928206Y-90171336D01*
X147870751Y-90257323D01*
X147831176Y-90352867D01*
X147811000Y-90454296D01*
X147591000Y-90454296D01*
X147570824Y-90352871D01*
X147531249Y-90257327D01*
X147473794Y-90171340D01*
X147400668Y-90098214D01*
X147314681Y-90040759D01*
X147219137Y-90001184D01*
X147117708Y-89981008D01*
X147014292Y-89981008D01*
X146912863Y-90001184D01*
X146817319Y-90040759D01*
X146731332Y-90098214D01*
X146658206Y-90171340D01*
X146600751Y-90257327D01*
X146561176Y-90352871D01*
X146541000Y-90454300D01*
X146321000Y-90454300D01*
X146321000Y-90454284D01*
X146300824Y-90352855D01*
X146261249Y-90257311D01*
X146203794Y-90171324D01*
X146130668Y-90098198D01*
X146044681Y-90040743D01*
X145949137Y-90001168D01*
X145847708Y-89980992D01*
X145744292Y-89980992D01*
X145642863Y-90001168D01*
X145547319Y-90040743D01*
X145461332Y-90098198D01*
X145388206Y-90171324D01*
X145330751Y-90257311D01*
X145291176Y-90352855D01*
X145271000Y-90454284D01*
X145050998Y-90454284D01*
X145030824Y-90352867D01*
X144991249Y-90257323D01*
X144933794Y-90171336D01*
X144860668Y-90098210D01*
X144774681Y-90040755D01*
X144679137Y-90001180D01*
X144577708Y-89981004D01*
X144474292Y-89981004D01*
X144372863Y-90001180D01*
X144277319Y-90040755D01*
X144191332Y-90098210D01*
X144118206Y-90171336D01*
X144060751Y-90257323D01*
X144021176Y-90352867D01*
X144001000Y-90454296D01*
X143781000Y-90454296D01*
X143760824Y-90352869D01*
X143721249Y-90257325D01*
X143663794Y-90171338D01*
X143590668Y-90098212D01*
X143504681Y-90040757D01*
X143409137Y-90001182D01*
X143307708Y-89981006D01*
X143204292Y-89981006D01*
X143102863Y-90001182D01*
X143007319Y-90040757D01*
X142921332Y-90098212D01*
X142848206Y-90171338D01*
X142790751Y-90257325D01*
X142751176Y-90352869D01*
X142731000Y-90454298D01*
X142511000Y-90454298D01*
X142490824Y-90352871D01*
X142451249Y-90257327D01*
X142393794Y-90171340D01*
X142320668Y-90098214D01*
X142234681Y-90040759D01*
X142139137Y-90001184D01*
X142037708Y-89981008D01*
X141934292Y-89981008D01*
X141832863Y-90001184D01*
X141737319Y-90040759D01*
X141651332Y-90098214D01*
X141578206Y-90171340D01*
X141520751Y-90257327D01*
X141481176Y-90352871D01*
X141461000Y-90454300D01*
X139971000Y-90454300D01*
X139950824Y-90352871D01*
X139911249Y-90257327D01*
X139853794Y-90171340D01*
X139780668Y-90098214D01*
X139694681Y-90040759D01*
X139599137Y-90001184D01*
X139497708Y-89981008D01*
X139394292Y-89981008D01*
X139292863Y-90001184D01*
X139197319Y-90040759D01*
X139111332Y-90098214D01*
X139038206Y-90171340D01*
X138980751Y-90257327D01*
X138941176Y-90352871D01*
X138921000Y-90454300D01*
X138701000Y-90454300D01*
X138701000Y-90454284D01*
X138680824Y-90352855D01*
X138641249Y-90257311D01*
X138583794Y-90171324D01*
X138510668Y-90098198D01*
X138424681Y-90040743D01*
X138329137Y-90001168D01*
X138227708Y-89980992D01*
X138124292Y-89980992D01*
X138022863Y-90001168D01*
X137927319Y-90040743D01*
X137841332Y-90098198D01*
X137768206Y-90171324D01*
X137710751Y-90257311D01*
X137671176Y-90352855D01*
X137651000Y-90454284D01*
X137431000Y-90454284D01*
X137431000Y-90454282D01*
X137410824Y-90352853D01*
X137371249Y-90257309D01*
X137313794Y-90171322D01*
X137240668Y-90098196D01*
X137154681Y-90040741D01*
X137059137Y-90001166D01*
X136957708Y-89980990D01*
X136854292Y-89980990D01*
X136752863Y-90001166D01*
X136657319Y-90040741D01*
X136571332Y-90098196D01*
X136498206Y-90171322D01*
X136440751Y-90257309D01*
X136401176Y-90352853D01*
X136381000Y-90454282D01*
X133495164Y-90454282D01*
X133384328Y-90186703D01*
X133077902Y-89728104D01*
X132687896Y-89338098D01*
X132229297Y-89031672D01*
X131828859Y-88865805D01*
X165979155Y-88865799D01*
X165578703Y-89031672D01*
G37*
X165578703Y-89031672D02*
X165120104Y-89338098D01*
X164730098Y-89728104D01*
X164423672Y-90186703D01*
X164212602Y-90696270D01*
X164105000Y-91237224D01*
X164105000Y-91788776D01*
X164212602Y-92329730D01*
X164423672Y-92839297D01*
X164730098Y-93297896D01*
X165120104Y-93687902D01*
X165578703Y-93994328D01*
X166088270Y-94205398D01*
X166629224Y-94313000D01*
X167180776Y-94313000D01*
X167721730Y-94205398D01*
X168231297Y-93994328D01*
X168689896Y-93687902D01*
X169079902Y-93297896D01*
X169386328Y-92839297D01*
X169562000Y-92415188D01*
X169562001Y-126605814D01*
X169386328Y-126181703D01*
X169079902Y-125723104D01*
X168689896Y-125333098D01*
X168231297Y-125026672D01*
X167721730Y-124815602D01*
X167180776Y-124708000D01*
X166629224Y-124708000D01*
X166088270Y-124815602D01*
X165578703Y-125026672D01*
X165120104Y-125333098D01*
X164730098Y-125723104D01*
X164423672Y-126181703D01*
X164212602Y-126691270D01*
X164105000Y-127232224D01*
X164105000Y-127783776D01*
X164212602Y-128324730D01*
X164423672Y-128834297D01*
X164730098Y-129292896D01*
X165120104Y-129682902D01*
X165578703Y-129989328D01*
X165884033Y-130115800D01*
X165255292Y-130115800D01*
X165217092Y-129992394D01*
X165203920Y-129961059D01*
X165191189Y-129929549D01*
X165188731Y-129924925D01*
X165095907Y-129753249D01*
X165076900Y-129725070D01*
X165058289Y-129696630D01*
X165054980Y-129692572D01*
X164930576Y-129542194D01*
X164906430Y-129518216D01*
X164882679Y-129493963D01*
X164878645Y-129490625D01*
X164727403Y-129367275D01*
X164699090Y-129348464D01*
X164671050Y-129329264D01*
X164666444Y-129326774D01*
X164494121Y-129235148D01*
X164462686Y-129222192D01*
X164431459Y-129208808D01*
X164426457Y-129207259D01*
X164239621Y-129150850D01*
X164206273Y-129144247D01*
X164173035Y-129137182D01*
X164167827Y-129136635D01*
X163973594Y-129117590D01*
X163973593Y-129117590D01*
X163955418Y-129115800D01*
X133916836Y-129115803D01*
X133900620Y-129117400D01*
X133896031Y-129117368D01*
X133890820Y-129117878D01*
X133696723Y-129138279D01*
X133663359Y-129145128D01*
X133630045Y-129151483D01*
X133625036Y-129152995D01*
X133625030Y-129152996D01*
X133625024Y-129152998D01*
X133438594Y-129210708D01*
X133407259Y-129223880D01*
X133375749Y-129236611D01*
X133371125Y-129239069D01*
X133199449Y-129331893D01*
X133171270Y-129350900D01*
X133142830Y-129369511D01*
X133138772Y-129372820D01*
X132988394Y-129497224D01*
X132964416Y-129521370D01*
X132940163Y-129545121D01*
X132936825Y-129549155D01*
X132813475Y-129700397D01*
X132794664Y-129728710D01*
X132775464Y-129756750D01*
X132772974Y-129761356D01*
X132681348Y-129933679D01*
X132668392Y-129965114D01*
X132655008Y-129996341D01*
X132653459Y-130001343D01*
X132618902Y-130115800D01*
X132561000Y-130115800D01*
X132561000Y-129767691D01*
X132687896Y-129682902D01*
X133077902Y-129292896D01*
X133384328Y-128834297D01*
X133595398Y-128324730D01*
X133703000Y-127783776D01*
X133703000Y-127232224D01*
X133669618Y-127064400D01*
X137659549Y-127064400D01*
X137659549Y-128764400D01*
X137665341Y-128823210D01*
X137682496Y-128879760D01*
X137710353Y-128931877D01*
X137747842Y-128977558D01*
X137793523Y-129015047D01*
X137845640Y-129042904D01*
X137902190Y-129060059D01*
X137961000Y-129065851D01*
X139661000Y-129065851D01*
X139719810Y-129060059D01*
X139776360Y-129042904D01*
X139828477Y-129015047D01*
X139874158Y-128977558D01*
X139911647Y-128931877D01*
X139939504Y-128879760D01*
X139956659Y-128823210D01*
X139962451Y-128764400D01*
X139962451Y-127801135D01*
X140201000Y-127801135D01*
X140201000Y-128027665D01*
X140245194Y-128249843D01*
X140331884Y-128459129D01*
X140457737Y-128647482D01*
X140617918Y-128807663D01*
X140806271Y-128933516D01*
X141015557Y-129020206D01*
X141237735Y-129064400D01*
X141464265Y-129064400D01*
X141686443Y-129020206D01*
X141895729Y-128933516D01*
X142084082Y-128807663D01*
X142244263Y-128647482D01*
X142370116Y-128459129D01*
X142456806Y-128249843D01*
X142501000Y-128027665D01*
X142501000Y-127801135D01*
X142741000Y-127801135D01*
X142741000Y-128027665D01*
X142785194Y-128249843D01*
X142871884Y-128459129D01*
X142997737Y-128647482D01*
X143157918Y-128807663D01*
X143346271Y-128933516D01*
X143555557Y-129020206D01*
X143777735Y-129064400D01*
X144004265Y-129064400D01*
X144226443Y-129020206D01*
X144435729Y-128933516D01*
X144624082Y-128807663D01*
X144784263Y-128647482D01*
X144910116Y-128459129D01*
X144996806Y-128249843D01*
X145041000Y-128027665D01*
X145041000Y-127801135D01*
X145281000Y-127801135D01*
X145281000Y-128027665D01*
X145325194Y-128249843D01*
X145411884Y-128459129D01*
X145537737Y-128647482D01*
X145697918Y-128807663D01*
X145886271Y-128933516D01*
X146095557Y-129020206D01*
X146317735Y-129064400D01*
X146544265Y-129064400D01*
X146766443Y-129020206D01*
X146975729Y-128933516D01*
X147164082Y-128807663D01*
X147324263Y-128647482D01*
X147450116Y-128459129D01*
X147536806Y-128249843D01*
X147581000Y-128027665D01*
X147581000Y-127801135D01*
X147821000Y-127801135D01*
X147821000Y-128027665D01*
X147865194Y-128249843D01*
X147951884Y-128459129D01*
X148077737Y-128647482D01*
X148237918Y-128807663D01*
X148426271Y-128933516D01*
X148635557Y-129020206D01*
X148857735Y-129064400D01*
X149084265Y-129064400D01*
X149306443Y-129020206D01*
X149515729Y-128933516D01*
X149704082Y-128807663D01*
X149864263Y-128647482D01*
X149990116Y-128459129D01*
X150076806Y-128249843D01*
X150121000Y-128027665D01*
X150121000Y-127801135D01*
X150361000Y-127801135D01*
X150361000Y-128027665D01*
X150405194Y-128249843D01*
X150491884Y-128459129D01*
X150617737Y-128647482D01*
X150777918Y-128807663D01*
X150966271Y-128933516D01*
X151175557Y-129020206D01*
X151397735Y-129064400D01*
X151624265Y-129064400D01*
X151846443Y-129020206D01*
X152055729Y-128933516D01*
X152244082Y-128807663D01*
X152404263Y-128647482D01*
X152530116Y-128459129D01*
X152616806Y-128249843D01*
X152661000Y-128027665D01*
X152661000Y-127801135D01*
X152901000Y-127801135D01*
X152901000Y-128027665D01*
X152945194Y-128249843D01*
X153031884Y-128459129D01*
X153157737Y-128647482D01*
X153317918Y-128807663D01*
X153506271Y-128933516D01*
X153715557Y-129020206D01*
X153937735Y-129064400D01*
X154164265Y-129064400D01*
X154386443Y-129020206D01*
X154595729Y-128933516D01*
X154784082Y-128807663D01*
X154944263Y-128647482D01*
X155070116Y-128459129D01*
X155156806Y-128249843D01*
X155201000Y-128027665D01*
X155201000Y-127801135D01*
X155441000Y-127801135D01*
X155441000Y-128027665D01*
X155485194Y-128249843D01*
X155571884Y-128459129D01*
X155697737Y-128647482D01*
X155857918Y-128807663D01*
X156046271Y-128933516D01*
X156255557Y-129020206D01*
X156477735Y-129064400D01*
X156704265Y-129064400D01*
X156926443Y-129020206D01*
X157135729Y-128933516D01*
X157324082Y-128807663D01*
X157484263Y-128647482D01*
X157610116Y-128459129D01*
X157696806Y-128249843D01*
X157721286Y-128126773D01*
X157949941Y-128126773D01*
X158014067Y-128353105D01*
X158121116Y-128562578D01*
X158266974Y-128747142D01*
X158446036Y-128899704D01*
X158651421Y-129014402D01*
X158875236Y-129086827D01*
X158918627Y-129095458D01*
X159106000Y-129026619D01*
X159106000Y-127939400D01*
X159156000Y-127939400D01*
X159156000Y-129026619D01*
X159343373Y-129095458D01*
X159386764Y-129086827D01*
X159610579Y-129014402D01*
X159815964Y-128899704D01*
X159995026Y-128747142D01*
X160140884Y-128562578D01*
X160247933Y-128353105D01*
X160312059Y-128126773D01*
X160243241Y-127939400D01*
X159156000Y-127939400D01*
X159106000Y-127939400D01*
X158018759Y-127939400D01*
X157949941Y-128126773D01*
X157721286Y-128126773D01*
X157741000Y-128027665D01*
X157741000Y-127801135D01*
X157721287Y-127702027D01*
X157949941Y-127702027D01*
X158018759Y-127889400D01*
X159106000Y-127889400D01*
X159106000Y-126802181D01*
X159156000Y-126802181D01*
X159156000Y-127889400D01*
X160243241Y-127889400D01*
X160312059Y-127702027D01*
X160247933Y-127475695D01*
X160140884Y-127266222D01*
X159995026Y-127081658D01*
X159815964Y-126929096D01*
X159610579Y-126814398D01*
X159386764Y-126741973D01*
X159343373Y-126733342D01*
X159156000Y-126802181D01*
X159106000Y-126802181D01*
X158918627Y-126733342D01*
X158875236Y-126741973D01*
X158651421Y-126814398D01*
X158446036Y-126929096D01*
X158266974Y-127081658D01*
X158121116Y-127266222D01*
X158014067Y-127475695D01*
X157949941Y-127702027D01*
X157721287Y-127702027D01*
X157696806Y-127578957D01*
X157610116Y-127369671D01*
X157484263Y-127181318D01*
X157324082Y-127021137D01*
X157135729Y-126895284D01*
X156926443Y-126808594D01*
X156704265Y-126764400D01*
X156477735Y-126764400D01*
X156255557Y-126808594D01*
X156046271Y-126895284D01*
X155857918Y-127021137D01*
X155697737Y-127181318D01*
X155571884Y-127369671D01*
X155485194Y-127578957D01*
X155441000Y-127801135D01*
X155201000Y-127801135D01*
X155156806Y-127578957D01*
X155070116Y-127369671D01*
X154944263Y-127181318D01*
X154784082Y-127021137D01*
X154595729Y-126895284D01*
X154386443Y-126808594D01*
X154164265Y-126764400D01*
X153937735Y-126764400D01*
X153715557Y-126808594D01*
X153506271Y-126895284D01*
X153317918Y-127021137D01*
X153157737Y-127181318D01*
X153031884Y-127369671D01*
X152945194Y-127578957D01*
X152901000Y-127801135D01*
X152661000Y-127801135D01*
X152616806Y-127578957D01*
X152530116Y-127369671D01*
X152404263Y-127181318D01*
X152244082Y-127021137D01*
X152055729Y-126895284D01*
X151846443Y-126808594D01*
X151624265Y-126764400D01*
X151397735Y-126764400D01*
X151175557Y-126808594D01*
X150966271Y-126895284D01*
X150777918Y-127021137D01*
X150617737Y-127181318D01*
X150491884Y-127369671D01*
X150405194Y-127578957D01*
X150361000Y-127801135D01*
X150121000Y-127801135D01*
X150076806Y-127578957D01*
X149990116Y-127369671D01*
X149864263Y-127181318D01*
X149704082Y-127021137D01*
X149515729Y-126895284D01*
X149306443Y-126808594D01*
X149084265Y-126764400D01*
X148857735Y-126764400D01*
X148635557Y-126808594D01*
X148426271Y-126895284D01*
X148237918Y-127021137D01*
X148077737Y-127181318D01*
X147951884Y-127369671D01*
X147865194Y-127578957D01*
X147821000Y-127801135D01*
X147581000Y-127801135D01*
X147536806Y-127578957D01*
X147450116Y-127369671D01*
X147324263Y-127181318D01*
X147164082Y-127021137D01*
X146975729Y-126895284D01*
X146766443Y-126808594D01*
X146544265Y-126764400D01*
X146317735Y-126764400D01*
X146095557Y-126808594D01*
X145886271Y-126895284D01*
X145697918Y-127021137D01*
X145537737Y-127181318D01*
X145411884Y-127369671D01*
X145325194Y-127578957D01*
X145281000Y-127801135D01*
X145041000Y-127801135D01*
X144996806Y-127578957D01*
X144910116Y-127369671D01*
X144784263Y-127181318D01*
X144624082Y-127021137D01*
X144435729Y-126895284D01*
X144226443Y-126808594D01*
X144004265Y-126764400D01*
X143777735Y-126764400D01*
X143555557Y-126808594D01*
X143346271Y-126895284D01*
X143157918Y-127021137D01*
X142997737Y-127181318D01*
X142871884Y-127369671D01*
X142785194Y-127578957D01*
X142741000Y-127801135D01*
X142501000Y-127801135D01*
X142456806Y-127578957D01*
X142370116Y-127369671D01*
X142244263Y-127181318D01*
X142084082Y-127021137D01*
X141895729Y-126895284D01*
X141686443Y-126808594D01*
X141464265Y-126764400D01*
X141237735Y-126764400D01*
X141015557Y-126808594D01*
X140806271Y-126895284D01*
X140617918Y-127021137D01*
X140457737Y-127181318D01*
X140331884Y-127369671D01*
X140245194Y-127578957D01*
X140201000Y-127801135D01*
X139962451Y-127801135D01*
X139962451Y-127064400D01*
X139956659Y-127005590D01*
X139939504Y-126949040D01*
X139911647Y-126896923D01*
X139874158Y-126851242D01*
X139828477Y-126813753D01*
X139776360Y-126785896D01*
X139719810Y-126768741D01*
X139661000Y-126762949D01*
X137961000Y-126762949D01*
X137902190Y-126768741D01*
X137845640Y-126785896D01*
X137793523Y-126813753D01*
X137747842Y-126851242D01*
X137710353Y-126896923D01*
X137682496Y-126949040D01*
X137665341Y-127005590D01*
X137659549Y-127064400D01*
X133669618Y-127064400D01*
X133595398Y-126691270D01*
X133384328Y-126181703D01*
X133077902Y-125723104D01*
X132779090Y-125424292D01*
X154796000Y-125424292D01*
X154796000Y-125527708D01*
X154816176Y-125629137D01*
X154855751Y-125724681D01*
X154913206Y-125810668D01*
X154986332Y-125883794D01*
X155072319Y-125941249D01*
X155167863Y-125980824D01*
X155269292Y-126001000D01*
X155372708Y-126001000D01*
X155474137Y-125980824D01*
X155569681Y-125941249D01*
X155655668Y-125883794D01*
X155728794Y-125810668D01*
X155786249Y-125724681D01*
X155825824Y-125629137D01*
X155846000Y-125527708D01*
X155846000Y-125449692D01*
X156320000Y-125449692D01*
X156320000Y-125553108D01*
X156340176Y-125654537D01*
X156379751Y-125750081D01*
X156437206Y-125836068D01*
X156510332Y-125909194D01*
X156596319Y-125966649D01*
X156691863Y-126006224D01*
X156793292Y-126026400D01*
X156896708Y-126026400D01*
X156998137Y-126006224D01*
X157093681Y-125966649D01*
X157179668Y-125909194D01*
X157252794Y-125836068D01*
X157310249Y-125750081D01*
X157349824Y-125654537D01*
X157370000Y-125553108D01*
X157370000Y-125449692D01*
X157349824Y-125348263D01*
X157310249Y-125252719D01*
X157252794Y-125166732D01*
X157179668Y-125093606D01*
X157093681Y-125036151D01*
X156998137Y-124996576D01*
X156896708Y-124976400D01*
X156793292Y-124976400D01*
X156691863Y-124996576D01*
X156596319Y-125036151D01*
X156510332Y-125093606D01*
X156437206Y-125166732D01*
X156379751Y-125252719D01*
X156340176Y-125348263D01*
X156320000Y-125449692D01*
X155846000Y-125449692D01*
X155846000Y-125424292D01*
X155825824Y-125322863D01*
X155786249Y-125227319D01*
X155728794Y-125141332D01*
X155655668Y-125068206D01*
X155569681Y-125010751D01*
X155474137Y-124971176D01*
X155372708Y-124951000D01*
X155269292Y-124951000D01*
X155167863Y-124971176D01*
X155072319Y-125010751D01*
X154986332Y-125068206D01*
X154913206Y-125141332D01*
X154855751Y-125227319D01*
X154816176Y-125322863D01*
X154796000Y-125424292D01*
X132779090Y-125424292D01*
X132687896Y-125333098D01*
X132561000Y-125248309D01*
X132561000Y-120242693D01*
X140216401Y-120242693D01*
X140216401Y-120346109D01*
X140236577Y-120447538D01*
X140276152Y-120543082D01*
X140333607Y-120629069D01*
X140406733Y-120702195D01*
X140492720Y-120759650D01*
X140588264Y-120799225D01*
X140689693Y-120819401D01*
X140793109Y-120819401D01*
X140894538Y-120799225D01*
X140990082Y-120759650D01*
X141076069Y-120702195D01*
X141149195Y-120629069D01*
X141206650Y-120543082D01*
X141222299Y-120505301D01*
X147125200Y-120505301D01*
X147125200Y-120608717D01*
X147145376Y-120710146D01*
X147184951Y-120805690D01*
X147242406Y-120891677D01*
X147315532Y-120964803D01*
X147401519Y-121022258D01*
X147497063Y-121061833D01*
X147598492Y-121082009D01*
X147701908Y-121082009D01*
X147803337Y-121061833D01*
X147898881Y-121022258D01*
X147984868Y-120964803D01*
X148057994Y-120891677D01*
X148115449Y-120805690D01*
X148155024Y-120710146D01*
X148175200Y-120608717D01*
X148175200Y-120505301D01*
X148155024Y-120403872D01*
X148130346Y-120344292D01*
X148319000Y-120344292D01*
X148319000Y-120447708D01*
X148339176Y-120549137D01*
X148378751Y-120644681D01*
X148436206Y-120730668D01*
X148509332Y-120803794D01*
X148595319Y-120861249D01*
X148690863Y-120900824D01*
X148792292Y-120921000D01*
X148895708Y-120921000D01*
X148997137Y-120900824D01*
X149092681Y-120861249D01*
X149178668Y-120803794D01*
X149251794Y-120730668D01*
X149309249Y-120644681D01*
X149348824Y-120549137D01*
X149369000Y-120447708D01*
X149369000Y-120344292D01*
X152129000Y-120344292D01*
X152129000Y-120447708D01*
X152149176Y-120549137D01*
X152188751Y-120644681D01*
X152246206Y-120730668D01*
X152319332Y-120803794D01*
X152405319Y-120861249D01*
X152500863Y-120900824D01*
X152602292Y-120921000D01*
X152705708Y-120921000D01*
X152807137Y-120900824D01*
X152902681Y-120861249D01*
X152988668Y-120803794D01*
X153061794Y-120730668D01*
X153119249Y-120644681D01*
X153158824Y-120549137D01*
X153179000Y-120447708D01*
X153179000Y-120369692D01*
X156853400Y-120369692D01*
X156853400Y-120473108D01*
X156873576Y-120574537D01*
X156913151Y-120670081D01*
X156970606Y-120756068D01*
X157043732Y-120829194D01*
X157129719Y-120886649D01*
X157225263Y-120926224D01*
X157326692Y-120946400D01*
X157430108Y-120946400D01*
X157531537Y-120926224D01*
X157627081Y-120886649D01*
X157713068Y-120829194D01*
X157786194Y-120756068D01*
X157843649Y-120670081D01*
X157883224Y-120574537D01*
X157903400Y-120473108D01*
X157903400Y-120369692D01*
X157883224Y-120268263D01*
X157843649Y-120172719D01*
X157786194Y-120086732D01*
X157713068Y-120013606D01*
X157627081Y-119956151D01*
X157531537Y-119916576D01*
X157430108Y-119896400D01*
X157326692Y-119896400D01*
X157225263Y-119916576D01*
X157129719Y-119956151D01*
X157043732Y-120013606D01*
X156970606Y-120086732D01*
X156913151Y-120172719D01*
X156873576Y-120268263D01*
X156853400Y-120369692D01*
X153179000Y-120369692D01*
X153179000Y-120344292D01*
X153158824Y-120242863D01*
X153119249Y-120147319D01*
X153061794Y-120061332D01*
X152988668Y-119988206D01*
X152902681Y-119930751D01*
X152807137Y-119891176D01*
X152705708Y-119871000D01*
X152602292Y-119871000D01*
X152500863Y-119891176D01*
X152405319Y-119930751D01*
X152319332Y-119988206D01*
X152246206Y-120061332D01*
X152188751Y-120147319D01*
X152149176Y-120242863D01*
X152129000Y-120344292D01*
X149369000Y-120344292D01*
X149348824Y-120242863D01*
X149309249Y-120147319D01*
X149251794Y-120061332D01*
X149178668Y-119988206D01*
X149092681Y-119930751D01*
X148997137Y-119891176D01*
X148895708Y-119871000D01*
X148792292Y-119871000D01*
X148690863Y-119891176D01*
X148595319Y-119930751D01*
X148509332Y-119988206D01*
X148436206Y-120061332D01*
X148378751Y-120147319D01*
X148339176Y-120242863D01*
X148319000Y-120344292D01*
X148130346Y-120344292D01*
X148115449Y-120308328D01*
X148057994Y-120222341D01*
X147984868Y-120149215D01*
X147898881Y-120091760D01*
X147803337Y-120052185D01*
X147701908Y-120032009D01*
X147598492Y-120032009D01*
X147497063Y-120052185D01*
X147401519Y-120091760D01*
X147315532Y-120149215D01*
X147242406Y-120222341D01*
X147184951Y-120308328D01*
X147145376Y-120403872D01*
X147125200Y-120505301D01*
X141222299Y-120505301D01*
X141246225Y-120447538D01*
X141266401Y-120346109D01*
X141266401Y-120242693D01*
X141246225Y-120141264D01*
X141206650Y-120045720D01*
X141149195Y-119959733D01*
X141076069Y-119886607D01*
X140990082Y-119829152D01*
X140894538Y-119789577D01*
X140793109Y-119769401D01*
X140689693Y-119769401D01*
X140588264Y-119789577D01*
X140492720Y-119829152D01*
X140406733Y-119886607D01*
X140333607Y-119959733D01*
X140276152Y-120045720D01*
X140236577Y-120141264D01*
X140216401Y-120242693D01*
X132561000Y-120242693D01*
X132561000Y-119455292D01*
X134984000Y-119455292D01*
X134984000Y-119558708D01*
X135004176Y-119660137D01*
X135043751Y-119755681D01*
X135101206Y-119841668D01*
X135174332Y-119914794D01*
X135260319Y-119972249D01*
X135355863Y-120011824D01*
X135457292Y-120032000D01*
X135560708Y-120032000D01*
X135662137Y-120011824D01*
X135757681Y-119972249D01*
X135843668Y-119914794D01*
X135916794Y-119841668D01*
X135953500Y-119786734D01*
X135990206Y-119841668D01*
X136063332Y-119914794D01*
X136149319Y-119972249D01*
X136244863Y-120011824D01*
X136346292Y-120032000D01*
X136449708Y-120032000D01*
X136551137Y-120011824D01*
X136646681Y-119972249D01*
X136732668Y-119914794D01*
X136779000Y-119868462D01*
X136825332Y-119914794D01*
X136911319Y-119972249D01*
X137006863Y-120011824D01*
X137108292Y-120032000D01*
X137211708Y-120032000D01*
X137313137Y-120011824D01*
X137408681Y-119972249D01*
X137494668Y-119914794D01*
X137567794Y-119841668D01*
X137625249Y-119755681D01*
X137664824Y-119660137D01*
X137685000Y-119558708D01*
X137685000Y-119455292D01*
X137664824Y-119353863D01*
X137625249Y-119258319D01*
X137567794Y-119172332D01*
X137494668Y-119099206D01*
X137408681Y-119041751D01*
X137313137Y-119002176D01*
X137211708Y-118982000D01*
X137108292Y-118982000D01*
X137006863Y-119002176D01*
X136911319Y-119041751D01*
X136825332Y-119099206D01*
X136779000Y-119145538D01*
X136732668Y-119099206D01*
X136646681Y-119041751D01*
X136551137Y-119002176D01*
X136449708Y-118982000D01*
X136346292Y-118982000D01*
X136244863Y-119002176D01*
X136149319Y-119041751D01*
X136063332Y-119099206D01*
X135990206Y-119172332D01*
X135953500Y-119227266D01*
X135916794Y-119172332D01*
X135843668Y-119099206D01*
X135757681Y-119041751D01*
X135662137Y-119002176D01*
X135560708Y-118982000D01*
X135457292Y-118982000D01*
X135355863Y-119002176D01*
X135260319Y-119041751D01*
X135174332Y-119099206D01*
X135101206Y-119172332D01*
X135043751Y-119258319D01*
X135004176Y-119353863D01*
X134984000Y-119455292D01*
X132561000Y-119455292D01*
X132561000Y-117169292D01*
X142223000Y-117169292D01*
X142223000Y-117272708D01*
X142243176Y-117374137D01*
X142282751Y-117469681D01*
X142340206Y-117555668D01*
X142413332Y-117628794D01*
X142499319Y-117686249D01*
X142594863Y-117725824D01*
X142696292Y-117746000D01*
X142799708Y-117746000D01*
X142901137Y-117725824D01*
X142996681Y-117686249D01*
X143082668Y-117628794D01*
X143155794Y-117555668D01*
X143213249Y-117469681D01*
X143252824Y-117374137D01*
X143273000Y-117272708D01*
X143273000Y-117169292D01*
X143252824Y-117067863D01*
X143213249Y-116972319D01*
X143155794Y-116886332D01*
X143082668Y-116813206D01*
X142996681Y-116755751D01*
X142901137Y-116716176D01*
X142799708Y-116696000D01*
X142696292Y-116696000D01*
X142594863Y-116716176D01*
X142499319Y-116755751D01*
X142413332Y-116813206D01*
X142340206Y-116886332D01*
X142282751Y-116972319D01*
X142243176Y-117067863D01*
X142223000Y-117169292D01*
X132561000Y-117169292D01*
X132561000Y-115899292D01*
X142748000Y-115899292D01*
X142748000Y-116002708D01*
X142768176Y-116104137D01*
X142807751Y-116199681D01*
X142865206Y-116285668D01*
X142938332Y-116358794D01*
X143024319Y-116416249D01*
X143119863Y-116455824D01*
X143221292Y-116476000D01*
X143324708Y-116476000D01*
X143426137Y-116455824D01*
X143521681Y-116416249D01*
X143607668Y-116358794D01*
X143680794Y-116285668D01*
X143738249Y-116199681D01*
X143777824Y-116104137D01*
X143798000Y-116002708D01*
X143798000Y-115899292D01*
X143777824Y-115797863D01*
X143738249Y-115702319D01*
X143680794Y-115616332D01*
X143607668Y-115543206D01*
X143521681Y-115485751D01*
X143426137Y-115446176D01*
X143324708Y-115426000D01*
X143221292Y-115426000D01*
X143119863Y-115446176D01*
X143024319Y-115485751D01*
X142938332Y-115543206D01*
X142865206Y-115616332D01*
X142807751Y-115702319D01*
X142768176Y-115797863D01*
X142748000Y-115899292D01*
X132561000Y-115899292D01*
X132561000Y-108279292D01*
X151748000Y-108279292D01*
X151748000Y-108382708D01*
X151768176Y-108484137D01*
X151807751Y-108579681D01*
X151865206Y-108665668D01*
X151938332Y-108738794D01*
X152024319Y-108796249D01*
X152119863Y-108835824D01*
X152221292Y-108856000D01*
X152324708Y-108856000D01*
X152426137Y-108835824D01*
X152521681Y-108796249D01*
X152607668Y-108738794D01*
X152680794Y-108665668D01*
X152738249Y-108579681D01*
X152777824Y-108484137D01*
X152798000Y-108382708D01*
X152798000Y-108279292D01*
X152777824Y-108177863D01*
X152738249Y-108082319D01*
X152680794Y-107996332D01*
X152646254Y-107961792D01*
X154732500Y-107961792D01*
X154732500Y-108065208D01*
X154752676Y-108166637D01*
X154792251Y-108262181D01*
X154849706Y-108348168D01*
X154922832Y-108421294D01*
X155008819Y-108478749D01*
X155104363Y-108518324D01*
X155205792Y-108538500D01*
X155309208Y-108538500D01*
X155410637Y-108518324D01*
X155506181Y-108478749D01*
X155592168Y-108421294D01*
X155665294Y-108348168D01*
X155722749Y-108262181D01*
X155762324Y-108166637D01*
X155782500Y-108065208D01*
X155782500Y-107961792D01*
X155762324Y-107860363D01*
X155722749Y-107764819D01*
X155665294Y-107678832D01*
X155592168Y-107605706D01*
X155506181Y-107548251D01*
X155410637Y-107508676D01*
X155309208Y-107488500D01*
X155205792Y-107488500D01*
X155104363Y-107508676D01*
X155008819Y-107548251D01*
X154922832Y-107605706D01*
X154849706Y-107678832D01*
X154792251Y-107764819D01*
X154752676Y-107860363D01*
X154732500Y-107961792D01*
X152646254Y-107961792D01*
X152607668Y-107923206D01*
X152521681Y-107865751D01*
X152426137Y-107826176D01*
X152324708Y-107806000D01*
X152221292Y-107806000D01*
X152119863Y-107826176D01*
X152024319Y-107865751D01*
X151938332Y-107923206D01*
X151865206Y-107996332D01*
X151807751Y-108082319D01*
X151768176Y-108177863D01*
X151748000Y-108279292D01*
X132561000Y-108279292D01*
X132561000Y-107696000D01*
X132559079Y-107676491D01*
X132553388Y-107657732D01*
X132544147Y-107640443D01*
X132531711Y-107625289D01*
X132516557Y-107612853D01*
X132499268Y-107603612D01*
X132480509Y-107597921D01*
X132461000Y-107596000D01*
X128312000Y-107596000D01*
X128312000Y-107299313D01*
X137651000Y-107299313D01*
X137651000Y-107402729D01*
X137671176Y-107504158D01*
X137710751Y-107599702D01*
X137768206Y-107685689D01*
X137841332Y-107758815D01*
X137927319Y-107816270D01*
X138022863Y-107855845D01*
X138124292Y-107876021D01*
X138227708Y-107876021D01*
X138329137Y-107855845D01*
X138424681Y-107816270D01*
X138510668Y-107758815D01*
X138583794Y-107685689D01*
X138641249Y-107599702D01*
X138680824Y-107504158D01*
X138701000Y-107402729D01*
X138701000Y-107299313D01*
X138680824Y-107197884D01*
X138655313Y-107136292D01*
X140064000Y-107136292D01*
X140064000Y-107239708D01*
X140084176Y-107341137D01*
X140123751Y-107436681D01*
X140181206Y-107522668D01*
X140254332Y-107595794D01*
X140340319Y-107653249D01*
X140435863Y-107692824D01*
X140537292Y-107713000D01*
X140640708Y-107713000D01*
X140742137Y-107692824D01*
X140837681Y-107653249D01*
X140923668Y-107595794D01*
X140996794Y-107522668D01*
X141035802Y-107464288D01*
X141387000Y-107464288D01*
X141387000Y-107567704D01*
X141407176Y-107669133D01*
X141446751Y-107764677D01*
X141504206Y-107850664D01*
X141577332Y-107923790D01*
X141663319Y-107981245D01*
X141758863Y-108020820D01*
X141860292Y-108040996D01*
X141963708Y-108040996D01*
X142065137Y-108020820D01*
X142160681Y-107981245D01*
X142246668Y-107923790D01*
X142319794Y-107850664D01*
X142377249Y-107764677D01*
X142416824Y-107669133D01*
X142437000Y-107567704D01*
X142437000Y-107464288D01*
X142416824Y-107362859D01*
X142377249Y-107267315D01*
X142319794Y-107181328D01*
X142246668Y-107108202D01*
X142160681Y-107050747D01*
X142065137Y-107011172D01*
X141963708Y-106990996D01*
X141860292Y-106990996D01*
X141758863Y-107011172D01*
X141663319Y-107050747D01*
X141577332Y-107108202D01*
X141504206Y-107181328D01*
X141446751Y-107267315D01*
X141407176Y-107362859D01*
X141387000Y-107464288D01*
X141035802Y-107464288D01*
X141054249Y-107436681D01*
X141093824Y-107341137D01*
X141114000Y-107239708D01*
X141114000Y-107136292D01*
X141093824Y-107034863D01*
X141054249Y-106939319D01*
X140996794Y-106853332D01*
X140923668Y-106780206D01*
X140837681Y-106722751D01*
X140742137Y-106683176D01*
X140640708Y-106663000D01*
X140537292Y-106663000D01*
X140435863Y-106683176D01*
X140340319Y-106722751D01*
X140254332Y-106780206D01*
X140181206Y-106853332D01*
X140123751Y-106939319D01*
X140084176Y-107034863D01*
X140064000Y-107136292D01*
X138655313Y-107136292D01*
X138641249Y-107102340D01*
X138583794Y-107016353D01*
X138510668Y-106943227D01*
X138424681Y-106885772D01*
X138329137Y-106846197D01*
X138227708Y-106826021D01*
X138124292Y-106826021D01*
X138022863Y-106846197D01*
X137927319Y-106885772D01*
X137841332Y-106943227D01*
X137768206Y-107016353D01*
X137710751Y-107102340D01*
X137671176Y-107197884D01*
X137651000Y-107299313D01*
X128312000Y-107299313D01*
X128312000Y-106139104D01*
X129393639Y-106139104D01*
X129434037Y-106283684D01*
X129508263Y-106432948D01*
X129610183Y-106564863D01*
X129735880Y-106674360D01*
X129880523Y-106757230D01*
X130038554Y-106810290D01*
X130203900Y-106831500D01*
X130503900Y-106831500D01*
X130503900Y-106006500D01*
X130553900Y-106006500D01*
X130553900Y-106831500D01*
X130853900Y-106831500D01*
X131019246Y-106810290D01*
X131177277Y-106757230D01*
X131321920Y-106674360D01*
X131447617Y-106564863D01*
X131549537Y-106432948D01*
X131623763Y-106283684D01*
X131663043Y-106143104D01*
X133323639Y-106143104D01*
X133364037Y-106287684D01*
X133438263Y-106436948D01*
X133540183Y-106568863D01*
X133665880Y-106678360D01*
X133810523Y-106761230D01*
X133968554Y-106814290D01*
X134133900Y-106835500D01*
X134683900Y-106835500D01*
X134683900Y-106010500D01*
X134733900Y-106010500D01*
X134733900Y-106835500D01*
X135283900Y-106835500D01*
X135449246Y-106814290D01*
X135607277Y-106761230D01*
X135751920Y-106678360D01*
X135877617Y-106568863D01*
X135979537Y-106436948D01*
X136053763Y-106287684D01*
X136094161Y-106143104D01*
X136020990Y-106010500D01*
X134733900Y-106010500D01*
X134683900Y-106010500D01*
X133396810Y-106010500D01*
X133323639Y-106143104D01*
X131663043Y-106143104D01*
X131664161Y-106139104D01*
X131590990Y-106006500D01*
X130553900Y-106006500D01*
X130503900Y-106006500D01*
X129466810Y-106006500D01*
X129393639Y-106139104D01*
X128312000Y-106139104D01*
X128312000Y-105823896D01*
X129393639Y-105823896D01*
X129466810Y-105956500D01*
X130503900Y-105956500D01*
X130503900Y-105131500D01*
X130553900Y-105131500D01*
X130553900Y-105956500D01*
X131590990Y-105956500D01*
X131664161Y-105823896D01*
X131623763Y-105679316D01*
X131549537Y-105530052D01*
X131447617Y-105398137D01*
X131321920Y-105288640D01*
X131177277Y-105205770D01*
X131019246Y-105152710D01*
X130853900Y-105131500D01*
X130553900Y-105131500D01*
X130503900Y-105131500D01*
X130203900Y-105131500D01*
X130038554Y-105152710D01*
X129880523Y-105205770D01*
X129735880Y-105288640D01*
X129610183Y-105398137D01*
X129508263Y-105530052D01*
X129434037Y-105679316D01*
X129393639Y-105823896D01*
X128312000Y-105823896D01*
X128312000Y-104088292D01*
X132697998Y-104088292D01*
X132697998Y-104191708D01*
X132718174Y-104293137D01*
X132757749Y-104388681D01*
X132815204Y-104474668D01*
X132888330Y-104547794D01*
X132974317Y-104605249D01*
X133069861Y-104644824D01*
X133171290Y-104665000D01*
X133274706Y-104665000D01*
X133376135Y-104644824D01*
X133471679Y-104605249D01*
X133557666Y-104547794D01*
X133630792Y-104474668D01*
X133656722Y-104435861D01*
X133639400Y-104522943D01*
X133639400Y-104646057D01*
X133663419Y-104766806D01*
X133710532Y-104880548D01*
X133778931Y-104982914D01*
X133865986Y-105069969D01*
X133968352Y-105138368D01*
X134002211Y-105152393D01*
X133968554Y-105156710D01*
X133810523Y-105209770D01*
X133665880Y-105292640D01*
X133540183Y-105402137D01*
X133438263Y-105534052D01*
X133364037Y-105683316D01*
X133323639Y-105827896D01*
X133396810Y-105960500D01*
X134683900Y-105960500D01*
X134683900Y-105135500D01*
X134733900Y-105135500D01*
X134733900Y-105960500D01*
X136020990Y-105960500D01*
X136094161Y-105827896D01*
X136053763Y-105683316D01*
X135979537Y-105534052D01*
X135877617Y-105402137D01*
X135827286Y-105358292D01*
X138957021Y-105358292D01*
X138957021Y-105461708D01*
X138977197Y-105563137D01*
X139016772Y-105658681D01*
X139074227Y-105744668D01*
X139147353Y-105817794D01*
X139233340Y-105875249D01*
X139328884Y-105914824D01*
X139430313Y-105935000D01*
X139533729Y-105935000D01*
X139635158Y-105914824D01*
X139730702Y-105875249D01*
X139816689Y-105817794D01*
X139889815Y-105744668D01*
X139947270Y-105658681D01*
X139986845Y-105563137D01*
X139987171Y-105561496D01*
X142629400Y-105561496D01*
X142629400Y-105664912D01*
X142649576Y-105766341D01*
X142689151Y-105861885D01*
X142746606Y-105947872D01*
X142819732Y-106020998D01*
X142905719Y-106078453D01*
X143001263Y-106118028D01*
X143102692Y-106138204D01*
X143206108Y-106138204D01*
X143307537Y-106118028D01*
X143403081Y-106078453D01*
X143489068Y-106020998D01*
X143533775Y-105976291D01*
X144999999Y-105976291D01*
X144999999Y-106079707D01*
X145020175Y-106181136D01*
X145059750Y-106276680D01*
X145117205Y-106362667D01*
X145190331Y-106435793D01*
X145276318Y-106493248D01*
X145371862Y-106532823D01*
X145473291Y-106552999D01*
X145576707Y-106552999D01*
X145678136Y-106532823D01*
X145773680Y-106493248D01*
X145859667Y-106435793D01*
X145932793Y-106362667D01*
X145990248Y-106276680D01*
X146029823Y-106181136D01*
X146049999Y-106079707D01*
X146049999Y-105993292D01*
X146439400Y-105993292D01*
X146439400Y-106096708D01*
X146459576Y-106198137D01*
X146499151Y-106293681D01*
X146556606Y-106379668D01*
X146629732Y-106452794D01*
X146715719Y-106510249D01*
X146811263Y-106549824D01*
X146912692Y-106570000D01*
X147016108Y-106570000D01*
X147117537Y-106549824D01*
X147213081Y-106510249D01*
X147299068Y-106452794D01*
X147372194Y-106379668D01*
X147429649Y-106293681D01*
X147469224Y-106198137D01*
X147489400Y-106096708D01*
X147489400Y-105993292D01*
X147469224Y-105891863D01*
X147429649Y-105796319D01*
X147372194Y-105710332D01*
X147299068Y-105637206D01*
X147213081Y-105579751D01*
X147117537Y-105540176D01*
X147016108Y-105520000D01*
X146912692Y-105520000D01*
X146811263Y-105540176D01*
X146715719Y-105579751D01*
X146629732Y-105637206D01*
X146556606Y-105710332D01*
X146499151Y-105796319D01*
X146459576Y-105891863D01*
X146439400Y-105993292D01*
X146049999Y-105993292D01*
X146049999Y-105976291D01*
X146029823Y-105874862D01*
X145990248Y-105779318D01*
X145932793Y-105693331D01*
X145859667Y-105620205D01*
X145773680Y-105562750D01*
X145678136Y-105523175D01*
X145576707Y-105502999D01*
X145473291Y-105502999D01*
X145371862Y-105523175D01*
X145276318Y-105562750D01*
X145190331Y-105620205D01*
X145117205Y-105693331D01*
X145059750Y-105779318D01*
X145020175Y-105874862D01*
X144999999Y-105976291D01*
X143533775Y-105976291D01*
X143562194Y-105947872D01*
X143619649Y-105861885D01*
X143659224Y-105766341D01*
X143679400Y-105664912D01*
X143679400Y-105561496D01*
X143659224Y-105460067D01*
X143619649Y-105364523D01*
X143562194Y-105278536D01*
X143489068Y-105205410D01*
X143403081Y-105147955D01*
X143307537Y-105108380D01*
X143206108Y-105088204D01*
X143102692Y-105088204D01*
X143001263Y-105108380D01*
X142905719Y-105147955D01*
X142819732Y-105205410D01*
X142746606Y-105278536D01*
X142689151Y-105364523D01*
X142649576Y-105460067D01*
X142629400Y-105561496D01*
X139987171Y-105561496D01*
X140007021Y-105461708D01*
X140007021Y-105358292D01*
X139986845Y-105256863D01*
X139947270Y-105161319D01*
X139889815Y-105075332D01*
X139816689Y-105002206D01*
X139730702Y-104944751D01*
X139635158Y-104905176D01*
X139533729Y-104885000D01*
X139430313Y-104885000D01*
X139328884Y-104905176D01*
X139233340Y-104944751D01*
X139147353Y-105002206D01*
X139074227Y-105075332D01*
X139016772Y-105161319D01*
X138977197Y-105256863D01*
X138957021Y-105358292D01*
X135827286Y-105358292D01*
X135751920Y-105292640D01*
X135607277Y-105209770D01*
X135449246Y-105156710D01*
X135283900Y-105135500D01*
X134733900Y-105135500D01*
X134683900Y-105135500D01*
X134564740Y-105135500D01*
X134662814Y-105069969D01*
X134749869Y-104982914D01*
X134818268Y-104880548D01*
X134830800Y-104850292D01*
X149817600Y-104850292D01*
X149817600Y-104953708D01*
X149837776Y-105055137D01*
X149877351Y-105150681D01*
X149934806Y-105236668D01*
X150007932Y-105309794D01*
X150093919Y-105367249D01*
X150189463Y-105406824D01*
X150290892Y-105427000D01*
X150394308Y-105427000D01*
X150495737Y-105406824D01*
X150591281Y-105367249D01*
X150677268Y-105309794D01*
X150750394Y-105236668D01*
X150807849Y-105150681D01*
X150847424Y-105055137D01*
X150867600Y-104953708D01*
X150867600Y-104850292D01*
X150847424Y-104748863D01*
X150807849Y-104653319D01*
X150750394Y-104567332D01*
X150677268Y-104494206D01*
X150591281Y-104436751D01*
X150495737Y-104397176D01*
X150394308Y-104377000D01*
X150290892Y-104377000D01*
X150189463Y-104397176D01*
X150093919Y-104436751D01*
X150007932Y-104494206D01*
X149934806Y-104567332D01*
X149877351Y-104653319D01*
X149837776Y-104748863D01*
X149817600Y-104850292D01*
X134830800Y-104850292D01*
X134865381Y-104766806D01*
X134889400Y-104646057D01*
X134889400Y-104522943D01*
X134865381Y-104402194D01*
X134818268Y-104288452D01*
X134749869Y-104186086D01*
X134662814Y-104099031D01*
X134560448Y-104030632D01*
X134446706Y-103983519D01*
X134325957Y-103959500D01*
X134202843Y-103959500D01*
X134082094Y-103983519D01*
X133968352Y-104030632D01*
X133865986Y-104099031D01*
X133778931Y-104186086D01*
X133736478Y-104249621D01*
X133747998Y-104191708D01*
X133747998Y-104088292D01*
X133727822Y-103986863D01*
X133688247Y-103891319D01*
X133630792Y-103805332D01*
X133557666Y-103732206D01*
X133471679Y-103674751D01*
X133376135Y-103635176D01*
X133274706Y-103615000D01*
X133171290Y-103615000D01*
X133069861Y-103635176D01*
X132974317Y-103674751D01*
X132888330Y-103732206D01*
X132815204Y-103805332D01*
X132757749Y-103891319D01*
X132718174Y-103986863D01*
X132697998Y-104088292D01*
X128312000Y-104088292D01*
X128312000Y-103326292D01*
X139683000Y-103326292D01*
X139683000Y-103429708D01*
X139703176Y-103531137D01*
X139742751Y-103626681D01*
X139800206Y-103712668D01*
X139873332Y-103785794D01*
X139959319Y-103843249D01*
X140054863Y-103882824D01*
X140156292Y-103903000D01*
X140259708Y-103903000D01*
X140361137Y-103882824D01*
X140456681Y-103843249D01*
X140542668Y-103785794D01*
X140615794Y-103712668D01*
X140673249Y-103626681D01*
X140692463Y-103580292D01*
X149144500Y-103580292D01*
X149144500Y-103683708D01*
X149164676Y-103785137D01*
X149204251Y-103880681D01*
X149261706Y-103966668D01*
X149334832Y-104039794D01*
X149420819Y-104097249D01*
X149516363Y-104136824D01*
X149617792Y-104157000D01*
X149721208Y-104157000D01*
X149822637Y-104136824D01*
X149918181Y-104097249D01*
X150004168Y-104039794D01*
X150077294Y-103966668D01*
X150080886Y-103961292D01*
X153018000Y-103961292D01*
X153018000Y-104064708D01*
X153038176Y-104166137D01*
X153077751Y-104261681D01*
X153135206Y-104347668D01*
X153208332Y-104420794D01*
X153294319Y-104478249D01*
X153389863Y-104517824D01*
X153491292Y-104538000D01*
X153594708Y-104538000D01*
X153696137Y-104517824D01*
X153791681Y-104478249D01*
X153877668Y-104420794D01*
X153950794Y-104347668D01*
X154008249Y-104261681D01*
X154047824Y-104166137D01*
X154068000Y-104064708D01*
X154068000Y-103961292D01*
X154062948Y-103935892D01*
X155812000Y-103935892D01*
X155812000Y-104039308D01*
X155832176Y-104140737D01*
X155871751Y-104236281D01*
X155929206Y-104322268D01*
X156002332Y-104395394D01*
X156088319Y-104452849D01*
X156183863Y-104492424D01*
X156285292Y-104512600D01*
X156388708Y-104512600D01*
X156490137Y-104492424D01*
X156585681Y-104452849D01*
X156671668Y-104395394D01*
X156744794Y-104322268D01*
X156802249Y-104236281D01*
X156841824Y-104140737D01*
X156862000Y-104039308D01*
X156862000Y-103935892D01*
X156841824Y-103834463D01*
X156802249Y-103738919D01*
X156744794Y-103652932D01*
X156671668Y-103579806D01*
X156585681Y-103522351D01*
X156490137Y-103482776D01*
X156388708Y-103462600D01*
X156285292Y-103462600D01*
X156183863Y-103482776D01*
X156088319Y-103522351D01*
X156002332Y-103579806D01*
X155929206Y-103652932D01*
X155871751Y-103738919D01*
X155832176Y-103834463D01*
X155812000Y-103935892D01*
X154062948Y-103935892D01*
X154047824Y-103859863D01*
X154008249Y-103764319D01*
X153950794Y-103678332D01*
X153877668Y-103605206D01*
X153791681Y-103547751D01*
X153696137Y-103508176D01*
X153594708Y-103488000D01*
X153491292Y-103488000D01*
X153389863Y-103508176D01*
X153294319Y-103547751D01*
X153208332Y-103605206D01*
X153135206Y-103678332D01*
X153077751Y-103764319D01*
X153038176Y-103859863D01*
X153018000Y-103961292D01*
X150080886Y-103961292D01*
X150134749Y-103880681D01*
X150174324Y-103785137D01*
X150194500Y-103683708D01*
X150194500Y-103580292D01*
X150174324Y-103478863D01*
X150134749Y-103383319D01*
X150077294Y-103297332D01*
X150004168Y-103224206D01*
X149918181Y-103166751D01*
X149822637Y-103127176D01*
X149721208Y-103107000D01*
X149617792Y-103107000D01*
X149516363Y-103127176D01*
X149420819Y-103166751D01*
X149334832Y-103224206D01*
X149261706Y-103297332D01*
X149204251Y-103383319D01*
X149164676Y-103478863D01*
X149144500Y-103580292D01*
X140692463Y-103580292D01*
X140712824Y-103531137D01*
X140733000Y-103429708D01*
X140733000Y-103326292D01*
X140712824Y-103224863D01*
X140673249Y-103129319D01*
X140615794Y-103043332D01*
X140542668Y-102970206D01*
X140456681Y-102912751D01*
X140361137Y-102873176D01*
X140259708Y-102853000D01*
X140156292Y-102853000D01*
X140054863Y-102873176D01*
X139959319Y-102912751D01*
X139873332Y-102970206D01*
X139800206Y-103043332D01*
X139742751Y-103129319D01*
X139703176Y-103224863D01*
X139683000Y-103326292D01*
X128312000Y-103326292D01*
X128312000Y-102564292D01*
X135822200Y-102564292D01*
X135822200Y-102667708D01*
X135842376Y-102769137D01*
X135881951Y-102864681D01*
X135939406Y-102950668D01*
X136012532Y-103023794D01*
X136098519Y-103081249D01*
X136194063Y-103120824D01*
X136295492Y-103141000D01*
X136398908Y-103141000D01*
X136500337Y-103120824D01*
X136595881Y-103081249D01*
X136681868Y-103023794D01*
X136754994Y-102950668D01*
X136812449Y-102864681D01*
X136852024Y-102769137D01*
X136872200Y-102667708D01*
X136872200Y-102564292D01*
X136854110Y-102473346D01*
X145053054Y-102473346D01*
X145053054Y-102576762D01*
X145073230Y-102678191D01*
X145112805Y-102773735D01*
X145170260Y-102859722D01*
X145243386Y-102932848D01*
X145329373Y-102990303D01*
X145424917Y-103029878D01*
X145526346Y-103050054D01*
X145629762Y-103050054D01*
X145731191Y-103029878D01*
X145826735Y-102990303D01*
X145912722Y-102932848D01*
X145985848Y-102859722D01*
X146043303Y-102773735D01*
X146056409Y-102742092D01*
X147023600Y-102742092D01*
X147023600Y-102845508D01*
X147043776Y-102946937D01*
X147083351Y-103042481D01*
X147140806Y-103128468D01*
X147213932Y-103201594D01*
X147299919Y-103259049D01*
X147395463Y-103298624D01*
X147496892Y-103318800D01*
X147600308Y-103318800D01*
X147701737Y-103298624D01*
X147797281Y-103259049D01*
X147883268Y-103201594D01*
X147956394Y-103128468D01*
X148013849Y-103042481D01*
X148053424Y-102946937D01*
X148073600Y-102845508D01*
X148073600Y-102818292D01*
X150427200Y-102818292D01*
X150427200Y-102921708D01*
X150447376Y-103023137D01*
X150486951Y-103118681D01*
X150544406Y-103204668D01*
X150617532Y-103277794D01*
X150703519Y-103335249D01*
X150799063Y-103374824D01*
X150900492Y-103395000D01*
X151003908Y-103395000D01*
X151105337Y-103374824D01*
X151200881Y-103335249D01*
X151286868Y-103277794D01*
X151314570Y-103250092D01*
X154008600Y-103250092D01*
X154008600Y-103353508D01*
X154028776Y-103454937D01*
X154068351Y-103550481D01*
X154125806Y-103636468D01*
X154198932Y-103709594D01*
X154284919Y-103767049D01*
X154380463Y-103806624D01*
X154481892Y-103826800D01*
X154585308Y-103826800D01*
X154686737Y-103806624D01*
X154782281Y-103767049D01*
X154868268Y-103709594D01*
X154941394Y-103636468D01*
X154998849Y-103550481D01*
X155038424Y-103454937D01*
X155058600Y-103353508D01*
X155058600Y-103250092D01*
X155038424Y-103148663D01*
X154998849Y-103053119D01*
X154941394Y-102967132D01*
X154868268Y-102894006D01*
X154782281Y-102836551D01*
X154686737Y-102796976D01*
X154585308Y-102776800D01*
X154481892Y-102776800D01*
X154380463Y-102796976D01*
X154284919Y-102836551D01*
X154198932Y-102894006D01*
X154125806Y-102967132D01*
X154068351Y-103053119D01*
X154028776Y-103148663D01*
X154008600Y-103250092D01*
X151314570Y-103250092D01*
X151359994Y-103204668D01*
X151417449Y-103118681D01*
X151457024Y-103023137D01*
X151477200Y-102921708D01*
X151477200Y-102818292D01*
X151457024Y-102716863D01*
X151417449Y-102621319D01*
X151359994Y-102535332D01*
X151286868Y-102462206D01*
X151200881Y-102404751D01*
X151105337Y-102365176D01*
X151003908Y-102345000D01*
X150900492Y-102345000D01*
X150799063Y-102365176D01*
X150703519Y-102404751D01*
X150617532Y-102462206D01*
X150544406Y-102535332D01*
X150486951Y-102621319D01*
X150447376Y-102716863D01*
X150427200Y-102818292D01*
X148073600Y-102818292D01*
X148073600Y-102742092D01*
X148053424Y-102640663D01*
X148013849Y-102545119D01*
X147956394Y-102459132D01*
X147883268Y-102386006D01*
X147797281Y-102328551D01*
X147701737Y-102288976D01*
X147600308Y-102268800D01*
X147496892Y-102268800D01*
X147395463Y-102288976D01*
X147299919Y-102328551D01*
X147213932Y-102386006D01*
X147140806Y-102459132D01*
X147083351Y-102545119D01*
X147043776Y-102640663D01*
X147023600Y-102742092D01*
X146056409Y-102742092D01*
X146082878Y-102678191D01*
X146103054Y-102576762D01*
X146103054Y-102473346D01*
X146082878Y-102371917D01*
X146043303Y-102276373D01*
X145985848Y-102190386D01*
X145912722Y-102117260D01*
X145826735Y-102059805D01*
X145731191Y-102020230D01*
X145629762Y-102000054D01*
X145526346Y-102000054D01*
X145424917Y-102020230D01*
X145329373Y-102059805D01*
X145243386Y-102117260D01*
X145170260Y-102190386D01*
X145112805Y-102276373D01*
X145073230Y-102371917D01*
X145053054Y-102473346D01*
X136854110Y-102473346D01*
X136852024Y-102462863D01*
X136812449Y-102367319D01*
X136754994Y-102281332D01*
X136681868Y-102208206D01*
X136595881Y-102150751D01*
X136500337Y-102111176D01*
X136398908Y-102091000D01*
X136295492Y-102091000D01*
X136194063Y-102111176D01*
X136098519Y-102150751D01*
X136012532Y-102208206D01*
X135939406Y-102281332D01*
X135881951Y-102367319D01*
X135842376Y-102462863D01*
X135822200Y-102564292D01*
X128312000Y-102564292D01*
X128312000Y-100837092D01*
X135746000Y-100837092D01*
X135746000Y-100940508D01*
X135766176Y-101041937D01*
X135805751Y-101137481D01*
X135863206Y-101223468D01*
X135936332Y-101296594D01*
X136022319Y-101354049D01*
X136117863Y-101393624D01*
X136219292Y-101413800D01*
X136322708Y-101413800D01*
X136424137Y-101393624D01*
X136519681Y-101354049D01*
X136605668Y-101296594D01*
X136671470Y-101230792D01*
X154796000Y-101230792D01*
X154796000Y-101334208D01*
X154816176Y-101435637D01*
X154855751Y-101531181D01*
X154913206Y-101617168D01*
X154986332Y-101690294D01*
X155072319Y-101747749D01*
X155167863Y-101787324D01*
X155269292Y-101807500D01*
X155372708Y-101807500D01*
X155474137Y-101787324D01*
X155569681Y-101747749D01*
X155655668Y-101690294D01*
X155728794Y-101617168D01*
X155786249Y-101531181D01*
X155825824Y-101435637D01*
X155846000Y-101334208D01*
X155846000Y-101230792D01*
X155825824Y-101129363D01*
X155786249Y-101033819D01*
X155728794Y-100947832D01*
X155655668Y-100874706D01*
X155569681Y-100817251D01*
X155474137Y-100777676D01*
X155372708Y-100757500D01*
X155269292Y-100757500D01*
X155167863Y-100777676D01*
X155072319Y-100817251D01*
X154986332Y-100874706D01*
X154913206Y-100947832D01*
X154855751Y-101033819D01*
X154816176Y-101129363D01*
X154796000Y-101230792D01*
X136671470Y-101230792D01*
X136678794Y-101223468D01*
X136736249Y-101137481D01*
X136775824Y-101041937D01*
X136796000Y-100940508D01*
X136796000Y-100837092D01*
X136775824Y-100735663D01*
X136736249Y-100640119D01*
X136678794Y-100554132D01*
X136605668Y-100481006D01*
X136519681Y-100423551D01*
X136424137Y-100383976D01*
X136322708Y-100363800D01*
X136219292Y-100363800D01*
X136117863Y-100383976D01*
X136022319Y-100423551D01*
X135936332Y-100481006D01*
X135863206Y-100554132D01*
X135805751Y-100640119D01*
X135766176Y-100735663D01*
X135746000Y-100837092D01*
X128312000Y-100837092D01*
X128312000Y-97499104D01*
X129393639Y-97499104D01*
X129434037Y-97643684D01*
X129508263Y-97792948D01*
X129610183Y-97924863D01*
X129735880Y-98034360D01*
X129880523Y-98117230D01*
X130038554Y-98170290D01*
X130203900Y-98191500D01*
X130503900Y-98191500D01*
X130503900Y-97366500D01*
X130553900Y-97366500D01*
X130553900Y-98191500D01*
X130853900Y-98191500D01*
X131019246Y-98170290D01*
X131177277Y-98117230D01*
X131321920Y-98034360D01*
X131447617Y-97924863D01*
X131549537Y-97792948D01*
X131623763Y-97643684D01*
X131663043Y-97503104D01*
X133323639Y-97503104D01*
X133364037Y-97647684D01*
X133438263Y-97796948D01*
X133540183Y-97928863D01*
X133665880Y-98038360D01*
X133810523Y-98121230D01*
X133968554Y-98174290D01*
X133994837Y-98177662D01*
X133968352Y-98188632D01*
X133865986Y-98257031D01*
X133778931Y-98344086D01*
X133710532Y-98446452D01*
X133663419Y-98560194D01*
X133639400Y-98680943D01*
X133639400Y-98804057D01*
X133663419Y-98924806D01*
X133710532Y-99038548D01*
X133778931Y-99140914D01*
X133800786Y-99162769D01*
X133761719Y-99178951D01*
X133675732Y-99236406D01*
X133602606Y-99309532D01*
X133545151Y-99395519D01*
X133505576Y-99491063D01*
X133485400Y-99592492D01*
X133485400Y-99695908D01*
X133505576Y-99797337D01*
X133545151Y-99892881D01*
X133602606Y-99978868D01*
X133675732Y-100051994D01*
X133761719Y-100109449D01*
X133857263Y-100149024D01*
X133958692Y-100169200D01*
X134062108Y-100169200D01*
X134163537Y-100149024D01*
X134259081Y-100109449D01*
X134272486Y-100100492D01*
X140216400Y-100100492D01*
X140216400Y-100203908D01*
X140236576Y-100305337D01*
X140276151Y-100400881D01*
X140333606Y-100486868D01*
X140406732Y-100559994D01*
X140492719Y-100617449D01*
X140588263Y-100657024D01*
X140689692Y-100677200D01*
X140793108Y-100677200D01*
X140894537Y-100657024D01*
X140990081Y-100617449D01*
X141076068Y-100559994D01*
X141149194Y-100486868D01*
X141206649Y-100400881D01*
X141209061Y-100395056D01*
X167505000Y-100395056D01*
X167505000Y-100532944D01*
X167531901Y-100668182D01*
X167584668Y-100795574D01*
X167661274Y-100910224D01*
X167758776Y-101007726D01*
X167873426Y-101084332D01*
X168000818Y-101137099D01*
X168136056Y-101164000D01*
X168273944Y-101164000D01*
X168409182Y-101137099D01*
X168536574Y-101084332D01*
X168651224Y-101007726D01*
X168748726Y-100910224D01*
X168825332Y-100795574D01*
X168878099Y-100668182D01*
X168905000Y-100532944D01*
X168905000Y-100395056D01*
X168878099Y-100259818D01*
X168825332Y-100132426D01*
X168748726Y-100017776D01*
X168651224Y-99920274D01*
X168536574Y-99843668D01*
X168409182Y-99790901D01*
X168273944Y-99764000D01*
X168136056Y-99764000D01*
X168000818Y-99790901D01*
X167873426Y-99843668D01*
X167758776Y-99920274D01*
X167661274Y-100017776D01*
X167584668Y-100132426D01*
X167531901Y-100259818D01*
X167505000Y-100395056D01*
X141209061Y-100395056D01*
X141246224Y-100305337D01*
X141266400Y-100203908D01*
X141266400Y-100100492D01*
X141246224Y-99999063D01*
X141206649Y-99903519D01*
X141149194Y-99817532D01*
X141076068Y-99744406D01*
X140990081Y-99686951D01*
X140894537Y-99647376D01*
X140793108Y-99627200D01*
X140689692Y-99627200D01*
X140588263Y-99647376D01*
X140492719Y-99686951D01*
X140406732Y-99744406D01*
X140333606Y-99817532D01*
X140276151Y-99903519D01*
X140236576Y-99999063D01*
X140216400Y-100100492D01*
X134272486Y-100100492D01*
X134345068Y-100051994D01*
X134418194Y-99978868D01*
X134475649Y-99892881D01*
X134515224Y-99797337D01*
X134535400Y-99695908D01*
X134535400Y-99592492D01*
X134515224Y-99491063D01*
X134475649Y-99395519D01*
X134441562Y-99344504D01*
X134446706Y-99343481D01*
X134560448Y-99296368D01*
X134662814Y-99227969D01*
X134749869Y-99140914D01*
X134753625Y-99135292D01*
X157209000Y-99135292D01*
X157209000Y-99238708D01*
X157229176Y-99340137D01*
X157268751Y-99435681D01*
X157326206Y-99521668D01*
X157399332Y-99594794D01*
X157485319Y-99652249D01*
X157580863Y-99691824D01*
X157682292Y-99712000D01*
X157785708Y-99712000D01*
X157887137Y-99691824D01*
X157982681Y-99652249D01*
X158068668Y-99594794D01*
X158141794Y-99521668D01*
X158199249Y-99435681D01*
X158238824Y-99340137D01*
X158259000Y-99238708D01*
X158259000Y-99135292D01*
X158238824Y-99033863D01*
X158199249Y-98938319D01*
X158141794Y-98852332D01*
X158068668Y-98779206D01*
X157982681Y-98721751D01*
X157887137Y-98682176D01*
X157785708Y-98662000D01*
X157682292Y-98662000D01*
X157580863Y-98682176D01*
X157485319Y-98721751D01*
X157399332Y-98779206D01*
X157326206Y-98852332D01*
X157268751Y-98938319D01*
X157229176Y-99033863D01*
X157209000Y-99135292D01*
X134753625Y-99135292D01*
X134818268Y-99038548D01*
X134865381Y-98924806D01*
X134889400Y-98804057D01*
X134889400Y-98680943D01*
X134865381Y-98560194D01*
X134818268Y-98446452D01*
X134749869Y-98344086D01*
X134662814Y-98257031D01*
X134646743Y-98246292D01*
X149360400Y-98246292D01*
X149360400Y-98349708D01*
X149380576Y-98451137D01*
X149420151Y-98546681D01*
X149477606Y-98632668D01*
X149550732Y-98705794D01*
X149636719Y-98763249D01*
X149732263Y-98802824D01*
X149833692Y-98823000D01*
X149937108Y-98823000D01*
X150038537Y-98802824D01*
X150134081Y-98763249D01*
X150220068Y-98705794D01*
X150293194Y-98632668D01*
X150350649Y-98546681D01*
X150369863Y-98500292D01*
X163813000Y-98500292D01*
X163813000Y-98603708D01*
X163833176Y-98705137D01*
X163872751Y-98800681D01*
X163930206Y-98886668D01*
X164003332Y-98959794D01*
X164089319Y-99017249D01*
X164184863Y-99056824D01*
X164286292Y-99077000D01*
X164389708Y-99077000D01*
X164491137Y-99056824D01*
X164586681Y-99017249D01*
X164672668Y-98959794D01*
X164745794Y-98886668D01*
X164803249Y-98800681D01*
X164842824Y-98705137D01*
X164863000Y-98603708D01*
X164863000Y-98500292D01*
X164842824Y-98398863D01*
X164803249Y-98303319D01*
X164745794Y-98217332D01*
X164672668Y-98144206D01*
X164599111Y-98095056D01*
X167505000Y-98095056D01*
X167505000Y-98232944D01*
X167531901Y-98368182D01*
X167584668Y-98495574D01*
X167661274Y-98610224D01*
X167758776Y-98707726D01*
X167873426Y-98784332D01*
X168000818Y-98837099D01*
X168136056Y-98864000D01*
X168273944Y-98864000D01*
X168409182Y-98837099D01*
X168536574Y-98784332D01*
X168651224Y-98707726D01*
X168748726Y-98610224D01*
X168825332Y-98495574D01*
X168878099Y-98368182D01*
X168905000Y-98232944D01*
X168905000Y-98095056D01*
X168878099Y-97959818D01*
X168825332Y-97832426D01*
X168748726Y-97717776D01*
X168651224Y-97620274D01*
X168536574Y-97543668D01*
X168409182Y-97490901D01*
X168273944Y-97464000D01*
X168136056Y-97464000D01*
X168000818Y-97490901D01*
X167873426Y-97543668D01*
X167758776Y-97620274D01*
X167661274Y-97717776D01*
X167584668Y-97832426D01*
X167531901Y-97959818D01*
X167505000Y-98095056D01*
X164599111Y-98095056D01*
X164586681Y-98086751D01*
X164491137Y-98047176D01*
X164389708Y-98027000D01*
X164286292Y-98027000D01*
X164184863Y-98047176D01*
X164089319Y-98086751D01*
X164003332Y-98144206D01*
X163930206Y-98217332D01*
X163872751Y-98303319D01*
X163833176Y-98398863D01*
X163813000Y-98500292D01*
X150369863Y-98500292D01*
X150390224Y-98451137D01*
X150410400Y-98349708D01*
X150410400Y-98246292D01*
X150390224Y-98144863D01*
X150350649Y-98049319D01*
X150293194Y-97963332D01*
X150220068Y-97890206D01*
X150134081Y-97832751D01*
X150038537Y-97793176D01*
X149937108Y-97773000D01*
X149833692Y-97773000D01*
X149732263Y-97793176D01*
X149636719Y-97832751D01*
X149550732Y-97890206D01*
X149477606Y-97963332D01*
X149420151Y-98049319D01*
X149380576Y-98144863D01*
X149360400Y-98246292D01*
X134646743Y-98246292D01*
X134570727Y-98195500D01*
X134683900Y-98195500D01*
X134683900Y-97370500D01*
X134733900Y-97370500D01*
X134733900Y-98195500D01*
X135283900Y-98195500D01*
X135449246Y-98174290D01*
X135607277Y-98121230D01*
X135751920Y-98038360D01*
X135877617Y-97928863D01*
X135979537Y-97796948D01*
X136053763Y-97647684D01*
X136094161Y-97503104D01*
X136069765Y-97458892D01*
X153805400Y-97458892D01*
X153805400Y-97562308D01*
X153825576Y-97663737D01*
X153865151Y-97759281D01*
X153922606Y-97845268D01*
X153995732Y-97918394D01*
X154081719Y-97975849D01*
X154177263Y-98015424D01*
X154278692Y-98035600D01*
X154382108Y-98035600D01*
X154483537Y-98015424D01*
X154579081Y-97975849D01*
X154665068Y-97918394D01*
X154738194Y-97845268D01*
X154795649Y-97759281D01*
X154835224Y-97663737D01*
X154855400Y-97562308D01*
X154855400Y-97458892D01*
X154835224Y-97357463D01*
X154795649Y-97261919D01*
X154738194Y-97175932D01*
X154665068Y-97102806D01*
X154579081Y-97045351D01*
X154483537Y-97005776D01*
X154382108Y-96985600D01*
X154278692Y-96985600D01*
X154177263Y-97005776D01*
X154081719Y-97045351D01*
X153995732Y-97102806D01*
X153922606Y-97175932D01*
X153865151Y-97261919D01*
X153825576Y-97357463D01*
X153805400Y-97458892D01*
X136069765Y-97458892D01*
X136020990Y-97370500D01*
X134733900Y-97370500D01*
X134683900Y-97370500D01*
X133396810Y-97370500D01*
X133323639Y-97503104D01*
X131663043Y-97503104D01*
X131664161Y-97499104D01*
X131590990Y-97366500D01*
X130553900Y-97366500D01*
X130503900Y-97366500D01*
X129466810Y-97366500D01*
X129393639Y-97499104D01*
X128312000Y-97499104D01*
X128312000Y-97183896D01*
X129393639Y-97183896D01*
X129466810Y-97316500D01*
X130503900Y-97316500D01*
X130503900Y-96491500D01*
X130553900Y-96491500D01*
X130553900Y-97316500D01*
X131590990Y-97316500D01*
X131661953Y-97187896D01*
X133323639Y-97187896D01*
X133396810Y-97320500D01*
X134683900Y-97320500D01*
X134683900Y-96495500D01*
X134733900Y-96495500D01*
X134733900Y-97320500D01*
X136020990Y-97320500D01*
X136094161Y-97187896D01*
X136053763Y-97043316D01*
X135979537Y-96894052D01*
X135877617Y-96762137D01*
X135751920Y-96652640D01*
X135607277Y-96569770D01*
X135449246Y-96516710D01*
X135283900Y-96495500D01*
X134733900Y-96495500D01*
X134683900Y-96495500D01*
X134133900Y-96495500D01*
X133968554Y-96516710D01*
X133810523Y-96569770D01*
X133665880Y-96652640D01*
X133540183Y-96762137D01*
X133438263Y-96894052D01*
X133364037Y-97043316D01*
X133323639Y-97187896D01*
X131661953Y-97187896D01*
X131664161Y-97183896D01*
X131623763Y-97039316D01*
X131549537Y-96890052D01*
X131447617Y-96758137D01*
X131321920Y-96648640D01*
X131177277Y-96565770D01*
X131019246Y-96512710D01*
X130853900Y-96491500D01*
X130553900Y-96491500D01*
X130503900Y-96491500D01*
X130203900Y-96491500D01*
X130038554Y-96512710D01*
X129880523Y-96565770D01*
X129735880Y-96648640D01*
X129610183Y-96758137D01*
X129508263Y-96890052D01*
X129434037Y-97039316D01*
X129393639Y-97183896D01*
X128312000Y-97183896D01*
X128312000Y-96341292D01*
X147557000Y-96341292D01*
X147557000Y-96444708D01*
X147577176Y-96546137D01*
X147616751Y-96641681D01*
X147674206Y-96727668D01*
X147747332Y-96800794D01*
X147833319Y-96858249D01*
X147928863Y-96897824D01*
X148030292Y-96918000D01*
X148133708Y-96918000D01*
X148235137Y-96897824D01*
X148330681Y-96858249D01*
X148416668Y-96800794D01*
X148489794Y-96727668D01*
X148547249Y-96641681D01*
X148586824Y-96546137D01*
X148607000Y-96444708D01*
X148607000Y-96341292D01*
X148586824Y-96239863D01*
X148576233Y-96214292D01*
X149208000Y-96214292D01*
X149208000Y-96317708D01*
X149228176Y-96419137D01*
X149267751Y-96514681D01*
X149325206Y-96600668D01*
X149398332Y-96673794D01*
X149484319Y-96731249D01*
X149579863Y-96770824D01*
X149681292Y-96791000D01*
X149784708Y-96791000D01*
X149886137Y-96770824D01*
X149981681Y-96731249D01*
X150067668Y-96673794D01*
X150140794Y-96600668D01*
X150198249Y-96514681D01*
X150237824Y-96419137D01*
X150253308Y-96341292D01*
X150478000Y-96341292D01*
X150478000Y-96444708D01*
X150498176Y-96546137D01*
X150537751Y-96641681D01*
X150595206Y-96727668D01*
X150668332Y-96800794D01*
X150754319Y-96858249D01*
X150849863Y-96897824D01*
X150951292Y-96918000D01*
X151054708Y-96918000D01*
X151156137Y-96897824D01*
X151251681Y-96858249D01*
X151337668Y-96800794D01*
X151410794Y-96727668D01*
X151468249Y-96641681D01*
X151507824Y-96546137D01*
X151528000Y-96444708D01*
X151528000Y-96341292D01*
X151512843Y-96265092D01*
X152332200Y-96265092D01*
X152332200Y-96368508D01*
X152352376Y-96469937D01*
X152391951Y-96565481D01*
X152449406Y-96651468D01*
X152522532Y-96724594D01*
X152608519Y-96782049D01*
X152704063Y-96821624D01*
X152805492Y-96841800D01*
X152908908Y-96841800D01*
X153010337Y-96821624D01*
X153105881Y-96782049D01*
X153191868Y-96724594D01*
X153264994Y-96651468D01*
X153322449Y-96565481D01*
X153362024Y-96469937D01*
X153373600Y-96411742D01*
X153373600Y-96419308D01*
X153393776Y-96520737D01*
X153433351Y-96616281D01*
X153490806Y-96702268D01*
X153563932Y-96775394D01*
X153649919Y-96832849D01*
X153745463Y-96872424D01*
X153846892Y-96892600D01*
X153950308Y-96892600D01*
X154051737Y-96872424D01*
X154147281Y-96832849D01*
X154233268Y-96775394D01*
X154306394Y-96702268D01*
X154363849Y-96616281D01*
X154403424Y-96520737D01*
X154423600Y-96419308D01*
X154423600Y-96315892D01*
X154403424Y-96214463D01*
X154363849Y-96118919D01*
X154306394Y-96032932D01*
X154233268Y-95959806D01*
X154147281Y-95902351D01*
X154051737Y-95862776D01*
X153950308Y-95842600D01*
X153846892Y-95842600D01*
X153745463Y-95862776D01*
X153649919Y-95902351D01*
X153563932Y-95959806D01*
X153490806Y-96032932D01*
X153433351Y-96118919D01*
X153393776Y-96214463D01*
X153382200Y-96272658D01*
X153382200Y-96265092D01*
X153362024Y-96163663D01*
X153322449Y-96068119D01*
X153264994Y-95982132D01*
X153191868Y-95909006D01*
X153105881Y-95851551D01*
X153010337Y-95811976D01*
X152908908Y-95791800D01*
X152805492Y-95791800D01*
X152704063Y-95811976D01*
X152608519Y-95851551D01*
X152522532Y-95909006D01*
X152449406Y-95982132D01*
X152391951Y-96068119D01*
X152352376Y-96163663D01*
X152332200Y-96265092D01*
X151512843Y-96265092D01*
X151507824Y-96239863D01*
X151468249Y-96144319D01*
X151410794Y-96058332D01*
X151337668Y-95985206D01*
X151251681Y-95927751D01*
X151156137Y-95888176D01*
X151054708Y-95868000D01*
X150951292Y-95868000D01*
X150849863Y-95888176D01*
X150754319Y-95927751D01*
X150668332Y-95985206D01*
X150595206Y-96058332D01*
X150537751Y-96144319D01*
X150498176Y-96239863D01*
X150478000Y-96341292D01*
X150253308Y-96341292D01*
X150258000Y-96317708D01*
X150258000Y-96214292D01*
X150237824Y-96112863D01*
X150198249Y-96017319D01*
X150140794Y-95931332D01*
X150067668Y-95858206D01*
X149981681Y-95800751D01*
X149886137Y-95761176D01*
X149784708Y-95741000D01*
X149681292Y-95741000D01*
X149579863Y-95761176D01*
X149484319Y-95800751D01*
X149398332Y-95858206D01*
X149325206Y-95931332D01*
X149267751Y-96017319D01*
X149228176Y-96112863D01*
X149208000Y-96214292D01*
X148576233Y-96214292D01*
X148547249Y-96144319D01*
X148489794Y-96058332D01*
X148416668Y-95985206D01*
X148330681Y-95927751D01*
X148235137Y-95888176D01*
X148133708Y-95868000D01*
X148030292Y-95868000D01*
X147928863Y-95888176D01*
X147833319Y-95927751D01*
X147747332Y-95985206D01*
X147674206Y-96058332D01*
X147616751Y-96144319D01*
X147577176Y-96239863D01*
X147557000Y-96341292D01*
X128312000Y-96341292D01*
X128312000Y-94354298D01*
X136381000Y-94354298D01*
X136381000Y-94457714D01*
X136401176Y-94559143D01*
X136440751Y-94654687D01*
X136498206Y-94740674D01*
X136571332Y-94813800D01*
X136657319Y-94871255D01*
X136752863Y-94910830D01*
X136854292Y-94931006D01*
X136957708Y-94931006D01*
X137059137Y-94910830D01*
X137154681Y-94871255D01*
X137240668Y-94813800D01*
X137313794Y-94740674D01*
X137371249Y-94654687D01*
X137410824Y-94559143D01*
X137431000Y-94457714D01*
X137431000Y-94354300D01*
X137651000Y-94354300D01*
X137651000Y-94457716D01*
X137671176Y-94559145D01*
X137710751Y-94654689D01*
X137768206Y-94740676D01*
X137841332Y-94813802D01*
X137927319Y-94871257D01*
X138022863Y-94910832D01*
X138124292Y-94931008D01*
X138227708Y-94931008D01*
X138329137Y-94910832D01*
X138424681Y-94871257D01*
X138510668Y-94813802D01*
X138583794Y-94740676D01*
X138641249Y-94654689D01*
X138680824Y-94559145D01*
X138701000Y-94457716D01*
X138701000Y-94354300D01*
X138700996Y-94354278D01*
X138921000Y-94354278D01*
X138921000Y-94457694D01*
X138941176Y-94559123D01*
X138980751Y-94654667D01*
X139038206Y-94740654D01*
X139111332Y-94813780D01*
X139197319Y-94871235D01*
X139292863Y-94910810D01*
X139394292Y-94930986D01*
X139497708Y-94930986D01*
X139599137Y-94910810D01*
X139694681Y-94871235D01*
X139780668Y-94813780D01*
X139853794Y-94740654D01*
X139911249Y-94654667D01*
X139950824Y-94559123D01*
X139971000Y-94457694D01*
X139971000Y-94354286D01*
X140191000Y-94354286D01*
X140191000Y-94457702D01*
X140211176Y-94559131D01*
X140250751Y-94654675D01*
X140308206Y-94740662D01*
X140381332Y-94813788D01*
X140467319Y-94871243D01*
X140562863Y-94910818D01*
X140664292Y-94930994D01*
X140767708Y-94930994D01*
X140869137Y-94910818D01*
X140964681Y-94871243D01*
X141050668Y-94813788D01*
X141123794Y-94740662D01*
X141181249Y-94654675D01*
X141220824Y-94559131D01*
X141241000Y-94457702D01*
X141241000Y-94354286D01*
X141461000Y-94354286D01*
X141461000Y-94457702D01*
X141481176Y-94559131D01*
X141520751Y-94654675D01*
X141578206Y-94740662D01*
X141651332Y-94813788D01*
X141737319Y-94871243D01*
X141832863Y-94910818D01*
X141934292Y-94930994D01*
X142037708Y-94930994D01*
X142139137Y-94910818D01*
X142234681Y-94871243D01*
X142320668Y-94813788D01*
X142393794Y-94740662D01*
X142451249Y-94654675D01*
X142490824Y-94559131D01*
X142511000Y-94457702D01*
X142511000Y-94354304D01*
X142731000Y-94354304D01*
X142731000Y-94457720D01*
X142751176Y-94559149D01*
X142790751Y-94654693D01*
X142848206Y-94740680D01*
X142921332Y-94813806D01*
X143007319Y-94871261D01*
X143102863Y-94910836D01*
X143204292Y-94931012D01*
X143307708Y-94931012D01*
X143409137Y-94910836D01*
X143504681Y-94871261D01*
X143590668Y-94813806D01*
X143663794Y-94740680D01*
X143721249Y-94654693D01*
X143760824Y-94559149D01*
X143781000Y-94457720D01*
X143781000Y-94354304D01*
X143780998Y-94354292D01*
X144001000Y-94354292D01*
X144001000Y-94457708D01*
X144021176Y-94559137D01*
X144060751Y-94654681D01*
X144118206Y-94740668D01*
X144191332Y-94813794D01*
X144277319Y-94871249D01*
X144372863Y-94910824D01*
X144474292Y-94931000D01*
X144577708Y-94931000D01*
X144679137Y-94910824D01*
X144774681Y-94871249D01*
X144860668Y-94813794D01*
X144933794Y-94740668D01*
X144991249Y-94654681D01*
X145030824Y-94559137D01*
X145051000Y-94457708D01*
X145051000Y-94354292D01*
X145050999Y-94354284D01*
X145271000Y-94354284D01*
X145271000Y-94457700D01*
X145291176Y-94559129D01*
X145330751Y-94654673D01*
X145388206Y-94740660D01*
X145461332Y-94813786D01*
X145547319Y-94871241D01*
X145642863Y-94910816D01*
X145744292Y-94930992D01*
X145847708Y-94930992D01*
X145949137Y-94910816D01*
X146044681Y-94871241D01*
X146130668Y-94813786D01*
X146203794Y-94740660D01*
X146261249Y-94654673D01*
X146300824Y-94559129D01*
X146321000Y-94457700D01*
X146321000Y-94354286D01*
X146541000Y-94354286D01*
X146541000Y-94457702D01*
X146561176Y-94559131D01*
X146600751Y-94654675D01*
X146658206Y-94740662D01*
X146731332Y-94813788D01*
X146817319Y-94871243D01*
X146912863Y-94910818D01*
X147014292Y-94930994D01*
X147117708Y-94930994D01*
X147219137Y-94910818D01*
X147314681Y-94871243D01*
X147400668Y-94813788D01*
X147473794Y-94740662D01*
X147531249Y-94654675D01*
X147570824Y-94559131D01*
X147591000Y-94457702D01*
X147591000Y-94354292D01*
X147811000Y-94354292D01*
X147811000Y-94457708D01*
X147831176Y-94559137D01*
X147870751Y-94654681D01*
X147928206Y-94740668D01*
X148001332Y-94813794D01*
X148087319Y-94871249D01*
X148182863Y-94910824D01*
X148284292Y-94931000D01*
X148387708Y-94931000D01*
X148489137Y-94910824D01*
X148584681Y-94871249D01*
X148670668Y-94813794D01*
X148743794Y-94740668D01*
X148801249Y-94654681D01*
X148840824Y-94559137D01*
X148861000Y-94457708D01*
X148861000Y-94354292D01*
X150351000Y-94354292D01*
X150351000Y-94457708D01*
X150371176Y-94559137D01*
X150410751Y-94654681D01*
X150468206Y-94740668D01*
X150541332Y-94813794D01*
X150627319Y-94871249D01*
X150722863Y-94910824D01*
X150824292Y-94931000D01*
X150927708Y-94931000D01*
X151029137Y-94910824D01*
X151124681Y-94871249D01*
X151210668Y-94813794D01*
X151283794Y-94740668D01*
X151341249Y-94654681D01*
X151380824Y-94559137D01*
X151401000Y-94457708D01*
X151401000Y-94354292D01*
X151621000Y-94354292D01*
X151621000Y-94457708D01*
X151641176Y-94559137D01*
X151680751Y-94654681D01*
X151738206Y-94740668D01*
X151811332Y-94813794D01*
X151897319Y-94871249D01*
X151992863Y-94910824D01*
X152094292Y-94931000D01*
X152197708Y-94931000D01*
X152299137Y-94910824D01*
X152394681Y-94871249D01*
X152480668Y-94813794D01*
X152553794Y-94740668D01*
X152611249Y-94654681D01*
X152650824Y-94559137D01*
X152671000Y-94457708D01*
X152671000Y-94354292D01*
X152662049Y-94309292D01*
X152891000Y-94309292D01*
X152891000Y-94412708D01*
X152911176Y-94514137D01*
X152950751Y-94609681D01*
X153008206Y-94695668D01*
X153081332Y-94768794D01*
X153167319Y-94826249D01*
X153262863Y-94865824D01*
X153364292Y-94886000D01*
X153467708Y-94886000D01*
X153569137Y-94865824D01*
X153664681Y-94826249D01*
X153750668Y-94768794D01*
X153823794Y-94695668D01*
X153881249Y-94609681D01*
X153920824Y-94514137D01*
X153941000Y-94412708D01*
X153941000Y-94354300D01*
X154161000Y-94354300D01*
X154161000Y-94457716D01*
X154181176Y-94559145D01*
X154220751Y-94654689D01*
X154278206Y-94740676D01*
X154351332Y-94813802D01*
X154437319Y-94871257D01*
X154532863Y-94910832D01*
X154634292Y-94931008D01*
X154737708Y-94931008D01*
X154839137Y-94910832D01*
X154934681Y-94871257D01*
X155020668Y-94813802D01*
X155093794Y-94740676D01*
X155151249Y-94654689D01*
X155190824Y-94559145D01*
X155211000Y-94457716D01*
X155211000Y-94354300D01*
X155210998Y-94354288D01*
X155431000Y-94354288D01*
X155431000Y-94457704D01*
X155451176Y-94559133D01*
X155490751Y-94654677D01*
X155548206Y-94740664D01*
X155621332Y-94813790D01*
X155707319Y-94871245D01*
X155802863Y-94910820D01*
X155904292Y-94930996D01*
X156007708Y-94930996D01*
X156109137Y-94910820D01*
X156204681Y-94871245D01*
X156290668Y-94813790D01*
X156363794Y-94740664D01*
X156421249Y-94654677D01*
X156460824Y-94559133D01*
X156481000Y-94457704D01*
X156481000Y-94354292D01*
X156701000Y-94354292D01*
X156701000Y-94457708D01*
X156721176Y-94559137D01*
X156760751Y-94654681D01*
X156818206Y-94740668D01*
X156891332Y-94813794D01*
X156977319Y-94871249D01*
X157072863Y-94910824D01*
X157174292Y-94931000D01*
X157277708Y-94931000D01*
X157379137Y-94910824D01*
X157474681Y-94871249D01*
X157560668Y-94813794D01*
X157633794Y-94740668D01*
X157691249Y-94654681D01*
X157730824Y-94559137D01*
X157751000Y-94457708D01*
X157751000Y-94354292D01*
X157751000Y-94354288D01*
X157971000Y-94354288D01*
X157971000Y-94457704D01*
X157991176Y-94559133D01*
X158030751Y-94654677D01*
X158088206Y-94740664D01*
X158161332Y-94813790D01*
X158247319Y-94871245D01*
X158342863Y-94910820D01*
X158444292Y-94930996D01*
X158547708Y-94930996D01*
X158649137Y-94910820D01*
X158744681Y-94871245D01*
X158830668Y-94813790D01*
X158903794Y-94740664D01*
X158961249Y-94654677D01*
X159000824Y-94559133D01*
X159021000Y-94457704D01*
X159021000Y-94354288D01*
X159241000Y-94354288D01*
X159241000Y-94457704D01*
X159261176Y-94559133D01*
X159300751Y-94654677D01*
X159358206Y-94740664D01*
X159431332Y-94813790D01*
X159517319Y-94871245D01*
X159612863Y-94910820D01*
X159714292Y-94930996D01*
X159817708Y-94930996D01*
X159919137Y-94910820D01*
X160014681Y-94871245D01*
X160100668Y-94813790D01*
X160173794Y-94740664D01*
X160231249Y-94654677D01*
X160270824Y-94559133D01*
X160291000Y-94457704D01*
X160291000Y-94354288D01*
X160270824Y-94252859D01*
X160241595Y-94182292D01*
X163609800Y-94182292D01*
X163609800Y-94285708D01*
X163629976Y-94387137D01*
X163669551Y-94482681D01*
X163727006Y-94568668D01*
X163800132Y-94641794D01*
X163886119Y-94699249D01*
X163981663Y-94738824D01*
X164083092Y-94759000D01*
X164186508Y-94759000D01*
X164287937Y-94738824D01*
X164383481Y-94699249D01*
X164469468Y-94641794D01*
X164542594Y-94568668D01*
X164600049Y-94482681D01*
X164639624Y-94387137D01*
X164659800Y-94285708D01*
X164659800Y-94182292D01*
X164639624Y-94080863D01*
X164600049Y-93985319D01*
X164542594Y-93899332D01*
X164469468Y-93826206D01*
X164383481Y-93768751D01*
X164287937Y-93729176D01*
X164186508Y-93709000D01*
X164083092Y-93709000D01*
X163981663Y-93729176D01*
X163886119Y-93768751D01*
X163800132Y-93826206D01*
X163727006Y-93899332D01*
X163669551Y-93985319D01*
X163629976Y-94080863D01*
X163609800Y-94182292D01*
X160241595Y-94182292D01*
X160231249Y-94157315D01*
X160173794Y-94071328D01*
X160100668Y-93998202D01*
X160014681Y-93940747D01*
X159919137Y-93901172D01*
X159817708Y-93880996D01*
X159714292Y-93880996D01*
X159612863Y-93901172D01*
X159517319Y-93940747D01*
X159431332Y-93998202D01*
X159358206Y-94071328D01*
X159300751Y-94157315D01*
X159261176Y-94252859D01*
X159241000Y-94354288D01*
X159021000Y-94354288D01*
X159000824Y-94252859D01*
X158961249Y-94157315D01*
X158903794Y-94071328D01*
X158830668Y-93998202D01*
X158744681Y-93940747D01*
X158649137Y-93901172D01*
X158547708Y-93880996D01*
X158444292Y-93880996D01*
X158342863Y-93901172D01*
X158247319Y-93940747D01*
X158161332Y-93998202D01*
X158088206Y-94071328D01*
X158030751Y-94157315D01*
X157991176Y-94252859D01*
X157971000Y-94354288D01*
X157751000Y-94354288D01*
X157730824Y-94252863D01*
X157691249Y-94157319D01*
X157633794Y-94071332D01*
X157560668Y-93998206D01*
X157474681Y-93940751D01*
X157379137Y-93901176D01*
X157277708Y-93881000D01*
X157174292Y-93881000D01*
X157072863Y-93901176D01*
X156977319Y-93940751D01*
X156891332Y-93998206D01*
X156818206Y-94071332D01*
X156760751Y-94157319D01*
X156721176Y-94252863D01*
X156701000Y-94354292D01*
X156481000Y-94354292D01*
X156481000Y-94354288D01*
X156460824Y-94252859D01*
X156421249Y-94157315D01*
X156363794Y-94071328D01*
X156290668Y-93998202D01*
X156204681Y-93940747D01*
X156109137Y-93901172D01*
X156007708Y-93880996D01*
X155904292Y-93880996D01*
X155802863Y-93901172D01*
X155707319Y-93940747D01*
X155621332Y-93998202D01*
X155548206Y-94071328D01*
X155490751Y-94157315D01*
X155451176Y-94252859D01*
X155431000Y-94354288D01*
X155210998Y-94354288D01*
X155190824Y-94252871D01*
X155151249Y-94157327D01*
X155093794Y-94071340D01*
X155020668Y-93998214D01*
X154934681Y-93940759D01*
X154839137Y-93901184D01*
X154737708Y-93881008D01*
X154634292Y-93881008D01*
X154532863Y-93901184D01*
X154437319Y-93940759D01*
X154351332Y-93998214D01*
X154278206Y-94071340D01*
X154220751Y-94157327D01*
X154181176Y-94252871D01*
X154161000Y-94354300D01*
X153941000Y-94354300D01*
X153941000Y-94309292D01*
X153920824Y-94207863D01*
X153881249Y-94112319D01*
X153823794Y-94026332D01*
X153750668Y-93953206D01*
X153664681Y-93895751D01*
X153569137Y-93856176D01*
X153467708Y-93836000D01*
X153364292Y-93836000D01*
X153262863Y-93856176D01*
X153167319Y-93895751D01*
X153081332Y-93953206D01*
X153008206Y-94026332D01*
X152950751Y-94112319D01*
X152911176Y-94207863D01*
X152891000Y-94309292D01*
X152662049Y-94309292D01*
X152650824Y-94252863D01*
X152611249Y-94157319D01*
X152553794Y-94071332D01*
X152480668Y-93998206D01*
X152394681Y-93940751D01*
X152299137Y-93901176D01*
X152197708Y-93881000D01*
X152094292Y-93881000D01*
X151992863Y-93901176D01*
X151897319Y-93940751D01*
X151811332Y-93998206D01*
X151738206Y-94071332D01*
X151680751Y-94157319D01*
X151641176Y-94252863D01*
X151621000Y-94354292D01*
X151401000Y-94354292D01*
X151380824Y-94252863D01*
X151341249Y-94157319D01*
X151283794Y-94071332D01*
X151210668Y-93998206D01*
X151124681Y-93940751D01*
X151029137Y-93901176D01*
X150927708Y-93881000D01*
X150824292Y-93881000D01*
X150722863Y-93901176D01*
X150627319Y-93940751D01*
X150541332Y-93998206D01*
X150468206Y-94071332D01*
X150410751Y-94157319D01*
X150371176Y-94252863D01*
X150351000Y-94354292D01*
X148861000Y-94354292D01*
X148840824Y-94252863D01*
X148801249Y-94157319D01*
X148743794Y-94071332D01*
X148670668Y-93998206D01*
X148584681Y-93940751D01*
X148489137Y-93901176D01*
X148387708Y-93881000D01*
X148284292Y-93881000D01*
X148182863Y-93901176D01*
X148087319Y-93940751D01*
X148001332Y-93998206D01*
X147928206Y-94071332D01*
X147870751Y-94157319D01*
X147831176Y-94252863D01*
X147811000Y-94354292D01*
X147591000Y-94354292D01*
X147591000Y-94354286D01*
X147570824Y-94252857D01*
X147531249Y-94157313D01*
X147473794Y-94071326D01*
X147400668Y-93998200D01*
X147314681Y-93940745D01*
X147219137Y-93901170D01*
X147117708Y-93880994D01*
X147014292Y-93880994D01*
X146912863Y-93901170D01*
X146817319Y-93940745D01*
X146731332Y-93998200D01*
X146658206Y-94071326D01*
X146600751Y-94157313D01*
X146561176Y-94252857D01*
X146541000Y-94354286D01*
X146321000Y-94354286D01*
X146321000Y-94354284D01*
X146300824Y-94252855D01*
X146261249Y-94157311D01*
X146203794Y-94071324D01*
X146130668Y-93998198D01*
X146044681Y-93940743D01*
X145949137Y-93901168D01*
X145847708Y-93880992D01*
X145744292Y-93880992D01*
X145642863Y-93901168D01*
X145547319Y-93940743D01*
X145461332Y-93998198D01*
X145388206Y-94071324D01*
X145330751Y-94157311D01*
X145291176Y-94252855D01*
X145271000Y-94354284D01*
X145050999Y-94354284D01*
X145030824Y-94252863D01*
X144991249Y-94157319D01*
X144933794Y-94071332D01*
X144860668Y-93998206D01*
X144774681Y-93940751D01*
X144679137Y-93901176D01*
X144577708Y-93881000D01*
X144474292Y-93881000D01*
X144372863Y-93901176D01*
X144277319Y-93940751D01*
X144191332Y-93998206D01*
X144118206Y-94071332D01*
X144060751Y-94157319D01*
X144021176Y-94252863D01*
X144001000Y-94354292D01*
X143780998Y-94354292D01*
X143760824Y-94252875D01*
X143721249Y-94157331D01*
X143663794Y-94071344D01*
X143590668Y-93998218D01*
X143504681Y-93940763D01*
X143409137Y-93901188D01*
X143307708Y-93881012D01*
X143204292Y-93881012D01*
X143102863Y-93901188D01*
X143007319Y-93940763D01*
X142921332Y-93998218D01*
X142848206Y-94071344D01*
X142790751Y-94157331D01*
X142751176Y-94252875D01*
X142731000Y-94354304D01*
X142511000Y-94354304D01*
X142511000Y-94354286D01*
X142490824Y-94252857D01*
X142451249Y-94157313D01*
X142393794Y-94071326D01*
X142320668Y-93998200D01*
X142234681Y-93940745D01*
X142139137Y-93901170D01*
X142037708Y-93880994D01*
X141934292Y-93880994D01*
X141832863Y-93901170D01*
X141737319Y-93940745D01*
X141651332Y-93998200D01*
X141578206Y-94071326D01*
X141520751Y-94157313D01*
X141481176Y-94252857D01*
X141461000Y-94354286D01*
X141241000Y-94354286D01*
X141220824Y-94252857D01*
X141181249Y-94157313D01*
X141123794Y-94071326D01*
X141050668Y-93998200D01*
X140964681Y-93940745D01*
X140869137Y-93901170D01*
X140767708Y-93880994D01*
X140664292Y-93880994D01*
X140562863Y-93901170D01*
X140467319Y-93940745D01*
X140381332Y-93998200D01*
X140308206Y-94071326D01*
X140250751Y-94157313D01*
X140211176Y-94252857D01*
X140191000Y-94354286D01*
X139971000Y-94354286D01*
X139971000Y-94354278D01*
X139950824Y-94252849D01*
X139911249Y-94157305D01*
X139853794Y-94071318D01*
X139780668Y-93998192D01*
X139694681Y-93940737D01*
X139599137Y-93901162D01*
X139497708Y-93880986D01*
X139394292Y-93880986D01*
X139292863Y-93901162D01*
X139197319Y-93940737D01*
X139111332Y-93998192D01*
X139038206Y-94071318D01*
X138980751Y-94157305D01*
X138941176Y-94252849D01*
X138921000Y-94354278D01*
X138700996Y-94354278D01*
X138680824Y-94252871D01*
X138641249Y-94157327D01*
X138583794Y-94071340D01*
X138510668Y-93998214D01*
X138424681Y-93940759D01*
X138329137Y-93901184D01*
X138227708Y-93881008D01*
X138124292Y-93881008D01*
X138022863Y-93901184D01*
X137927319Y-93940759D01*
X137841332Y-93998214D01*
X137768206Y-94071340D01*
X137710751Y-94157327D01*
X137671176Y-94252871D01*
X137651000Y-94354300D01*
X137431000Y-94354300D01*
X137431000Y-94354298D01*
X137410824Y-94252869D01*
X137371249Y-94157325D01*
X137313794Y-94071338D01*
X137240668Y-93998212D01*
X137154681Y-93940757D01*
X137059137Y-93901182D01*
X136957708Y-93881006D01*
X136854292Y-93881006D01*
X136752863Y-93901182D01*
X136657319Y-93940757D01*
X136571332Y-93998212D01*
X136498206Y-94071338D01*
X136440751Y-94157325D01*
X136401176Y-94252869D01*
X136381000Y-94354298D01*
X128312000Y-94354298D01*
X128312000Y-92574526D01*
X128421672Y-92839297D01*
X128728098Y-93297896D01*
X129118104Y-93687902D01*
X129576703Y-93994328D01*
X130086270Y-94205398D01*
X130627224Y-94313000D01*
X131178776Y-94313000D01*
X131719730Y-94205398D01*
X132229297Y-93994328D01*
X132687896Y-93687902D01*
X133077902Y-93297896D01*
X133384328Y-92839297D01*
X133595398Y-92329730D01*
X133703000Y-91788776D01*
X133703000Y-91237224D01*
X133595398Y-90696270D01*
X133495164Y-90454282D01*
X136381000Y-90454282D01*
X136381000Y-90557698D01*
X136401176Y-90659127D01*
X136440751Y-90754671D01*
X136498206Y-90840658D01*
X136571332Y-90913784D01*
X136657319Y-90971239D01*
X136752863Y-91010814D01*
X136854292Y-91030990D01*
X136957708Y-91030990D01*
X137059137Y-91010814D01*
X137154681Y-90971239D01*
X137240668Y-90913784D01*
X137313794Y-90840658D01*
X137371249Y-90754671D01*
X137410824Y-90659127D01*
X137431000Y-90557698D01*
X137431000Y-90454284D01*
X137651000Y-90454284D01*
X137651000Y-90557700D01*
X137671176Y-90659129D01*
X137710751Y-90754673D01*
X137768206Y-90840660D01*
X137841332Y-90913786D01*
X137927319Y-90971241D01*
X138022863Y-91010816D01*
X138124292Y-91030992D01*
X138227708Y-91030992D01*
X138329137Y-91010816D01*
X138424681Y-90971241D01*
X138510668Y-90913786D01*
X138583794Y-90840660D01*
X138641249Y-90754673D01*
X138680824Y-90659129D01*
X138701000Y-90557700D01*
X138701000Y-90454300D01*
X138921000Y-90454300D01*
X138921000Y-90557716D01*
X138941176Y-90659145D01*
X138980751Y-90754689D01*
X139038206Y-90840676D01*
X139111332Y-90913802D01*
X139197319Y-90971257D01*
X139292863Y-91010832D01*
X139394292Y-91031008D01*
X139497708Y-91031008D01*
X139599137Y-91010832D01*
X139694681Y-90971257D01*
X139780668Y-90913802D01*
X139853794Y-90840676D01*
X139911249Y-90754689D01*
X139950824Y-90659145D01*
X139971000Y-90557716D01*
X139971000Y-90454300D01*
X141461000Y-90454300D01*
X141461000Y-90557716D01*
X141481176Y-90659145D01*
X141520751Y-90754689D01*
X141578206Y-90840676D01*
X141651332Y-90913802D01*
X141737319Y-90971257D01*
X141832863Y-91010832D01*
X141934292Y-91031008D01*
X142037708Y-91031008D01*
X142139137Y-91010832D01*
X142234681Y-90971257D01*
X142320668Y-90913802D01*
X142393794Y-90840676D01*
X142451249Y-90754689D01*
X142490824Y-90659145D01*
X142511000Y-90557716D01*
X142511000Y-90454300D01*
X142511000Y-90454298D01*
X142731000Y-90454298D01*
X142731000Y-90557714D01*
X142751176Y-90659143D01*
X142790751Y-90754687D01*
X142848206Y-90840674D01*
X142921332Y-90913800D01*
X143007319Y-90971255D01*
X143102863Y-91010830D01*
X143204292Y-91031006D01*
X143307708Y-91031006D01*
X143409137Y-91010830D01*
X143504681Y-90971255D01*
X143590668Y-90913800D01*
X143663794Y-90840674D01*
X143721249Y-90754687D01*
X143760824Y-90659143D01*
X143781000Y-90557714D01*
X143781000Y-90454298D01*
X143781000Y-90454296D01*
X144001000Y-90454296D01*
X144001000Y-90557712D01*
X144021176Y-90659141D01*
X144060751Y-90754685D01*
X144118206Y-90840672D01*
X144191332Y-90913798D01*
X144277319Y-90971253D01*
X144372863Y-91010828D01*
X144474292Y-91031004D01*
X144577708Y-91031004D01*
X144679137Y-91010828D01*
X144774681Y-90971253D01*
X144860668Y-90913798D01*
X144933794Y-90840672D01*
X144991249Y-90754685D01*
X145030824Y-90659141D01*
X145051000Y-90557712D01*
X145051000Y-90454296D01*
X145050998Y-90454284D01*
X145271000Y-90454284D01*
X145271000Y-90557700D01*
X145291176Y-90659129D01*
X145330751Y-90754673D01*
X145388206Y-90840660D01*
X145461332Y-90913786D01*
X145547319Y-90971241D01*
X145642863Y-91010816D01*
X145744292Y-91030992D01*
X145847708Y-91030992D01*
X145949137Y-91010816D01*
X146044681Y-90971241D01*
X146130668Y-90913786D01*
X146203794Y-90840660D01*
X146261249Y-90754673D01*
X146300824Y-90659129D01*
X146321000Y-90557700D01*
X146321000Y-90454300D01*
X146541000Y-90454300D01*
X146541000Y-90557716D01*
X146561176Y-90659145D01*
X146600751Y-90754689D01*
X146658206Y-90840676D01*
X146731332Y-90913802D01*
X146817319Y-90971257D01*
X146912863Y-91010832D01*
X147014292Y-91031008D01*
X147117708Y-91031008D01*
X147219137Y-91010832D01*
X147314681Y-90971257D01*
X147400668Y-90913802D01*
X147473794Y-90840676D01*
X147531249Y-90754689D01*
X147570824Y-90659145D01*
X147591000Y-90557716D01*
X147591000Y-90454300D01*
X147591000Y-90454296D01*
X147811000Y-90454296D01*
X147811000Y-90557712D01*
X147831176Y-90659141D01*
X147870751Y-90754685D01*
X147928206Y-90840672D01*
X148001332Y-90913798D01*
X148087319Y-90971253D01*
X148182863Y-91010828D01*
X148284292Y-91031004D01*
X148387708Y-91031004D01*
X148489137Y-91010828D01*
X148584681Y-90971253D01*
X148670668Y-90913798D01*
X148743794Y-90840672D01*
X148801249Y-90754685D01*
X148840824Y-90659141D01*
X148861000Y-90557712D01*
X148861000Y-90454296D01*
X148861000Y-90454292D01*
X149081000Y-90454292D01*
X149081000Y-90557708D01*
X149101176Y-90659137D01*
X149140751Y-90754681D01*
X149198206Y-90840668D01*
X149271332Y-90913794D01*
X149357319Y-90971249D01*
X149452863Y-91010824D01*
X149554292Y-91031000D01*
X149657708Y-91031000D01*
X149759137Y-91010824D01*
X149854681Y-90971249D01*
X149940668Y-90913794D01*
X150013794Y-90840668D01*
X150071249Y-90754681D01*
X150110824Y-90659137D01*
X150131000Y-90557708D01*
X150131000Y-90454292D01*
X150351000Y-90454292D01*
X150351000Y-90557708D01*
X150371176Y-90659137D01*
X150410751Y-90754681D01*
X150468206Y-90840668D01*
X150541332Y-90913794D01*
X150627319Y-90971249D01*
X150722863Y-91010824D01*
X150824292Y-91031000D01*
X150927708Y-91031000D01*
X151029137Y-91010824D01*
X151124681Y-90971249D01*
X151210668Y-90913794D01*
X151283794Y-90840668D01*
X151341249Y-90754681D01*
X151380824Y-90659137D01*
X151401000Y-90557708D01*
X151401000Y-90454292D01*
X151621000Y-90454292D01*
X151621000Y-90557708D01*
X151641176Y-90659137D01*
X151680751Y-90754681D01*
X151738206Y-90840668D01*
X151811332Y-90913794D01*
X151897319Y-90971249D01*
X151992863Y-91010824D01*
X152094292Y-91031000D01*
X152197708Y-91031000D01*
X152299137Y-91010824D01*
X152394681Y-90971249D01*
X152480668Y-90913794D01*
X152553794Y-90840668D01*
X152611249Y-90754681D01*
X152650824Y-90659137D01*
X152671000Y-90557708D01*
X152671000Y-90454292D01*
X152670999Y-90454284D01*
X152891000Y-90454284D01*
X152891000Y-90557700D01*
X152911176Y-90659129D01*
X152950751Y-90754673D01*
X153008206Y-90840660D01*
X153081332Y-90913786D01*
X153167319Y-90971241D01*
X153262863Y-91010816D01*
X153364292Y-91030992D01*
X153467708Y-91030992D01*
X153569137Y-91010816D01*
X153664681Y-90971241D01*
X153750668Y-90913786D01*
X153823794Y-90840660D01*
X153881249Y-90754673D01*
X153920824Y-90659129D01*
X153941000Y-90557700D01*
X153941000Y-90454284D01*
X153940999Y-90454276D01*
X154161000Y-90454276D01*
X154161000Y-90557692D01*
X154181176Y-90659121D01*
X154220751Y-90754665D01*
X154278206Y-90840652D01*
X154351332Y-90913778D01*
X154437319Y-90971233D01*
X154532863Y-91010808D01*
X154634292Y-91030984D01*
X154737708Y-91030984D01*
X154839137Y-91010808D01*
X154934681Y-90971233D01*
X155020668Y-90913778D01*
X155093794Y-90840652D01*
X155151249Y-90754665D01*
X155190824Y-90659121D01*
X155211000Y-90557692D01*
X155211000Y-90454288D01*
X156701000Y-90454288D01*
X156701000Y-90557704D01*
X156721176Y-90659133D01*
X156760751Y-90754677D01*
X156818206Y-90840664D01*
X156891332Y-90913790D01*
X156977319Y-90971245D01*
X157072863Y-91010820D01*
X157174292Y-91030996D01*
X157277708Y-91030996D01*
X157379137Y-91010820D01*
X157474681Y-90971245D01*
X157560668Y-90913790D01*
X157633794Y-90840664D01*
X157691249Y-90754677D01*
X157730824Y-90659133D01*
X157751000Y-90557704D01*
X157751000Y-90454288D01*
X157751000Y-90454286D01*
X157971000Y-90454286D01*
X157971000Y-90557702D01*
X157991176Y-90659131D01*
X158030751Y-90754675D01*
X158088206Y-90840662D01*
X158161332Y-90913788D01*
X158247319Y-90971243D01*
X158342863Y-91010818D01*
X158444292Y-91030994D01*
X158547708Y-91030994D01*
X158649137Y-91010818D01*
X158744681Y-90971243D01*
X158830668Y-90913788D01*
X158903794Y-90840662D01*
X158961249Y-90754675D01*
X159000824Y-90659131D01*
X159021000Y-90557702D01*
X159021000Y-90454296D01*
X159241000Y-90454296D01*
X159241000Y-90557712D01*
X159261176Y-90659141D01*
X159300751Y-90754685D01*
X159358206Y-90840672D01*
X159431332Y-90913798D01*
X159517319Y-90971253D01*
X159612863Y-91010828D01*
X159714292Y-91031004D01*
X159817708Y-91031004D01*
X159919137Y-91010828D01*
X160014681Y-90971253D01*
X160100668Y-90913798D01*
X160173794Y-90840672D01*
X160231249Y-90754685D01*
X160270824Y-90659141D01*
X160291000Y-90557712D01*
X160291000Y-90454322D01*
X160511000Y-90454322D01*
X160511000Y-90557738D01*
X160531176Y-90659167D01*
X160570751Y-90754711D01*
X160628206Y-90840698D01*
X160701332Y-90913824D01*
X160787319Y-90971279D01*
X160882863Y-91010854D01*
X160984292Y-91031030D01*
X161087708Y-91031030D01*
X161189137Y-91010854D01*
X161284681Y-90971279D01*
X161370668Y-90913824D01*
X161443794Y-90840698D01*
X161501249Y-90754711D01*
X161540824Y-90659167D01*
X161561000Y-90557738D01*
X161561000Y-90454322D01*
X161540824Y-90352893D01*
X161501249Y-90257349D01*
X161443794Y-90171362D01*
X161370668Y-90098236D01*
X161284681Y-90040781D01*
X161189137Y-90001206D01*
X161087708Y-89981030D01*
X160984292Y-89981030D01*
X160882863Y-90001206D01*
X160787319Y-90040781D01*
X160701332Y-90098236D01*
X160628206Y-90171362D01*
X160570751Y-90257349D01*
X160531176Y-90352893D01*
X160511000Y-90454322D01*
X160291000Y-90454322D01*
X160291000Y-90454296D01*
X160270824Y-90352867D01*
X160231249Y-90257323D01*
X160173794Y-90171336D01*
X160100668Y-90098210D01*
X160014681Y-90040755D01*
X159919137Y-90001180D01*
X159817708Y-89981004D01*
X159714292Y-89981004D01*
X159612863Y-90001180D01*
X159517319Y-90040755D01*
X159431332Y-90098210D01*
X159358206Y-90171336D01*
X159300751Y-90257323D01*
X159261176Y-90352867D01*
X159241000Y-90454296D01*
X159021000Y-90454296D01*
X159021000Y-90454286D01*
X159000824Y-90352857D01*
X158961249Y-90257313D01*
X158903794Y-90171326D01*
X158830668Y-90098200D01*
X158744681Y-90040745D01*
X158649137Y-90001170D01*
X158547708Y-89980994D01*
X158444292Y-89980994D01*
X158342863Y-90001170D01*
X158247319Y-90040745D01*
X158161332Y-90098200D01*
X158088206Y-90171326D01*
X158030751Y-90257313D01*
X157991176Y-90352857D01*
X157971000Y-90454286D01*
X157751000Y-90454286D01*
X157730824Y-90352859D01*
X157691249Y-90257315D01*
X157633794Y-90171328D01*
X157560668Y-90098202D01*
X157474681Y-90040747D01*
X157379137Y-90001172D01*
X157277708Y-89980996D01*
X157174292Y-89980996D01*
X157072863Y-90001172D01*
X156977319Y-90040747D01*
X156891332Y-90098202D01*
X156818206Y-90171328D01*
X156760751Y-90257315D01*
X156721176Y-90352859D01*
X156701000Y-90454288D01*
X155211000Y-90454288D01*
X155211000Y-90454276D01*
X155190824Y-90352847D01*
X155151249Y-90257303D01*
X155093794Y-90171316D01*
X155020668Y-90098190D01*
X154934681Y-90040735D01*
X154839137Y-90001160D01*
X154737708Y-89980984D01*
X154634292Y-89980984D01*
X154532863Y-90001160D01*
X154437319Y-90040735D01*
X154351332Y-90098190D01*
X154278206Y-90171316D01*
X154220751Y-90257303D01*
X154181176Y-90352847D01*
X154161000Y-90454276D01*
X153940999Y-90454276D01*
X153920824Y-90352855D01*
X153881249Y-90257311D01*
X153823794Y-90171324D01*
X153750668Y-90098198D01*
X153664681Y-90040743D01*
X153569137Y-90001168D01*
X153467708Y-89980992D01*
X153364292Y-89980992D01*
X153262863Y-90001168D01*
X153167319Y-90040743D01*
X153081332Y-90098198D01*
X153008206Y-90171324D01*
X152950751Y-90257311D01*
X152911176Y-90352855D01*
X152891000Y-90454284D01*
X152670999Y-90454284D01*
X152650824Y-90352863D01*
X152611249Y-90257319D01*
X152553794Y-90171332D01*
X152480668Y-90098206D01*
X152394681Y-90040751D01*
X152299137Y-90001176D01*
X152197708Y-89981000D01*
X152094292Y-89981000D01*
X151992863Y-90001176D01*
X151897319Y-90040751D01*
X151811332Y-90098206D01*
X151738206Y-90171332D01*
X151680751Y-90257319D01*
X151641176Y-90352863D01*
X151621000Y-90454292D01*
X151401000Y-90454292D01*
X151380824Y-90352863D01*
X151341249Y-90257319D01*
X151283794Y-90171332D01*
X151210668Y-90098206D01*
X151124681Y-90040751D01*
X151029137Y-90001176D01*
X150927708Y-89981000D01*
X150824292Y-89981000D01*
X150722863Y-90001176D01*
X150627319Y-90040751D01*
X150541332Y-90098206D01*
X150468206Y-90171332D01*
X150410751Y-90257319D01*
X150371176Y-90352863D01*
X150351000Y-90454292D01*
X150131000Y-90454292D01*
X150110824Y-90352863D01*
X150071249Y-90257319D01*
X150013794Y-90171332D01*
X149940668Y-90098206D01*
X149854681Y-90040751D01*
X149759137Y-90001176D01*
X149657708Y-89981000D01*
X149554292Y-89981000D01*
X149452863Y-90001176D01*
X149357319Y-90040751D01*
X149271332Y-90098206D01*
X149198206Y-90171332D01*
X149140751Y-90257319D01*
X149101176Y-90352863D01*
X149081000Y-90454292D01*
X148861000Y-90454292D01*
X148840824Y-90352867D01*
X148801249Y-90257323D01*
X148743794Y-90171336D01*
X148670668Y-90098210D01*
X148584681Y-90040755D01*
X148489137Y-90001180D01*
X148387708Y-89981004D01*
X148284292Y-89981004D01*
X148182863Y-90001180D01*
X148087319Y-90040755D01*
X148001332Y-90098210D01*
X147928206Y-90171336D01*
X147870751Y-90257323D01*
X147831176Y-90352867D01*
X147811000Y-90454296D01*
X147591000Y-90454296D01*
X147570824Y-90352871D01*
X147531249Y-90257327D01*
X147473794Y-90171340D01*
X147400668Y-90098214D01*
X147314681Y-90040759D01*
X147219137Y-90001184D01*
X147117708Y-89981008D01*
X147014292Y-89981008D01*
X146912863Y-90001184D01*
X146817319Y-90040759D01*
X146731332Y-90098214D01*
X146658206Y-90171340D01*
X146600751Y-90257327D01*
X146561176Y-90352871D01*
X146541000Y-90454300D01*
X146321000Y-90454300D01*
X146321000Y-90454284D01*
X146300824Y-90352855D01*
X146261249Y-90257311D01*
X146203794Y-90171324D01*
X146130668Y-90098198D01*
X146044681Y-90040743D01*
X145949137Y-90001168D01*
X145847708Y-89980992D01*
X145744292Y-89980992D01*
X145642863Y-90001168D01*
X145547319Y-90040743D01*
X145461332Y-90098198D01*
X145388206Y-90171324D01*
X145330751Y-90257311D01*
X145291176Y-90352855D01*
X145271000Y-90454284D01*
X145050998Y-90454284D01*
X145030824Y-90352867D01*
X144991249Y-90257323D01*
X144933794Y-90171336D01*
X144860668Y-90098210D01*
X144774681Y-90040755D01*
X144679137Y-90001180D01*
X144577708Y-89981004D01*
X144474292Y-89981004D01*
X144372863Y-90001180D01*
X144277319Y-90040755D01*
X144191332Y-90098210D01*
X144118206Y-90171336D01*
X144060751Y-90257323D01*
X144021176Y-90352867D01*
X144001000Y-90454296D01*
X143781000Y-90454296D01*
X143760824Y-90352869D01*
X143721249Y-90257325D01*
X143663794Y-90171338D01*
X143590668Y-90098212D01*
X143504681Y-90040757D01*
X143409137Y-90001182D01*
X143307708Y-89981006D01*
X143204292Y-89981006D01*
X143102863Y-90001182D01*
X143007319Y-90040757D01*
X142921332Y-90098212D01*
X142848206Y-90171338D01*
X142790751Y-90257325D01*
X142751176Y-90352869D01*
X142731000Y-90454298D01*
X142511000Y-90454298D01*
X142490824Y-90352871D01*
X142451249Y-90257327D01*
X142393794Y-90171340D01*
X142320668Y-90098214D01*
X142234681Y-90040759D01*
X142139137Y-90001184D01*
X142037708Y-89981008D01*
X141934292Y-89981008D01*
X141832863Y-90001184D01*
X141737319Y-90040759D01*
X141651332Y-90098214D01*
X141578206Y-90171340D01*
X141520751Y-90257327D01*
X141481176Y-90352871D01*
X141461000Y-90454300D01*
X139971000Y-90454300D01*
X139950824Y-90352871D01*
X139911249Y-90257327D01*
X139853794Y-90171340D01*
X139780668Y-90098214D01*
X139694681Y-90040759D01*
X139599137Y-90001184D01*
X139497708Y-89981008D01*
X139394292Y-89981008D01*
X139292863Y-90001184D01*
X139197319Y-90040759D01*
X139111332Y-90098214D01*
X139038206Y-90171340D01*
X138980751Y-90257327D01*
X138941176Y-90352871D01*
X138921000Y-90454300D01*
X138701000Y-90454300D01*
X138701000Y-90454284D01*
X138680824Y-90352855D01*
X138641249Y-90257311D01*
X138583794Y-90171324D01*
X138510668Y-90098198D01*
X138424681Y-90040743D01*
X138329137Y-90001168D01*
X138227708Y-89980992D01*
X138124292Y-89980992D01*
X138022863Y-90001168D01*
X137927319Y-90040743D01*
X137841332Y-90098198D01*
X137768206Y-90171324D01*
X137710751Y-90257311D01*
X137671176Y-90352855D01*
X137651000Y-90454284D01*
X137431000Y-90454284D01*
X137431000Y-90454282D01*
X137410824Y-90352853D01*
X137371249Y-90257309D01*
X137313794Y-90171322D01*
X137240668Y-90098196D01*
X137154681Y-90040741D01*
X137059137Y-90001166D01*
X136957708Y-89980990D01*
X136854292Y-89980990D01*
X136752863Y-90001166D01*
X136657319Y-90040741D01*
X136571332Y-90098196D01*
X136498206Y-90171322D01*
X136440751Y-90257309D01*
X136401176Y-90352853D01*
X136381000Y-90454282D01*
X133495164Y-90454282D01*
X133384328Y-90186703D01*
X133077902Y-89728104D01*
X132687896Y-89338098D01*
X132229297Y-89031672D01*
X131828859Y-88865805D01*
X165979155Y-88865799D01*
X165578703Y-89031672D01*
M02*
