G04 #@! TF.GenerationSoftware,KiCad,Pcbnew,(5.1.6)-1*
G04 #@! TF.CreationDate,2020-11-06T20:35:05+01:00*
G04 #@! TF.ProjectId,DynOSSAT-EDU-Comms,44796e4f-5353-4415-942d-4544552d436f,rev?*
G04 #@! TF.SameCoordinates,Original*
G04 #@! TF.FileFunction,Paste,Bot*
G04 #@! TF.FilePolarity,Positive*
%FSLAX46Y46*%
G04 Gerber Fmt 4.6, Leading zero omitted, Abs format (unit mm)*
G04 Created by KiCad (PCBNEW (5.1.6)-1) date 2020-11-06 20:35:05*
%MOMM*%
%LPD*%
G01*
G04 APERTURE LIST*
%ADD10R,0.750000X2.100000*%
G04 APERTURE END LIST*
D10*
X136906000Y-94256000D03*
X136906000Y-90656000D03*
X138176000Y-94256000D03*
X138176000Y-90656000D03*
X139446000Y-94256000D03*
X139446000Y-90656000D03*
X140716000Y-94256000D03*
X140716000Y-90656000D03*
X141986000Y-94256000D03*
X141986000Y-90656000D03*
X143256000Y-94256000D03*
X143256000Y-90656000D03*
X144526000Y-94256000D03*
X144526000Y-90656000D03*
X145796000Y-94256000D03*
X145796000Y-90656000D03*
X147066000Y-94256000D03*
X147066000Y-90656000D03*
X148336000Y-94256000D03*
X148336000Y-90656000D03*
X149606000Y-94256000D03*
X149606000Y-90656000D03*
X150876000Y-94256000D03*
X150876000Y-90656000D03*
X152146000Y-94256000D03*
X152146000Y-90656000D03*
X153416000Y-94256000D03*
X153416000Y-90656000D03*
X154686000Y-94256000D03*
X154686000Y-90656000D03*
X155956000Y-94256000D03*
X155956000Y-90656000D03*
X157226000Y-94256000D03*
X157226000Y-90656000D03*
X158496000Y-94256000D03*
X158496000Y-90656000D03*
X159766000Y-94256000D03*
X159766000Y-90656000D03*
X161036000Y-94256000D03*
X161036000Y-90656000D03*
M02*
