M48
; DRILL file {KiCad (5.1.6)-1} date 11/06/20 20:35:08
; FORMAT={3:3/ absolute / metric / suppress leading zeros}
; #@! TF.CreationDate,2020-11-06T20:35:08+01:00
; #@! TF.GenerationSoftware,Kicad,Pcbnew,(5.1.6)-1
; #@! TF.FileFunction,Plated,1,4,PTH
FMAT,2
METRIC,TZ
T1C0.300
T2C0.500
T3C0.600
T4C1.000
T5C2.500
%
G90
G05
T1
X133022Y-121182
X133223Y-104140
X133604Y-111760
X133604Y-116840
X134010Y-99644
X134874Y-111760
X134874Y-116840
X135509Y-119507
X136271Y-100889
X136347Y-102616
X136398Y-119507
X136906Y-90506
X136906Y-94406
X137160Y-119507
X138176Y-90506
X138176Y-94406
X138176Y-107351
X139446Y-90506
X139446Y-94406
X139482Y-105410
X139954Y-114046
X140208Y-103378
X140589Y-107188
X140716Y-90506
X140716Y-94406
X140741Y-100152
X140741Y-120294
X141478Y-97282
X141912Y-107516
X141986Y-90506
X141986Y-94406
X141986Y-112014
X141986Y-114554
X142570Y-98958
X142748Y-117221
X143154Y-105613
X143256Y-90506
X143256Y-94406
X143273Y-115951
X144526Y-90506
X144526Y-94406
X145525Y-106028
X145578Y-102525
X145669Y-123190
X145796Y-90506
X145796Y-94406
X146050Y-110490
X146253Y-100076
X146964Y-106045
X147066Y-90506
X147066Y-94406
X147549Y-102794
X147650Y-120557
X148082Y-96393
X148209Y-123317
X148260Y-102133
X148336Y-90506
X148336Y-94406
X148526Y-97854
X148844Y-110490
X148844Y-120396
X149034Y-104203
X149098Y-116332
X149606Y-90506
X149606Y-94406
X149670Y-103632
X149733Y-96266
X149885Y-98298
X150343Y-104902
X150876Y-90506
X150876Y-94406
X150952Y-102870
X151003Y-96393
X151384Y-108204
X152146Y-90506
X152146Y-94406
X152273Y-108331
X152654Y-120396
X152857Y-96317
X153352Y-97981
X153416Y-90506
X153416Y-94361
X153543Y-104013
X153899Y-96368
X154330Y-97511
X154534Y-103302
X154686Y-90506
X154686Y-94406
X155257Y-108014
X155321Y-101283
X155321Y-125476
X155956Y-90506
X155956Y-94406
X156337Y-103988
X156845Y-125501
X156972Y-101600
X157226Y-90506
X157226Y-94406
X157378Y-120421
X157734Y-99187
X158496Y-90506
X158496Y-94406
X159258Y-101600
X159258Y-110490
X159258Y-113284
X159258Y-116332
X159258Y-119888
X159322Y-108268
X159766Y-90506
X159766Y-94406
X161036Y-90506
X161036Y-94406
X161798Y-101600
X162814Y-94742
X163068Y-116332
X164135Y-94234
X164338Y-98552
X164592Y-104394
X164592Y-105918
X164846Y-108204
X164846Y-108966
X164846Y-109728
X164846Y-110490
X165608Y-104394
X165608Y-105918
X165862Y-107442
X165862Y-110998
X166370Y-104140
X166370Y-106934
X166624Y-110998
X167132Y-104140
X167386Y-110998
X167894Y-104140
X168148Y-110998
X168656Y-104140
X168656Y-106934
X168910Y-110998
T2
X129028Y-127508
X129577Y-126182
X129577Y-128834
X130903Y-125633
X130903Y-129383
X132229Y-126182
X132229Y-128834
X132778Y-127508
X165030Y-91513
X165579Y-90187
X165579Y-92839
X166905Y-89638
X166905Y-93388
X168231Y-90187
X168231Y-92839
X168780Y-91513
X129028Y-91513
X129577Y-90187
X129577Y-92839
X130903Y-89638
X130903Y-93388
X132229Y-90187
X132229Y-92839
X132778Y-91513
X165030Y-127508
X165579Y-126182
X165579Y-128834
X166905Y-125633
X166905Y-129383
X168231Y-126182
X168231Y-128834
X168780Y-127508
T4
X138811Y-127914
X141351Y-127914
X143891Y-127914
X146431Y-127914
X148971Y-127914
X151511Y-127914
X154051Y-127914
X156591Y-127914
X159131Y-127914
T5
X166905Y-91513
X166905Y-127508
X130903Y-127508
X130903Y-91513
T3
G00X130829Y-97342
M15
G01X130229Y-97342
M16
G05
G00X130829Y-105982
M15
G01X130229Y-105982
M16
G05
G00X135259Y-97346
M15
G01X134159Y-97346
M16
G05
G00X135259Y-105986
M15
G01X134159Y-105986
M16
G05
T0
M30
