G04 #@! TF.GenerationSoftware,KiCad,Pcbnew,(5.1.6)-1*
G04 #@! TF.CreationDate,2020-10-15T10:51:02+02:00*
G04 #@! TF.ProjectId,DynOSSAT-EDU-Comms,44796e4f-5353-4415-942d-4544552d436f,rev?*
G04 #@! TF.SameCoordinates,Original*
G04 #@! TF.FileFunction,Other,Fab,Top*
%FSLAX46Y46*%
G04 Gerber Fmt 4.6, Leading zero omitted, Abs format (unit mm)*
G04 Created by KiCad (PCBNEW (5.1.6)-1) date 2020-10-15 10:51:02*
%MOMM*%
%LPD*%
G01*
G04 APERTURE LIST*
%ADD10C,0.150000*%
%ADD11C,0.100000*%
%ADD12C,0.120000*%
%ADD13C,0.060000*%
%ADD14C,0.040000*%
%ADD15C,0.090000*%
%ADD16C,0.075000*%
G04 APERTURE END LIST*
D10*
X137645857Y-117068485D02*
X138617285Y-117068485D01*
X138731571Y-117011342D01*
X138788714Y-116954200D01*
X138845857Y-116839914D01*
X138845857Y-116611342D01*
X138788714Y-116497057D01*
X138731571Y-116439914D01*
X138617285Y-116382771D01*
X137645857Y-116382771D01*
X137645857Y-115925628D02*
X137645857Y-115182771D01*
X138103000Y-115582771D01*
X138103000Y-115411342D01*
X138160142Y-115297057D01*
X138217285Y-115239914D01*
X138331571Y-115182771D01*
X138617285Y-115182771D01*
X138731571Y-115239914D01*
X138788714Y-115297057D01*
X138845857Y-115411342D01*
X138845857Y-115754200D01*
X138788714Y-115868485D01*
X138731571Y-115925628D01*
D11*
X161236000Y-89706000D02*
X161236000Y-90751000D01*
X160836000Y-89706000D02*
X161236000Y-89706000D01*
X160836000Y-90751000D02*
X160836000Y-89706000D01*
X161236000Y-95206000D02*
X161236000Y-94161000D01*
X160836000Y-95206000D02*
X161236000Y-95206000D01*
X160836000Y-94161000D02*
X160836000Y-95206000D01*
X159966000Y-89706000D02*
X159966000Y-90751000D01*
X159566000Y-89706000D02*
X159966000Y-89706000D01*
X159566000Y-90751000D02*
X159566000Y-89706000D01*
X159966000Y-95206000D02*
X159966000Y-94161000D01*
X159566000Y-95206000D02*
X159966000Y-95206000D01*
X159566000Y-94161000D02*
X159566000Y-95206000D01*
X158696000Y-89706000D02*
X158696000Y-90751000D01*
X158296000Y-89706000D02*
X158696000Y-89706000D01*
X158296000Y-90751000D02*
X158296000Y-89706000D01*
X158696000Y-95206000D02*
X158696000Y-94161000D01*
X158296000Y-95206000D02*
X158696000Y-95206000D01*
X158296000Y-94161000D02*
X158296000Y-95206000D01*
X157426000Y-89706000D02*
X157426000Y-90751000D01*
X157026000Y-89706000D02*
X157426000Y-89706000D01*
X157026000Y-90751000D02*
X157026000Y-89706000D01*
X157426000Y-95206000D02*
X157426000Y-94161000D01*
X157026000Y-95206000D02*
X157426000Y-95206000D01*
X157026000Y-94161000D02*
X157026000Y-95206000D01*
X156156000Y-89706000D02*
X156156000Y-90751000D01*
X155756000Y-89706000D02*
X156156000Y-89706000D01*
X155756000Y-90751000D02*
X155756000Y-89706000D01*
X156156000Y-95206000D02*
X156156000Y-94161000D01*
X155756000Y-95206000D02*
X156156000Y-95206000D01*
X155756000Y-94161000D02*
X155756000Y-95206000D01*
X154886000Y-89706000D02*
X154886000Y-90751000D01*
X154486000Y-89706000D02*
X154886000Y-89706000D01*
X154486000Y-90751000D02*
X154486000Y-89706000D01*
X154886000Y-95206000D02*
X154886000Y-94161000D01*
X154486000Y-95206000D02*
X154886000Y-95206000D01*
X154486000Y-94161000D02*
X154486000Y-95206000D01*
X153616000Y-89706000D02*
X153616000Y-90751000D01*
X153216000Y-89706000D02*
X153616000Y-89706000D01*
X153216000Y-90751000D02*
X153216000Y-89706000D01*
X153616000Y-95206000D02*
X153616000Y-94161000D01*
X153216000Y-95206000D02*
X153616000Y-95206000D01*
X153216000Y-94161000D02*
X153216000Y-95206000D01*
X152346000Y-89706000D02*
X152346000Y-90751000D01*
X151946000Y-89706000D02*
X152346000Y-89706000D01*
X151946000Y-90751000D02*
X151946000Y-89706000D01*
X152346000Y-95206000D02*
X152346000Y-94161000D01*
X151946000Y-95206000D02*
X152346000Y-95206000D01*
X151946000Y-94161000D02*
X151946000Y-95206000D01*
X151076000Y-89706000D02*
X151076000Y-90751000D01*
X150676000Y-89706000D02*
X151076000Y-89706000D01*
X150676000Y-90751000D02*
X150676000Y-89706000D01*
X151076000Y-95206000D02*
X151076000Y-94161000D01*
X150676000Y-95206000D02*
X151076000Y-95206000D01*
X150676000Y-94161000D02*
X150676000Y-95206000D01*
X149806000Y-89706000D02*
X149806000Y-90751000D01*
X149406000Y-89706000D02*
X149806000Y-89706000D01*
X149406000Y-90751000D02*
X149406000Y-89706000D01*
X149806000Y-95206000D02*
X149806000Y-94161000D01*
X149406000Y-95206000D02*
X149806000Y-95206000D01*
X149406000Y-94161000D02*
X149406000Y-95206000D01*
X148536000Y-89706000D02*
X148536000Y-90751000D01*
X148136000Y-89706000D02*
X148536000Y-89706000D01*
X148136000Y-90751000D02*
X148136000Y-89706000D01*
X148536000Y-95206000D02*
X148536000Y-94161000D01*
X148136000Y-95206000D02*
X148536000Y-95206000D01*
X148136000Y-94161000D02*
X148136000Y-95206000D01*
X147266000Y-89706000D02*
X147266000Y-90751000D01*
X146866000Y-89706000D02*
X147266000Y-89706000D01*
X146866000Y-90751000D02*
X146866000Y-89706000D01*
X147266000Y-95206000D02*
X147266000Y-94161000D01*
X146866000Y-95206000D02*
X147266000Y-95206000D01*
X146866000Y-94161000D02*
X146866000Y-95206000D01*
X145996000Y-89706000D02*
X145996000Y-90751000D01*
X145596000Y-89706000D02*
X145996000Y-89706000D01*
X145596000Y-90751000D02*
X145596000Y-89706000D01*
X145996000Y-95206000D02*
X145996000Y-94161000D01*
X145596000Y-95206000D02*
X145996000Y-95206000D01*
X145596000Y-94161000D02*
X145596000Y-95206000D01*
X144726000Y-89706000D02*
X144726000Y-90751000D01*
X144326000Y-89706000D02*
X144726000Y-89706000D01*
X144326000Y-90751000D02*
X144326000Y-89706000D01*
X144726000Y-95206000D02*
X144726000Y-94161000D01*
X144326000Y-95206000D02*
X144726000Y-95206000D01*
X144326000Y-94161000D02*
X144326000Y-95206000D01*
X143456000Y-89706000D02*
X143456000Y-90751000D01*
X143056000Y-89706000D02*
X143456000Y-89706000D01*
X143056000Y-90751000D02*
X143056000Y-89706000D01*
X143456000Y-95206000D02*
X143456000Y-94161000D01*
X143056000Y-95206000D02*
X143456000Y-95206000D01*
X143056000Y-94161000D02*
X143056000Y-95206000D01*
X142186000Y-89706000D02*
X142186000Y-90751000D01*
X141786000Y-89706000D02*
X142186000Y-89706000D01*
X141786000Y-90751000D02*
X141786000Y-89706000D01*
X142186000Y-95206000D02*
X142186000Y-94161000D01*
X141786000Y-95206000D02*
X142186000Y-95206000D01*
X141786000Y-94161000D02*
X141786000Y-95206000D01*
X140916000Y-89706000D02*
X140916000Y-90751000D01*
X140516000Y-89706000D02*
X140916000Y-89706000D01*
X140516000Y-90751000D02*
X140516000Y-89706000D01*
X140916000Y-95206000D02*
X140916000Y-94161000D01*
X140516000Y-95206000D02*
X140916000Y-95206000D01*
X140516000Y-94161000D02*
X140516000Y-95206000D01*
X139646000Y-89706000D02*
X139646000Y-90751000D01*
X139246000Y-89706000D02*
X139646000Y-89706000D01*
X139246000Y-90751000D02*
X139246000Y-89706000D01*
X139646000Y-95206000D02*
X139646000Y-94161000D01*
X139246000Y-95206000D02*
X139646000Y-95206000D01*
X139246000Y-94161000D02*
X139246000Y-95206000D01*
X138376000Y-89706000D02*
X138376000Y-90751000D01*
X137976000Y-89706000D02*
X138376000Y-89706000D01*
X137976000Y-90751000D02*
X137976000Y-89706000D01*
X138376000Y-95206000D02*
X138376000Y-94161000D01*
X137976000Y-95206000D02*
X138376000Y-95206000D01*
X137976000Y-94161000D02*
X137976000Y-95206000D01*
X137106000Y-89706000D02*
X137106000Y-90751000D01*
X136706000Y-89706000D02*
X137106000Y-89706000D01*
X136706000Y-90751000D02*
X136706000Y-89706000D01*
X137106000Y-95206000D02*
X137106000Y-94161000D01*
X136706000Y-95206000D02*
X137106000Y-95206000D01*
X136706000Y-94161000D02*
X136706000Y-95206000D01*
X136271000Y-90751000D02*
X161671000Y-90751000D01*
X136706000Y-94161000D02*
X136271000Y-93726000D01*
X161671000Y-94161000D02*
X136706000Y-94161000D01*
X136271000Y-93726000D02*
X136271000Y-90751000D01*
X161671000Y-90751000D02*
X161671000Y-94161000D01*
X145275400Y-97809000D02*
X145275400Y-97009000D01*
X145275400Y-97009000D02*
X146875400Y-97009000D01*
X146875400Y-97009000D02*
X146875400Y-97809000D01*
X146875400Y-97809000D02*
X145275400Y-97809000D01*
X148469400Y-100876000D02*
X148469400Y-99276000D01*
X149269400Y-100876000D02*
X148469400Y-100876000D01*
X149269400Y-99276000D02*
X149269400Y-100876000D01*
X148469400Y-99276000D02*
X149269400Y-99276000D01*
X167521000Y-105380600D02*
X167521000Y-104880600D01*
X167521000Y-104880600D02*
X168521000Y-104880600D01*
X168521000Y-104880600D02*
X168521000Y-105380600D01*
X168521000Y-105380600D02*
X167521000Y-105380600D01*
X168495600Y-106345800D02*
X167495600Y-106345800D01*
X168495600Y-105845800D02*
X168495600Y-106345800D01*
X167495600Y-105845800D02*
X168495600Y-105845800D01*
X167495600Y-106345800D02*
X167495600Y-105845800D01*
X166013000Y-108414000D02*
X166213000Y-108414000D01*
X166213000Y-108414000D02*
X166213000Y-108014000D01*
X167213000Y-108014000D02*
X166213000Y-108014000D01*
X167213000Y-107764000D02*
X167213000Y-108014000D01*
X167213000Y-107764000D02*
X167663000Y-107764000D01*
X167813000Y-107914000D02*
X167813000Y-108014000D01*
X167813000Y-108014000D02*
X168813000Y-108014000D01*
X169013000Y-108414000D02*
X168813000Y-108414000D01*
X168813000Y-108414000D02*
X168813000Y-108014000D01*
X166013000Y-108414000D02*
X166013000Y-110214000D01*
X166013000Y-110214000D02*
X166213000Y-110214000D01*
X166213000Y-110614000D02*
X166213000Y-110214000D01*
X168813000Y-110614000D02*
X166213000Y-110614000D01*
X169013000Y-108414000D02*
X169013000Y-110214000D01*
X169013000Y-110214000D02*
X168813000Y-110214000D01*
X168813000Y-110614000D02*
X168813000Y-110214000D01*
X167813000Y-107914000D02*
X167663000Y-107764000D01*
X166297800Y-106113200D02*
X166297800Y-105113200D01*
X166797800Y-106113200D02*
X166297800Y-106113200D01*
X166797800Y-105113200D02*
X166797800Y-106113200D01*
X166297800Y-105113200D02*
X166797800Y-105113200D01*
X132541200Y-95080200D02*
X133041200Y-95080200D01*
X133041200Y-95080200D02*
X133041200Y-96080200D01*
X133041200Y-96080200D02*
X132541200Y-96080200D01*
X132541200Y-96080200D02*
X132541200Y-95080200D01*
X131474400Y-96080200D02*
X131474400Y-95080200D01*
X131974400Y-96080200D02*
X131474400Y-96080200D01*
X131974400Y-95080200D02*
X131974400Y-96080200D01*
X131474400Y-95080200D02*
X131974400Y-95080200D01*
X154110500Y-100966500D02*
X154110500Y-99566500D01*
X151070500Y-99566500D02*
X154110500Y-99566500D01*
X151640500Y-100966500D02*
X151070500Y-100416500D01*
X151070500Y-100416500D02*
X151070500Y-99566500D01*
X151640500Y-100966500D02*
X154090500Y-100966500D01*
X153484200Y-102493000D02*
X153484200Y-102993000D01*
X153484200Y-102993000D02*
X152484200Y-102993000D01*
X152484200Y-102993000D02*
X152484200Y-102493000D01*
X152484200Y-102493000D02*
X153484200Y-102493000D01*
X134751000Y-127754000D02*
X134751000Y-126754000D01*
X135251000Y-127754000D02*
X134751000Y-127754000D01*
X135251000Y-126754000D02*
X135251000Y-127754000D01*
X134751000Y-126754000D02*
X135251000Y-126754000D01*
X143912400Y-103767000D02*
X143912400Y-104767000D01*
X143412400Y-103767000D02*
X143912400Y-103767000D01*
X143412400Y-104767000D02*
X143412400Y-103767000D01*
X143912400Y-104767000D02*
X143412400Y-104767000D01*
X162617200Y-91020800D02*
X163417200Y-91020800D01*
X162617200Y-89420800D02*
X162617200Y-91020800D01*
X163117200Y-89420800D02*
X162617200Y-89420800D01*
X163417200Y-89720800D02*
X163117200Y-89420800D01*
X163417200Y-91020800D02*
X163417200Y-89720800D01*
X139384000Y-97540000D02*
X137984000Y-97540000D01*
X137984000Y-100580000D02*
X137984000Y-97540000D01*
X139384000Y-100010000D02*
X138834000Y-100580000D01*
X138834000Y-100580000D02*
X137984000Y-100580000D01*
X139384000Y-100010000D02*
X139384000Y-97560000D01*
X165078600Y-99957000D02*
X165578600Y-99957000D01*
X165578600Y-99957000D02*
X165578600Y-100957000D01*
X165578600Y-100957000D02*
X165078600Y-100957000D01*
X165078600Y-100957000D02*
X165078600Y-99957000D01*
X145190400Y-103767000D02*
X145690400Y-103767000D01*
X145690400Y-103767000D02*
X145690400Y-104767000D01*
X145690400Y-104767000D02*
X145190400Y-104767000D01*
X145190400Y-104767000D02*
X145190400Y-103767000D01*
X146714400Y-104767000D02*
X146714400Y-103767000D01*
X147214400Y-104767000D02*
X146714400Y-104767000D01*
X147214400Y-103767000D02*
X147214400Y-104767000D01*
X146714400Y-103767000D02*
X147214400Y-103767000D01*
X143633000Y-99576000D02*
X143633000Y-100576000D01*
X143133000Y-99576000D02*
X143633000Y-99576000D01*
X143133000Y-100576000D02*
X143133000Y-99576000D01*
X143633000Y-100576000D02*
X143133000Y-100576000D01*
X139819000Y-101223000D02*
X139819000Y-101723000D01*
X139819000Y-101723000D02*
X138819000Y-101723000D01*
X138819000Y-101723000D02*
X138819000Y-101223000D01*
X138819000Y-101223000D02*
X139819000Y-101223000D01*
X163470400Y-92260800D02*
X163470400Y-93260800D01*
X162970400Y-92260800D02*
X163470400Y-92260800D01*
X162970400Y-93260800D02*
X162970400Y-92260800D01*
X163470400Y-93260800D02*
X162970400Y-93260800D01*
X138176000Y-129184400D02*
X137541000Y-128549400D01*
X160401000Y-129184400D02*
X138176000Y-129184400D01*
X160401000Y-126644400D02*
X160401000Y-129184400D01*
X137541000Y-126644400D02*
X160401000Y-126644400D01*
X137541000Y-128549400D02*
X137541000Y-126644400D01*
X146899200Y-98526000D02*
X146899200Y-101626000D01*
X146899200Y-101626000D02*
X145099200Y-101626000D01*
X145099200Y-99176000D02*
X145099200Y-101626000D01*
X146899200Y-98526000D02*
X145749200Y-98526000D01*
X145099200Y-99176000D02*
X145749200Y-98526000D01*
D12*
X167894000Y-102108000D02*
X167132000Y-102108000D01*
X167894000Y-102870000D02*
X167894000Y-102108000D01*
X167132000Y-95758000D02*
X167132000Y-102870000D01*
X169037000Y-95758000D02*
X167132000Y-95758000D01*
X169037000Y-95885000D02*
X169037000Y-95758000D01*
X169037000Y-102870000D02*
X169037000Y-95885000D01*
X167132000Y-102870000D02*
X169037000Y-102870000D01*
D11*
X149837000Y-120300000D02*
G75*
G03*
X149837000Y-120300000I-500000J0D01*
G01*
X148337000Y-123150000D02*
X148337000Y-105450000D01*
X148337000Y-105450000D02*
X164337000Y-105450000D01*
X164337000Y-105450000D02*
X164337000Y-123150000D01*
X164337000Y-123150000D02*
X148337000Y-123150000D01*
D10*
X139022200Y-103021000D02*
X141022200Y-103021000D01*
X141022200Y-103021000D02*
X141022200Y-106021000D01*
X141022200Y-106021000D02*
X138022200Y-106021000D01*
X138022200Y-106021000D02*
X138022200Y-104021000D01*
X138022200Y-104021000D02*
X139022200Y-103021000D01*
X148637666Y-91908380D02*
X148637666Y-92622666D01*
X148590047Y-92765523D01*
X148494809Y-92860761D01*
X148351952Y-92908380D01*
X148256714Y-92908380D01*
X149637666Y-92908380D02*
X149066238Y-92908380D01*
X149351952Y-92908380D02*
X149351952Y-91908380D01*
X149256714Y-92051238D01*
X149161476Y-92146476D01*
X149066238Y-92194095D01*
D13*
X146008733Y-97551857D02*
X145989685Y-97570904D01*
X145932542Y-97589952D01*
X145894447Y-97589952D01*
X145837304Y-97570904D01*
X145799209Y-97532809D01*
X145780161Y-97494714D01*
X145761114Y-97418523D01*
X145761114Y-97361380D01*
X145780161Y-97285190D01*
X145799209Y-97247095D01*
X145837304Y-97209000D01*
X145894447Y-97189952D01*
X145932542Y-97189952D01*
X145989685Y-97209000D01*
X146008733Y-97228047D01*
X146389685Y-97589952D02*
X146161114Y-97589952D01*
X146275400Y-97589952D02*
X146275400Y-97189952D01*
X146237304Y-97247095D01*
X146199209Y-97285190D01*
X146161114Y-97304238D01*
X149012257Y-100142666D02*
X149031304Y-100161714D01*
X149050352Y-100218857D01*
X149050352Y-100256952D01*
X149031304Y-100314095D01*
X148993209Y-100352190D01*
X148955114Y-100371238D01*
X148878923Y-100390285D01*
X148821780Y-100390285D01*
X148745590Y-100371238D01*
X148707495Y-100352190D01*
X148669400Y-100314095D01*
X148650352Y-100256952D01*
X148650352Y-100218857D01*
X148669400Y-100161714D01*
X148688447Y-100142666D01*
X148650352Y-100009333D02*
X148650352Y-99761714D01*
X148802733Y-99895047D01*
X148802733Y-99837904D01*
X148821780Y-99799809D01*
X148840828Y-99780761D01*
X148878923Y-99761714D01*
X148974161Y-99761714D01*
X149012257Y-99780761D01*
X149031304Y-99799809D01*
X149050352Y-99837904D01*
X149050352Y-99952190D01*
X149031304Y-99990285D01*
X149012257Y-100009333D01*
D14*
X167979333Y-105219885D02*
X167967428Y-105231790D01*
X167931714Y-105243695D01*
X167907904Y-105243695D01*
X167872190Y-105231790D01*
X167848380Y-105207980D01*
X167836476Y-105184171D01*
X167824571Y-105136552D01*
X167824571Y-105100838D01*
X167836476Y-105053219D01*
X167848380Y-105029409D01*
X167872190Y-105005600D01*
X167907904Y-104993695D01*
X167931714Y-104993695D01*
X167967428Y-105005600D01*
X167979333Y-105017504D01*
X168205523Y-104993695D02*
X168086476Y-104993695D01*
X168074571Y-105112742D01*
X168086476Y-105100838D01*
X168110285Y-105088933D01*
X168169809Y-105088933D01*
X168193619Y-105100838D01*
X168205523Y-105112742D01*
X168217428Y-105136552D01*
X168217428Y-105196076D01*
X168205523Y-105219885D01*
X168193619Y-105231790D01*
X168169809Y-105243695D01*
X168110285Y-105243695D01*
X168086476Y-105231790D01*
X168074571Y-105219885D01*
X167953933Y-106185085D02*
X167942028Y-106196990D01*
X167906314Y-106208895D01*
X167882504Y-106208895D01*
X167846790Y-106196990D01*
X167822980Y-106173180D01*
X167811076Y-106149371D01*
X167799171Y-106101752D01*
X167799171Y-106066038D01*
X167811076Y-106018419D01*
X167822980Y-105994609D01*
X167846790Y-105970800D01*
X167882504Y-105958895D01*
X167906314Y-105958895D01*
X167942028Y-105970800D01*
X167953933Y-105982704D01*
X168168219Y-105958895D02*
X168120600Y-105958895D01*
X168096790Y-105970800D01*
X168084885Y-105982704D01*
X168061076Y-106018419D01*
X168049171Y-106066038D01*
X168049171Y-106161276D01*
X168061076Y-106185085D01*
X168072980Y-106196990D01*
X168096790Y-106208895D01*
X168144409Y-106208895D01*
X168168219Y-106196990D01*
X168180123Y-106185085D01*
X168192028Y-106161276D01*
X168192028Y-106101752D01*
X168180123Y-106077942D01*
X168168219Y-106066038D01*
X168144409Y-106054133D01*
X168096790Y-106054133D01*
X168072980Y-106066038D01*
X168061076Y-106077942D01*
X168049171Y-106101752D01*
D15*
X167313000Y-108985428D02*
X167313000Y-109414000D01*
X167284428Y-109499714D01*
X167227285Y-109556857D01*
X167141571Y-109585428D01*
X167084428Y-109585428D01*
X167855857Y-109185428D02*
X167855857Y-109585428D01*
X167713000Y-108956857D02*
X167570142Y-109385428D01*
X167941571Y-109385428D01*
D14*
X166660895Y-105654866D02*
X166660895Y-105773914D01*
X166410895Y-105773914D01*
X166660895Y-105440580D02*
X166660895Y-105583438D01*
X166660895Y-105512009D02*
X166410895Y-105512009D01*
X166446609Y-105535819D01*
X166470419Y-105559628D01*
X166482323Y-105583438D01*
D10*
X130441095Y-91965380D02*
X130441095Y-90965380D01*
X130441095Y-91441571D02*
X131012523Y-91441571D01*
X131012523Y-91965380D02*
X131012523Y-90965380D01*
X132012523Y-91965380D02*
X131441095Y-91965380D01*
X131726809Y-91965380D02*
X131726809Y-90965380D01*
X131631571Y-91108238D01*
X131536333Y-91203476D01*
X131441095Y-91251095D01*
X166443095Y-91965380D02*
X166443095Y-90965380D01*
X166443095Y-91441571D02*
X167014523Y-91441571D01*
X167014523Y-91965380D02*
X167014523Y-90965380D01*
X167443095Y-91060619D02*
X167490714Y-91013000D01*
X167585952Y-90965380D01*
X167824047Y-90965380D01*
X167919285Y-91013000D01*
X167966904Y-91060619D01*
X168014523Y-91155857D01*
X168014523Y-91251095D01*
X167966904Y-91393952D01*
X167395476Y-91965380D01*
X168014523Y-91965380D01*
X130441095Y-127960380D02*
X130441095Y-126960380D01*
X130441095Y-127436571D02*
X131012523Y-127436571D01*
X131012523Y-127960380D02*
X131012523Y-126960380D01*
X131393476Y-126960380D02*
X132012523Y-126960380D01*
X131679190Y-127341333D01*
X131822047Y-127341333D01*
X131917285Y-127388952D01*
X131964904Y-127436571D01*
X132012523Y-127531809D01*
X132012523Y-127769904D01*
X131964904Y-127865142D01*
X131917285Y-127912761D01*
X131822047Y-127960380D01*
X131536333Y-127960380D01*
X131441095Y-127912761D01*
X131393476Y-127865142D01*
X166443095Y-127960380D02*
X166443095Y-126960380D01*
X166443095Y-127436571D02*
X167014523Y-127436571D01*
X167014523Y-127960380D02*
X167014523Y-126960380D01*
X167919285Y-127293714D02*
X167919285Y-127960380D01*
X167681190Y-126912761D02*
X167443095Y-127627047D01*
X168062142Y-127627047D01*
D14*
X132904295Y-95621866D02*
X132785247Y-95705200D01*
X132904295Y-95764723D02*
X132654295Y-95764723D01*
X132654295Y-95669485D01*
X132666200Y-95645676D01*
X132678104Y-95633771D01*
X132701914Y-95621866D01*
X132737628Y-95621866D01*
X132761438Y-95633771D01*
X132773342Y-95645676D01*
X132785247Y-95669485D01*
X132785247Y-95764723D01*
X132737628Y-95407580D02*
X132904295Y-95407580D01*
X132642390Y-95467104D02*
X132820961Y-95526628D01*
X132820961Y-95371866D01*
X131837495Y-95621866D02*
X131718447Y-95705200D01*
X131837495Y-95764723D02*
X131587495Y-95764723D01*
X131587495Y-95669485D01*
X131599400Y-95645676D01*
X131611304Y-95633771D01*
X131635114Y-95621866D01*
X131670828Y-95621866D01*
X131694638Y-95633771D01*
X131706542Y-95645676D01*
X131718447Y-95669485D01*
X131718447Y-95764723D01*
X131587495Y-95407580D02*
X131587495Y-95455200D01*
X131599400Y-95479009D01*
X131611304Y-95490914D01*
X131647019Y-95514723D01*
X131694638Y-95526628D01*
X131789876Y-95526628D01*
X131813685Y-95514723D01*
X131825590Y-95502819D01*
X131837495Y-95479009D01*
X131837495Y-95431390D01*
X131825590Y-95407580D01*
X131813685Y-95395676D01*
X131789876Y-95383771D01*
X131730352Y-95383771D01*
X131706542Y-95395676D01*
X131694638Y-95407580D01*
X131682733Y-95431390D01*
X131682733Y-95479009D01*
X131694638Y-95502819D01*
X131706542Y-95514723D01*
X131730352Y-95526628D01*
D16*
X152542880Y-100540309D02*
X152495261Y-100516500D01*
X152447642Y-100468880D01*
X152376214Y-100397452D01*
X152328595Y-100373642D01*
X152280976Y-100373642D01*
X152304785Y-100492690D02*
X152257166Y-100468880D01*
X152209547Y-100421261D01*
X152185738Y-100326023D01*
X152185738Y-100159357D01*
X152209547Y-100064119D01*
X152257166Y-100016500D01*
X152304785Y-99992690D01*
X152400023Y-99992690D01*
X152447642Y-100016500D01*
X152495261Y-100064119D01*
X152519071Y-100159357D01*
X152519071Y-100326023D01*
X152495261Y-100421261D01*
X152447642Y-100468880D01*
X152400023Y-100492690D01*
X152304785Y-100492690D01*
X152995261Y-100492690D02*
X152709547Y-100492690D01*
X152852404Y-100492690D02*
X152852404Y-99992690D01*
X152804785Y-100064119D01*
X152757166Y-100111738D01*
X152709547Y-100135547D01*
D14*
X152942533Y-102832285D02*
X152930628Y-102844190D01*
X152894914Y-102856095D01*
X152871104Y-102856095D01*
X152835390Y-102844190D01*
X152811580Y-102820380D01*
X152799676Y-102796571D01*
X152787771Y-102748952D01*
X152787771Y-102713238D01*
X152799676Y-102665619D01*
X152811580Y-102641809D01*
X152835390Y-102618000D01*
X152871104Y-102606095D01*
X152894914Y-102606095D01*
X152930628Y-102618000D01*
X152942533Y-102629904D01*
X153037771Y-102629904D02*
X153049676Y-102618000D01*
X153073485Y-102606095D01*
X153133009Y-102606095D01*
X153156819Y-102618000D01*
X153168723Y-102629904D01*
X153180628Y-102653714D01*
X153180628Y-102677523D01*
X153168723Y-102713238D01*
X153025866Y-102856095D01*
X153180628Y-102856095D01*
X135090285Y-127295666D02*
X135102190Y-127307571D01*
X135114095Y-127343285D01*
X135114095Y-127367095D01*
X135102190Y-127402809D01*
X135078380Y-127426619D01*
X135054571Y-127438523D01*
X135006952Y-127450428D01*
X134971238Y-127450428D01*
X134923619Y-127438523D01*
X134899809Y-127426619D01*
X134876000Y-127402809D01*
X134864095Y-127367095D01*
X134864095Y-127343285D01*
X134876000Y-127307571D01*
X134887904Y-127295666D01*
X134947428Y-127081380D02*
X135114095Y-127081380D01*
X134852190Y-127140904D02*
X135030761Y-127200428D01*
X135030761Y-127045666D01*
X143751685Y-104308666D02*
X143763590Y-104320571D01*
X143775495Y-104356285D01*
X143775495Y-104380095D01*
X143763590Y-104415809D01*
X143739780Y-104439619D01*
X143715971Y-104451523D01*
X143668352Y-104463428D01*
X143632638Y-104463428D01*
X143585019Y-104451523D01*
X143561209Y-104439619D01*
X143537400Y-104415809D01*
X143525495Y-104380095D01*
X143525495Y-104356285D01*
X143537400Y-104320571D01*
X143549304Y-104308666D01*
X143632638Y-104165809D02*
X143620733Y-104189619D01*
X143608828Y-104201523D01*
X143585019Y-104213428D01*
X143573114Y-104213428D01*
X143549304Y-104201523D01*
X143537400Y-104189619D01*
X143525495Y-104165809D01*
X143525495Y-104118190D01*
X143537400Y-104094380D01*
X143549304Y-104082476D01*
X143573114Y-104070571D01*
X143585019Y-104070571D01*
X143608828Y-104082476D01*
X143620733Y-104094380D01*
X143632638Y-104118190D01*
X143632638Y-104165809D01*
X143644542Y-104189619D01*
X143656447Y-104201523D01*
X143680257Y-104213428D01*
X143727876Y-104213428D01*
X143751685Y-104201523D01*
X143763590Y-104189619D01*
X143775495Y-104165809D01*
X143775495Y-104118190D01*
X143763590Y-104094380D01*
X143751685Y-104082476D01*
X143727876Y-104070571D01*
X143680257Y-104070571D01*
X143656447Y-104082476D01*
X143644542Y-104094380D01*
X143632638Y-104118190D01*
D13*
X163198152Y-90516038D02*
X162798152Y-90516038D01*
X162798152Y-90420800D01*
X162817200Y-90363657D01*
X162855295Y-90325561D01*
X162893390Y-90306514D01*
X162969580Y-90287466D01*
X163026723Y-90287466D01*
X163102914Y-90306514D01*
X163141009Y-90325561D01*
X163179104Y-90363657D01*
X163198152Y-90420800D01*
X163198152Y-90516038D01*
X163198152Y-89906514D02*
X163198152Y-90135085D01*
X163198152Y-90020800D02*
X162798152Y-90020800D01*
X162855295Y-90058895D01*
X162893390Y-90096990D01*
X162912438Y-90135085D01*
D16*
X138957809Y-99107619D02*
X138934000Y-99155238D01*
X138886380Y-99202857D01*
X138814952Y-99274285D01*
X138791142Y-99321904D01*
X138791142Y-99369523D01*
X138910190Y-99345714D02*
X138886380Y-99393333D01*
X138838761Y-99440952D01*
X138743523Y-99464761D01*
X138576857Y-99464761D01*
X138481619Y-99440952D01*
X138434000Y-99393333D01*
X138410190Y-99345714D01*
X138410190Y-99250476D01*
X138434000Y-99202857D01*
X138481619Y-99155238D01*
X138576857Y-99131428D01*
X138743523Y-99131428D01*
X138838761Y-99155238D01*
X138886380Y-99202857D01*
X138910190Y-99250476D01*
X138910190Y-99345714D01*
X138457809Y-98940952D02*
X138434000Y-98917142D01*
X138410190Y-98869523D01*
X138410190Y-98750476D01*
X138434000Y-98702857D01*
X138457809Y-98679047D01*
X138505428Y-98655238D01*
X138553047Y-98655238D01*
X138624476Y-98679047D01*
X138910190Y-98964761D01*
X138910190Y-98655238D01*
D14*
X165441695Y-100498666D02*
X165322647Y-100582000D01*
X165441695Y-100641523D02*
X165191695Y-100641523D01*
X165191695Y-100546285D01*
X165203600Y-100522476D01*
X165215504Y-100510571D01*
X165239314Y-100498666D01*
X165275028Y-100498666D01*
X165298838Y-100510571D01*
X165310742Y-100522476D01*
X165322647Y-100546285D01*
X165322647Y-100641523D01*
X165441695Y-100260571D02*
X165441695Y-100403428D01*
X165441695Y-100332000D02*
X165191695Y-100332000D01*
X165227409Y-100355809D01*
X165251219Y-100379619D01*
X165263123Y-100403428D01*
X145553495Y-104308666D02*
X145434447Y-104392000D01*
X145553495Y-104451523D02*
X145303495Y-104451523D01*
X145303495Y-104356285D01*
X145315400Y-104332476D01*
X145327304Y-104320571D01*
X145351114Y-104308666D01*
X145386828Y-104308666D01*
X145410638Y-104320571D01*
X145422542Y-104332476D01*
X145434447Y-104356285D01*
X145434447Y-104451523D01*
X145327304Y-104213428D02*
X145315400Y-104201523D01*
X145303495Y-104177714D01*
X145303495Y-104118190D01*
X145315400Y-104094380D01*
X145327304Y-104082476D01*
X145351114Y-104070571D01*
X145374923Y-104070571D01*
X145410638Y-104082476D01*
X145553495Y-104225333D01*
X145553495Y-104070571D01*
X147077495Y-104308666D02*
X146958447Y-104392000D01*
X147077495Y-104451523D02*
X146827495Y-104451523D01*
X146827495Y-104356285D01*
X146839400Y-104332476D01*
X146851304Y-104320571D01*
X146875114Y-104308666D01*
X146910828Y-104308666D01*
X146934638Y-104320571D01*
X146946542Y-104332476D01*
X146958447Y-104356285D01*
X146958447Y-104451523D01*
X146827495Y-104225333D02*
X146827495Y-104070571D01*
X146922733Y-104153904D01*
X146922733Y-104118190D01*
X146934638Y-104094380D01*
X146946542Y-104082476D01*
X146970352Y-104070571D01*
X147029876Y-104070571D01*
X147053685Y-104082476D01*
X147065590Y-104094380D01*
X147077495Y-104118190D01*
X147077495Y-104189619D01*
X147065590Y-104213428D01*
X147053685Y-104225333D01*
X143496095Y-100117666D02*
X143377047Y-100201000D01*
X143496095Y-100260523D02*
X143246095Y-100260523D01*
X143246095Y-100165285D01*
X143258000Y-100141476D01*
X143269904Y-100129571D01*
X143293714Y-100117666D01*
X143329428Y-100117666D01*
X143353238Y-100129571D01*
X143365142Y-100141476D01*
X143377047Y-100165285D01*
X143377047Y-100260523D01*
X143246095Y-99891476D02*
X143246095Y-100010523D01*
X143365142Y-100022428D01*
X143353238Y-100010523D01*
X143341333Y-99986714D01*
X143341333Y-99927190D01*
X143353238Y-99903380D01*
X143365142Y-99891476D01*
X143388952Y-99879571D01*
X143448476Y-99879571D01*
X143472285Y-99891476D01*
X143484190Y-99903380D01*
X143496095Y-99927190D01*
X143496095Y-99986714D01*
X143484190Y-100010523D01*
X143472285Y-100022428D01*
X139277333Y-101586095D02*
X139194000Y-101467047D01*
X139134476Y-101586095D02*
X139134476Y-101336095D01*
X139229714Y-101336095D01*
X139253523Y-101348000D01*
X139265428Y-101359904D01*
X139277333Y-101383714D01*
X139277333Y-101419428D01*
X139265428Y-101443238D01*
X139253523Y-101455142D01*
X139229714Y-101467047D01*
X139134476Y-101467047D01*
X139360666Y-101336095D02*
X139527333Y-101336095D01*
X139420190Y-101586095D01*
X163333495Y-92802466D02*
X163214447Y-92885800D01*
X163333495Y-92945323D02*
X163083495Y-92945323D01*
X163083495Y-92850085D01*
X163095400Y-92826276D01*
X163107304Y-92814371D01*
X163131114Y-92802466D01*
X163166828Y-92802466D01*
X163190638Y-92814371D01*
X163202542Y-92826276D01*
X163214447Y-92850085D01*
X163214447Y-92945323D01*
X163190638Y-92659609D02*
X163178733Y-92683419D01*
X163166828Y-92695323D01*
X163143019Y-92707228D01*
X163131114Y-92707228D01*
X163107304Y-92695323D01*
X163095400Y-92683419D01*
X163083495Y-92659609D01*
X163083495Y-92611990D01*
X163095400Y-92588180D01*
X163107304Y-92576276D01*
X163131114Y-92564371D01*
X163143019Y-92564371D01*
X163166828Y-92576276D01*
X163178733Y-92588180D01*
X163190638Y-92611990D01*
X163190638Y-92659609D01*
X163202542Y-92683419D01*
X163214447Y-92695323D01*
X163238257Y-92707228D01*
X163285876Y-92707228D01*
X163309685Y-92695323D01*
X163321590Y-92683419D01*
X163333495Y-92659609D01*
X163333495Y-92611990D01*
X163321590Y-92588180D01*
X163309685Y-92576276D01*
X163285876Y-92564371D01*
X163238257Y-92564371D01*
X163214447Y-92576276D01*
X163202542Y-92588180D01*
X163190638Y-92611990D01*
D10*
X148637666Y-127366780D02*
X148637666Y-128081066D01*
X148590047Y-128223923D01*
X148494809Y-128319161D01*
X148351952Y-128366780D01*
X148256714Y-128366780D01*
X149018619Y-127366780D02*
X149685285Y-127366780D01*
X149256714Y-128366780D01*
D16*
X145725390Y-100456952D02*
X146130152Y-100456952D01*
X146177771Y-100433142D01*
X146201580Y-100409333D01*
X146225390Y-100361714D01*
X146225390Y-100266476D01*
X146201580Y-100218857D01*
X146177771Y-100195047D01*
X146130152Y-100171238D01*
X145725390Y-100171238D01*
X146225390Y-99671238D02*
X146225390Y-99956952D01*
X146225390Y-99814095D02*
X145725390Y-99814095D01*
X145796819Y-99861714D01*
X145844438Y-99909333D01*
X145868247Y-99956952D01*
D11*
X168390857Y-99860000D02*
X168419428Y-99774285D01*
X168419428Y-99631428D01*
X168390857Y-99574285D01*
X168362285Y-99545714D01*
X168305142Y-99517142D01*
X168248000Y-99517142D01*
X168190857Y-99545714D01*
X168162285Y-99574285D01*
X168133714Y-99631428D01*
X168105142Y-99745714D01*
X168076571Y-99802857D01*
X168048000Y-99831428D01*
X167990857Y-99860000D01*
X167933714Y-99860000D01*
X167876571Y-99831428D01*
X167848000Y-99802857D01*
X167819428Y-99745714D01*
X167819428Y-99602857D01*
X167848000Y-99517142D01*
X167819428Y-99317142D02*
X168419428Y-99174285D01*
X167990857Y-99060000D01*
X168419428Y-98945714D01*
X167819428Y-98802857D01*
X168419428Y-98260000D02*
X168419428Y-98602857D01*
X168419428Y-98431428D02*
X167819428Y-98431428D01*
X167905142Y-98488571D01*
X167962285Y-98545714D01*
X167990857Y-98602857D01*
D10*
X159289380Y-114942857D02*
X158813190Y-115276190D01*
X159289380Y-115514285D02*
X158289380Y-115514285D01*
X158289380Y-115133333D01*
X158337000Y-115038095D01*
X158384619Y-114990476D01*
X158479857Y-114942857D01*
X158622714Y-114942857D01*
X158717952Y-114990476D01*
X158765571Y-115038095D01*
X158813190Y-115133333D01*
X158813190Y-115514285D01*
X158765571Y-114180952D02*
X158765571Y-114514285D01*
X159289380Y-114514285D02*
X158289380Y-114514285D01*
X158289380Y-114038095D01*
X159289380Y-113657142D02*
X158289380Y-113657142D01*
X159003666Y-113323809D01*
X158289380Y-112990476D01*
X159289380Y-112990476D01*
X159289380Y-112466666D02*
X159289380Y-112276190D01*
X159241761Y-112180952D01*
X159194142Y-112133333D01*
X159051285Y-112038095D01*
X158860809Y-111990476D01*
X158479857Y-111990476D01*
X158384619Y-112038095D01*
X158337000Y-112085714D01*
X158289380Y-112180952D01*
X158289380Y-112371428D01*
X158337000Y-112466666D01*
X158384619Y-112514285D01*
X158479857Y-112561904D01*
X158717952Y-112561904D01*
X158813190Y-112514285D01*
X158860809Y-112466666D01*
X158908428Y-112371428D01*
X158908428Y-112180952D01*
X158860809Y-112085714D01*
X158813190Y-112038095D01*
X158717952Y-111990476D01*
X158289380Y-111133333D02*
X158289380Y-111323809D01*
X158337000Y-111419047D01*
X158384619Y-111466666D01*
X158527476Y-111561904D01*
X158717952Y-111609523D01*
X159098904Y-111609523D01*
X159194142Y-111561904D01*
X159241761Y-111514285D01*
X159289380Y-111419047D01*
X159289380Y-111228571D01*
X159241761Y-111133333D01*
X159194142Y-111085714D01*
X159098904Y-111038095D01*
X158860809Y-111038095D01*
X158765571Y-111085714D01*
X158717952Y-111133333D01*
X158670333Y-111228571D01*
X158670333Y-111419047D01*
X158717952Y-111514285D01*
X158765571Y-111561904D01*
X158860809Y-111609523D01*
X155789380Y-114061904D02*
X156598904Y-114061904D01*
X156694142Y-114014285D01*
X156741761Y-113966666D01*
X156789380Y-113871428D01*
X156789380Y-113680952D01*
X156741761Y-113585714D01*
X156694142Y-113538095D01*
X156598904Y-113490476D01*
X155789380Y-113490476D01*
X155884619Y-113061904D02*
X155837000Y-113014285D01*
X155789380Y-112919047D01*
X155789380Y-112680952D01*
X155837000Y-112585714D01*
X155884619Y-112538095D01*
X155979857Y-112490476D01*
X156075095Y-112490476D01*
X156217952Y-112538095D01*
X156789380Y-113109523D01*
X156789380Y-112490476D01*
X137426961Y-107478142D02*
X137379342Y-107525761D01*
X137236485Y-107573380D01*
X137141247Y-107573380D01*
X136998390Y-107525761D01*
X136903152Y-107430523D01*
X136855533Y-107335285D01*
X136807914Y-107144809D01*
X136807914Y-107001952D01*
X136855533Y-106811476D01*
X136903152Y-106716238D01*
X136998390Y-106621000D01*
X137141247Y-106573380D01*
X137236485Y-106573380D01*
X137379342Y-106621000D01*
X137426961Y-106668619D01*
X137855533Y-107573380D02*
X137855533Y-106573380D01*
X137855533Y-107049571D02*
X138426961Y-107049571D01*
X138426961Y-107573380D02*
X138426961Y-106573380D01*
X138807914Y-106573380D02*
X139426961Y-106573380D01*
X139093628Y-106954333D01*
X139236485Y-106954333D01*
X139331723Y-107001952D01*
X139379342Y-107049571D01*
X139426961Y-107144809D01*
X139426961Y-107382904D01*
X139379342Y-107478142D01*
X139331723Y-107525761D01*
X139236485Y-107573380D01*
X138950771Y-107573380D01*
X138855533Y-107525761D01*
X138807914Y-107478142D01*
X140284104Y-106906714D02*
X140284104Y-107573380D01*
X140046009Y-106525761D02*
X139807914Y-107240047D01*
X140426961Y-107240047D01*
X140998390Y-106573380D02*
X141093628Y-106573380D01*
X141188866Y-106621000D01*
X141236485Y-106668619D01*
X141284104Y-106763857D01*
X141331723Y-106954333D01*
X141331723Y-107192428D01*
X141284104Y-107382904D01*
X141236485Y-107478142D01*
X141188866Y-107525761D01*
X141093628Y-107573380D01*
X140998390Y-107573380D01*
X140903152Y-107525761D01*
X140855533Y-107478142D01*
X140807914Y-107382904D01*
X140760295Y-107192428D01*
X140760295Y-106954333D01*
X140807914Y-106763857D01*
X140855533Y-106668619D01*
X140903152Y-106621000D01*
X140998390Y-106573380D01*
X141760295Y-107049571D02*
X142093628Y-107049571D01*
X142236485Y-107573380D02*
X141760295Y-107573380D01*
X141760295Y-106573380D01*
X142236485Y-106573380D01*
X139065057Y-104192428D02*
X139065057Y-104678142D01*
X139093628Y-104735285D01*
X139122200Y-104763857D01*
X139179342Y-104792428D01*
X139293628Y-104792428D01*
X139350771Y-104763857D01*
X139379342Y-104735285D01*
X139407914Y-104678142D01*
X139407914Y-104192428D01*
X139950771Y-104392428D02*
X139950771Y-104792428D01*
X139807914Y-104163857D02*
X139665057Y-104592428D01*
X140036485Y-104592428D01*
M02*
