G04 #@! TF.GenerationSoftware,KiCad,Pcbnew,(5.1.6)-1*
G04 #@! TF.CreationDate,2020-10-15T10:51:02+02:00*
G04 #@! TF.ProjectId,DynOSSAT-EDU-Comms,44796e4f-5353-4415-942d-4544552d436f,rev?*
G04 #@! TF.SameCoordinates,Original*
G04 #@! TF.FileFunction,Paste,Top*
G04 #@! TF.FilePolarity,Positive*
%FSLAX46Y46*%
G04 Gerber Fmt 4.6, Leading zero omitted, Abs format (unit mm)*
G04 Created by KiCad (PCBNEW (5.1.6)-1) date 2020-10-15 10:51:02*
%MOMM*%
%LPD*%
G01*
G04 APERTURE LIST*
%ADD10R,0.740000X2.400000*%
%ADD11R,1.050000X2.200000*%
%ADD12R,1.000000X1.050000*%
%ADD13R,1.150000X0.300000*%
%ADD14R,0.800000X0.900000*%
%ADD15R,0.900000X0.800000*%
%ADD16R,1.060000X0.650000*%
%ADD17R,0.900000X3.000000*%
%ADD18R,3.000000X0.900000*%
%ADD19R,1.000000X0.900000*%
%ADD20R,1.000000X1.450000*%
%ADD21R,1.000000X2.500000*%
%ADD22R,1.400000X0.300000*%
G04 APERTURE END LIST*
D10*
X136906000Y-94406000D03*
X136906000Y-90506000D03*
X138176000Y-94406000D03*
X138176000Y-90506000D03*
X139446000Y-94406000D03*
X139446000Y-90506000D03*
X140716000Y-94406000D03*
X140716000Y-90506000D03*
X141986000Y-94406000D03*
X141986000Y-90506000D03*
X143256000Y-94406000D03*
X143256000Y-90506000D03*
X144526000Y-94406000D03*
X144526000Y-90506000D03*
X145796000Y-94406000D03*
X145796000Y-90506000D03*
X147066000Y-94406000D03*
X147066000Y-90506000D03*
X148336000Y-94406000D03*
X148336000Y-90506000D03*
X149606000Y-94406000D03*
X149606000Y-90506000D03*
X150876000Y-94406000D03*
X150876000Y-90506000D03*
X152146000Y-94406000D03*
X152146000Y-90506000D03*
X153416000Y-94406000D03*
X153416000Y-90506000D03*
X154686000Y-94406000D03*
X154686000Y-90506000D03*
X155956000Y-94406000D03*
X155956000Y-90506000D03*
X157226000Y-94406000D03*
X157226000Y-90506000D03*
X158496000Y-94406000D03*
X158496000Y-90506000D03*
X159766000Y-94406000D03*
X159766000Y-90506000D03*
X161036000Y-94406000D03*
X161036000Y-90506000D03*
G36*
G01*
X146425400Y-97665250D02*
X146425400Y-97152750D01*
G75*
G02*
X146644150Y-96934000I218750J0D01*
G01*
X147081650Y-96934000D01*
G75*
G02*
X147300400Y-97152750I0J-218750D01*
G01*
X147300400Y-97665250D01*
G75*
G02*
X147081650Y-97884000I-218750J0D01*
G01*
X146644150Y-97884000D01*
G75*
G02*
X146425400Y-97665250I0J218750D01*
G01*
G37*
G36*
G01*
X144850400Y-97665250D02*
X144850400Y-97152750D01*
G75*
G02*
X145069150Y-96934000I218750J0D01*
G01*
X145506650Y-96934000D01*
G75*
G02*
X145725400Y-97152750I0J-218750D01*
G01*
X145725400Y-97665250D01*
G75*
G02*
X145506650Y-97884000I-218750J0D01*
G01*
X145069150Y-97884000D01*
G75*
G02*
X144850400Y-97665250I0J218750D01*
G01*
G37*
G36*
G01*
X148613150Y-98851000D02*
X149125650Y-98851000D01*
G75*
G02*
X149344400Y-99069750I0J-218750D01*
G01*
X149344400Y-99507250D01*
G75*
G02*
X149125650Y-99726000I-218750J0D01*
G01*
X148613150Y-99726000D01*
G75*
G02*
X148394400Y-99507250I0J218750D01*
G01*
X148394400Y-99069750D01*
G75*
G02*
X148613150Y-98851000I218750J0D01*
G01*
G37*
G36*
G01*
X148613150Y-100426000D02*
X149125650Y-100426000D01*
G75*
G02*
X149344400Y-100644750I0J-218750D01*
G01*
X149344400Y-101082250D01*
G75*
G02*
X149125650Y-101301000I-218750J0D01*
G01*
X148613150Y-101301000D01*
G75*
G02*
X148394400Y-101082250I0J218750D01*
G01*
X148394400Y-100644750D01*
G75*
G02*
X148613150Y-100426000I218750J0D01*
G01*
G37*
G36*
G01*
X168211000Y-105303100D02*
X168211000Y-104958100D01*
G75*
G02*
X168358500Y-104810600I147500J0D01*
G01*
X168653500Y-104810600D01*
G75*
G02*
X168801000Y-104958100I0J-147500D01*
G01*
X168801000Y-105303100D01*
G75*
G02*
X168653500Y-105450600I-147500J0D01*
G01*
X168358500Y-105450600D01*
G75*
G02*
X168211000Y-105303100I0J147500D01*
G01*
G37*
G36*
G01*
X167241000Y-105303100D02*
X167241000Y-104958100D01*
G75*
G02*
X167388500Y-104810600I147500J0D01*
G01*
X167683500Y-104810600D01*
G75*
G02*
X167831000Y-104958100I0J-147500D01*
G01*
X167831000Y-105303100D01*
G75*
G02*
X167683500Y-105450600I-147500J0D01*
G01*
X167388500Y-105450600D01*
G75*
G02*
X167241000Y-105303100I0J147500D01*
G01*
G37*
G36*
G01*
X167215600Y-106268300D02*
X167215600Y-105923300D01*
G75*
G02*
X167363100Y-105775800I147500J0D01*
G01*
X167658100Y-105775800D01*
G75*
G02*
X167805600Y-105923300I0J-147500D01*
G01*
X167805600Y-106268300D01*
G75*
G02*
X167658100Y-106415800I-147500J0D01*
G01*
X167363100Y-106415800D01*
G75*
G02*
X167215600Y-106268300I0J147500D01*
G01*
G37*
G36*
G01*
X168185600Y-106268300D02*
X168185600Y-105923300D01*
G75*
G02*
X168333100Y-105775800I147500J0D01*
G01*
X168628100Y-105775800D01*
G75*
G02*
X168775600Y-105923300I0J-147500D01*
G01*
X168775600Y-106268300D01*
G75*
G02*
X168628100Y-106415800I-147500J0D01*
G01*
X168333100Y-106415800D01*
G75*
G02*
X168185600Y-106268300I0J147500D01*
G01*
G37*
D11*
X166038000Y-109314000D03*
D12*
X167513000Y-107789000D03*
D11*
X168988000Y-109314000D03*
G36*
G01*
X166375300Y-104833200D02*
X166720300Y-104833200D01*
G75*
G02*
X166867800Y-104980700I0J-147500D01*
G01*
X166867800Y-105275700D01*
G75*
G02*
X166720300Y-105423200I-147500J0D01*
G01*
X166375300Y-105423200D01*
G75*
G02*
X166227800Y-105275700I0J147500D01*
G01*
X166227800Y-104980700D01*
G75*
G02*
X166375300Y-104833200I147500J0D01*
G01*
G37*
G36*
G01*
X166375300Y-105803200D02*
X166720300Y-105803200D01*
G75*
G02*
X166867800Y-105950700I0J-147500D01*
G01*
X166867800Y-106245700D01*
G75*
G02*
X166720300Y-106393200I-147500J0D01*
G01*
X166375300Y-106393200D01*
G75*
G02*
X166227800Y-106245700I0J147500D01*
G01*
X166227800Y-105950700D01*
G75*
G02*
X166375300Y-105803200I147500J0D01*
G01*
G37*
D13*
X135280400Y-104696500D03*
X135280400Y-104996500D03*
X135280400Y-103898000D03*
X135280400Y-104198000D03*
X135280400Y-103398000D03*
X135280400Y-102898000D03*
X135280400Y-102398000D03*
X135280400Y-101898000D03*
X135280400Y-101398000D03*
X135280400Y-100898000D03*
X135280400Y-100398000D03*
X135280400Y-99898000D03*
X135280400Y-99098000D03*
X135280400Y-99398000D03*
X135280400Y-98598000D03*
X135280400Y-98298000D03*
G36*
G01*
X132618700Y-95770200D02*
X132963700Y-95770200D01*
G75*
G02*
X133111200Y-95917700I0J-147500D01*
G01*
X133111200Y-96212700D01*
G75*
G02*
X132963700Y-96360200I-147500J0D01*
G01*
X132618700Y-96360200D01*
G75*
G02*
X132471200Y-96212700I0J147500D01*
G01*
X132471200Y-95917700D01*
G75*
G02*
X132618700Y-95770200I147500J0D01*
G01*
G37*
G36*
G01*
X132618700Y-94800200D02*
X132963700Y-94800200D01*
G75*
G02*
X133111200Y-94947700I0J-147500D01*
G01*
X133111200Y-95242700D01*
G75*
G02*
X132963700Y-95390200I-147500J0D01*
G01*
X132618700Y-95390200D01*
G75*
G02*
X132471200Y-95242700I0J147500D01*
G01*
X132471200Y-94947700D01*
G75*
G02*
X132618700Y-94800200I147500J0D01*
G01*
G37*
G36*
G01*
X131551900Y-94800200D02*
X131896900Y-94800200D01*
G75*
G02*
X132044400Y-94947700I0J-147500D01*
G01*
X132044400Y-95242700D01*
G75*
G02*
X131896900Y-95390200I-147500J0D01*
G01*
X131551900Y-95390200D01*
G75*
G02*
X131404400Y-95242700I0J147500D01*
G01*
X131404400Y-94947700D01*
G75*
G02*
X131551900Y-94800200I147500J0D01*
G01*
G37*
G36*
G01*
X131551900Y-95770200D02*
X131896900Y-95770200D01*
G75*
G02*
X132044400Y-95917700I0J-147500D01*
G01*
X132044400Y-96212700D01*
G75*
G02*
X131896900Y-96360200I-147500J0D01*
G01*
X131551900Y-96360200D01*
G75*
G02*
X131404400Y-96212700I0J147500D01*
G01*
X131404400Y-95917700D01*
G75*
G02*
X131551900Y-95770200I147500J0D01*
G01*
G37*
D14*
X151640500Y-101266500D03*
X153540500Y-101266500D03*
X152590500Y-99266500D03*
G36*
G01*
X152794200Y-102570500D02*
X152794200Y-102915500D01*
G75*
G02*
X152646700Y-103063000I-147500J0D01*
G01*
X152351700Y-103063000D01*
G75*
G02*
X152204200Y-102915500I0J147500D01*
G01*
X152204200Y-102570500D01*
G75*
G02*
X152351700Y-102423000I147500J0D01*
G01*
X152646700Y-102423000D01*
G75*
G02*
X152794200Y-102570500I0J-147500D01*
G01*
G37*
G36*
G01*
X153764200Y-102570500D02*
X153764200Y-102915500D01*
G75*
G02*
X153616700Y-103063000I-147500J0D01*
G01*
X153321700Y-103063000D01*
G75*
G02*
X153174200Y-102915500I0J147500D01*
G01*
X153174200Y-102570500D01*
G75*
G02*
X153321700Y-102423000I147500J0D01*
G01*
X153616700Y-102423000D01*
G75*
G02*
X153764200Y-102570500I0J-147500D01*
G01*
G37*
G36*
G01*
X134828500Y-126474000D02*
X135173500Y-126474000D01*
G75*
G02*
X135321000Y-126621500I0J-147500D01*
G01*
X135321000Y-126916500D01*
G75*
G02*
X135173500Y-127064000I-147500J0D01*
G01*
X134828500Y-127064000D01*
G75*
G02*
X134681000Y-126916500I0J147500D01*
G01*
X134681000Y-126621500D01*
G75*
G02*
X134828500Y-126474000I147500J0D01*
G01*
G37*
G36*
G01*
X134828500Y-127444000D02*
X135173500Y-127444000D01*
G75*
G02*
X135321000Y-127591500I0J-147500D01*
G01*
X135321000Y-127886500D01*
G75*
G02*
X135173500Y-128034000I-147500J0D01*
G01*
X134828500Y-128034000D01*
G75*
G02*
X134681000Y-127886500I0J147500D01*
G01*
X134681000Y-127591500D01*
G75*
G02*
X134828500Y-127444000I147500J0D01*
G01*
G37*
G36*
G01*
X143834900Y-105047000D02*
X143489900Y-105047000D01*
G75*
G02*
X143342400Y-104899500I0J147500D01*
G01*
X143342400Y-104604500D01*
G75*
G02*
X143489900Y-104457000I147500J0D01*
G01*
X143834900Y-104457000D01*
G75*
G02*
X143982400Y-104604500I0J-147500D01*
G01*
X143982400Y-104899500D01*
G75*
G02*
X143834900Y-105047000I-147500J0D01*
G01*
G37*
G36*
G01*
X143834900Y-104077000D02*
X143489900Y-104077000D01*
G75*
G02*
X143342400Y-103929500I0J147500D01*
G01*
X143342400Y-103634500D01*
G75*
G02*
X143489900Y-103487000I147500J0D01*
G01*
X143834900Y-103487000D01*
G75*
G02*
X143982400Y-103634500I0J-147500D01*
G01*
X143982400Y-103929500D01*
G75*
G02*
X143834900Y-104077000I-147500J0D01*
G01*
G37*
G36*
G01*
X162760950Y-88995800D02*
X163273450Y-88995800D01*
G75*
G02*
X163492200Y-89214550I0J-218750D01*
G01*
X163492200Y-89652050D01*
G75*
G02*
X163273450Y-89870800I-218750J0D01*
G01*
X162760950Y-89870800D01*
G75*
G02*
X162542200Y-89652050I0J218750D01*
G01*
X162542200Y-89214550D01*
G75*
G02*
X162760950Y-88995800I218750J0D01*
G01*
G37*
G36*
G01*
X162760950Y-90570800D02*
X163273450Y-90570800D01*
G75*
G02*
X163492200Y-90789550I0J-218750D01*
G01*
X163492200Y-91227050D01*
G75*
G02*
X163273450Y-91445800I-218750J0D01*
G01*
X162760950Y-91445800D01*
G75*
G02*
X162542200Y-91227050I0J218750D01*
G01*
X162542200Y-90789550D01*
G75*
G02*
X162760950Y-90570800I218750J0D01*
G01*
G37*
D15*
X139684000Y-100010000D03*
X139684000Y-98110000D03*
X137684000Y-99060000D03*
G36*
G01*
X165156100Y-100647000D02*
X165501100Y-100647000D01*
G75*
G02*
X165648600Y-100794500I0J-147500D01*
G01*
X165648600Y-101089500D01*
G75*
G02*
X165501100Y-101237000I-147500J0D01*
G01*
X165156100Y-101237000D01*
G75*
G02*
X165008600Y-101089500I0J147500D01*
G01*
X165008600Y-100794500D01*
G75*
G02*
X165156100Y-100647000I147500J0D01*
G01*
G37*
G36*
G01*
X165156100Y-99677000D02*
X165501100Y-99677000D01*
G75*
G02*
X165648600Y-99824500I0J-147500D01*
G01*
X165648600Y-100119500D01*
G75*
G02*
X165501100Y-100267000I-147500J0D01*
G01*
X165156100Y-100267000D01*
G75*
G02*
X165008600Y-100119500I0J147500D01*
G01*
X165008600Y-99824500D01*
G75*
G02*
X165156100Y-99677000I147500J0D01*
G01*
G37*
G36*
G01*
X145267900Y-104457000D02*
X145612900Y-104457000D01*
G75*
G02*
X145760400Y-104604500I0J-147500D01*
G01*
X145760400Y-104899500D01*
G75*
G02*
X145612900Y-105047000I-147500J0D01*
G01*
X145267900Y-105047000D01*
G75*
G02*
X145120400Y-104899500I0J147500D01*
G01*
X145120400Y-104604500D01*
G75*
G02*
X145267900Y-104457000I147500J0D01*
G01*
G37*
G36*
G01*
X145267900Y-103487000D02*
X145612900Y-103487000D01*
G75*
G02*
X145760400Y-103634500I0J-147500D01*
G01*
X145760400Y-103929500D01*
G75*
G02*
X145612900Y-104077000I-147500J0D01*
G01*
X145267900Y-104077000D01*
G75*
G02*
X145120400Y-103929500I0J147500D01*
G01*
X145120400Y-103634500D01*
G75*
G02*
X145267900Y-103487000I147500J0D01*
G01*
G37*
G36*
G01*
X146791900Y-103487000D02*
X147136900Y-103487000D01*
G75*
G02*
X147284400Y-103634500I0J-147500D01*
G01*
X147284400Y-103929500D01*
G75*
G02*
X147136900Y-104077000I-147500J0D01*
G01*
X146791900Y-104077000D01*
G75*
G02*
X146644400Y-103929500I0J147500D01*
G01*
X146644400Y-103634500D01*
G75*
G02*
X146791900Y-103487000I147500J0D01*
G01*
G37*
G36*
G01*
X146791900Y-104457000D02*
X147136900Y-104457000D01*
G75*
G02*
X147284400Y-104604500I0J-147500D01*
G01*
X147284400Y-104899500D01*
G75*
G02*
X147136900Y-105047000I-147500J0D01*
G01*
X146791900Y-105047000D01*
G75*
G02*
X146644400Y-104899500I0J147500D01*
G01*
X146644400Y-104604500D01*
G75*
G02*
X146791900Y-104457000I147500J0D01*
G01*
G37*
G36*
G01*
X143555500Y-100856000D02*
X143210500Y-100856000D01*
G75*
G02*
X143063000Y-100708500I0J147500D01*
G01*
X143063000Y-100413500D01*
G75*
G02*
X143210500Y-100266000I147500J0D01*
G01*
X143555500Y-100266000D01*
G75*
G02*
X143703000Y-100413500I0J-147500D01*
G01*
X143703000Y-100708500D01*
G75*
G02*
X143555500Y-100856000I-147500J0D01*
G01*
G37*
G36*
G01*
X143555500Y-99886000D02*
X143210500Y-99886000D01*
G75*
G02*
X143063000Y-99738500I0J147500D01*
G01*
X143063000Y-99443500D01*
G75*
G02*
X143210500Y-99296000I147500J0D01*
G01*
X143555500Y-99296000D01*
G75*
G02*
X143703000Y-99443500I0J-147500D01*
G01*
X143703000Y-99738500D01*
G75*
G02*
X143555500Y-99886000I-147500J0D01*
G01*
G37*
G36*
G01*
X139129000Y-101300500D02*
X139129000Y-101645500D01*
G75*
G02*
X138981500Y-101793000I-147500J0D01*
G01*
X138686500Y-101793000D01*
G75*
G02*
X138539000Y-101645500I0J147500D01*
G01*
X138539000Y-101300500D01*
G75*
G02*
X138686500Y-101153000I147500J0D01*
G01*
X138981500Y-101153000D01*
G75*
G02*
X139129000Y-101300500I0J-147500D01*
G01*
G37*
G36*
G01*
X140099000Y-101300500D02*
X140099000Y-101645500D01*
G75*
G02*
X139951500Y-101793000I-147500J0D01*
G01*
X139656500Y-101793000D01*
G75*
G02*
X139509000Y-101645500I0J147500D01*
G01*
X139509000Y-101300500D01*
G75*
G02*
X139656500Y-101153000I147500J0D01*
G01*
X139951500Y-101153000D01*
G75*
G02*
X140099000Y-101300500I0J-147500D01*
G01*
G37*
G36*
G01*
X163392900Y-93540800D02*
X163047900Y-93540800D01*
G75*
G02*
X162900400Y-93393300I0J147500D01*
G01*
X162900400Y-93098300D01*
G75*
G02*
X163047900Y-92950800I147500J0D01*
G01*
X163392900Y-92950800D01*
G75*
G02*
X163540400Y-93098300I0J-147500D01*
G01*
X163540400Y-93393300D01*
G75*
G02*
X163392900Y-93540800I-147500J0D01*
G01*
G37*
G36*
G01*
X163392900Y-92570800D02*
X163047900Y-92570800D01*
G75*
G02*
X162900400Y-92423300I0J147500D01*
G01*
X162900400Y-92128300D01*
G75*
G02*
X163047900Y-91980800I147500J0D01*
G01*
X163392900Y-91980800D01*
G75*
G02*
X163540400Y-92128300I0J-147500D01*
G01*
X163540400Y-92423300D01*
G75*
G02*
X163392900Y-92570800I-147500J0D01*
G01*
G37*
D16*
X144899200Y-99126000D03*
X144899200Y-100076000D03*
X144899200Y-101026000D03*
X147099200Y-101026000D03*
X147099200Y-99126000D03*
D17*
X133022000Y-123182000D03*
X134292000Y-123182000D03*
X135562000Y-123182000D03*
X136832000Y-123182000D03*
X138102000Y-123182000D03*
X139372000Y-123182000D03*
X140642000Y-123182000D03*
X141912000Y-123182000D03*
X143182000Y-123182000D03*
X144452000Y-123182000D03*
D18*
X145352000Y-116332000D03*
D17*
X144452000Y-109482000D03*
X143182000Y-109482000D03*
X141912000Y-109482000D03*
X140642000Y-109482000D03*
X139372000Y-109482000D03*
X138102000Y-109482000D03*
X136832000Y-109482000D03*
X135562000Y-109482000D03*
X134292000Y-109482000D03*
X133022000Y-109482000D03*
D18*
X145352000Y-118882000D03*
X145352000Y-117612000D03*
X145352000Y-115052000D03*
X145352000Y-113782000D03*
D19*
X167005000Y-101414000D03*
X167005000Y-97214000D03*
D20*
X169105000Y-95914000D03*
X169105000Y-102714000D03*
D21*
X149337000Y-122400000D03*
X151337000Y-122400000D03*
X153337000Y-122400000D03*
X155337000Y-122400000D03*
X157337000Y-122400000D03*
X159337000Y-122400000D03*
X161337000Y-122400000D03*
X163337000Y-122400000D03*
X163337000Y-106200000D03*
X161337000Y-106200000D03*
X159337000Y-106200000D03*
X157337000Y-106200000D03*
X155337000Y-106200000D03*
X153337000Y-106200000D03*
X151337000Y-106200000D03*
X149337000Y-106200000D03*
D22*
X137322200Y-103521000D03*
X137322200Y-104021000D03*
X137322200Y-104521000D03*
X137322200Y-105021000D03*
X137322200Y-105521000D03*
X141722200Y-105521000D03*
X141722200Y-105021000D03*
X141722200Y-104521000D03*
X141722200Y-104021000D03*
X141722200Y-103521000D03*
M02*
