G04 #@! TF.GenerationSoftware,KiCad,Pcbnew,(5.1.6)-1*
G04 #@! TF.CreationDate,2020-11-06T20:35:05+01:00*
G04 #@! TF.ProjectId,DynOSSAT-EDU-Comms,44796e4f-5353-4415-942d-4544552d436f,rev?*
G04 #@! TF.SameCoordinates,Original*
G04 #@! TF.FileFunction,Soldermask,Bot*
G04 #@! TF.FilePolarity,Negative*
%FSLAX46Y46*%
G04 Gerber Fmt 4.6, Leading zero omitted, Abs format (unit mm)*
G04 Created by KiCad (PCBNEW (5.1.6)-1) date 2020-11-06 20:35:05*
%MOMM*%
%LPD*%
G01*
G04 APERTURE LIST*
%ADD10C,0.100000*%
G04 APERTURE END LIST*
D10*
G36*
X167649098Y-125055033D02*
G01*
X168113350Y-125247332D01*
X168113352Y-125247333D01*
X168531168Y-125526509D01*
X168886491Y-125881832D01*
X169021575Y-126084000D01*
X169165668Y-126299650D01*
X169357967Y-126763902D01*
X169456000Y-127256747D01*
X169456000Y-127759253D01*
X169357967Y-128252098D01*
X169259941Y-128488754D01*
X169165667Y-128716352D01*
X168886491Y-129134168D01*
X168531168Y-129489491D01*
X168113352Y-129768667D01*
X168113351Y-129768668D01*
X168113350Y-129768668D01*
X167649098Y-129960967D01*
X167156253Y-130059000D01*
X166653747Y-130059000D01*
X166160902Y-129960967D01*
X165696650Y-129768668D01*
X165696649Y-129768668D01*
X165696648Y-129768667D01*
X165278832Y-129489491D01*
X164923509Y-129134168D01*
X164644333Y-128716352D01*
X164550059Y-128488754D01*
X164452033Y-128252098D01*
X164354000Y-127759253D01*
X164354000Y-127256747D01*
X164452033Y-126763902D01*
X164644332Y-126299650D01*
X164788425Y-126084000D01*
X164923509Y-125881832D01*
X165278832Y-125526509D01*
X165696648Y-125247333D01*
X165696650Y-125247332D01*
X166160902Y-125055033D01*
X166653747Y-124957000D01*
X167156253Y-124957000D01*
X167649098Y-125055033D01*
G37*
G36*
X131647098Y-125055033D02*
G01*
X132111350Y-125247332D01*
X132111352Y-125247333D01*
X132529168Y-125526509D01*
X132884491Y-125881832D01*
X133019575Y-126084000D01*
X133163668Y-126299650D01*
X133355967Y-126763902D01*
X133454000Y-127256747D01*
X133454000Y-127759253D01*
X133355967Y-128252098D01*
X133257941Y-128488754D01*
X133163667Y-128716352D01*
X132884491Y-129134168D01*
X132529168Y-129489491D01*
X132111352Y-129768667D01*
X132111351Y-129768668D01*
X132111350Y-129768668D01*
X131647098Y-129960967D01*
X131154253Y-130059000D01*
X130651747Y-130059000D01*
X130158902Y-129960967D01*
X129694650Y-129768668D01*
X129694649Y-129768668D01*
X129694648Y-129768667D01*
X129276832Y-129489491D01*
X128921509Y-129134168D01*
X128642333Y-128716352D01*
X128548059Y-128488754D01*
X128450033Y-128252098D01*
X128352000Y-127759253D01*
X128352000Y-127256747D01*
X128450033Y-126763902D01*
X128642332Y-126299650D01*
X128786425Y-126084000D01*
X128921509Y-125881832D01*
X129276832Y-125526509D01*
X129694648Y-125247333D01*
X129694650Y-125247332D01*
X130158902Y-125055033D01*
X130651747Y-124957000D01*
X131154253Y-124957000D01*
X131647098Y-125055033D01*
G37*
G36*
X156704512Y-127018327D02*
G01*
X156853812Y-127048024D01*
X157017784Y-127115944D01*
X157165354Y-127214547D01*
X157290853Y-127340046D01*
X157389456Y-127487616D01*
X157457376Y-127651588D01*
X157492000Y-127825659D01*
X157492000Y-128003141D01*
X157457376Y-128177212D01*
X157389456Y-128341184D01*
X157290853Y-128488754D01*
X157165354Y-128614253D01*
X157017784Y-128712856D01*
X156853812Y-128780776D01*
X156704512Y-128810473D01*
X156679742Y-128815400D01*
X156502258Y-128815400D01*
X156477488Y-128810473D01*
X156328188Y-128780776D01*
X156164216Y-128712856D01*
X156016646Y-128614253D01*
X155891147Y-128488754D01*
X155792544Y-128341184D01*
X155724624Y-128177212D01*
X155690000Y-128003141D01*
X155690000Y-127825659D01*
X155724624Y-127651588D01*
X155792544Y-127487616D01*
X155891147Y-127340046D01*
X156016646Y-127214547D01*
X156164216Y-127115944D01*
X156328188Y-127048024D01*
X156477488Y-127018327D01*
X156502258Y-127013400D01*
X156679742Y-127013400D01*
X156704512Y-127018327D01*
G37*
G36*
X154164512Y-127018327D02*
G01*
X154313812Y-127048024D01*
X154477784Y-127115944D01*
X154625354Y-127214547D01*
X154750853Y-127340046D01*
X154849456Y-127487616D01*
X154917376Y-127651588D01*
X154952000Y-127825659D01*
X154952000Y-128003141D01*
X154917376Y-128177212D01*
X154849456Y-128341184D01*
X154750853Y-128488754D01*
X154625354Y-128614253D01*
X154477784Y-128712856D01*
X154313812Y-128780776D01*
X154164512Y-128810473D01*
X154139742Y-128815400D01*
X153962258Y-128815400D01*
X153937488Y-128810473D01*
X153788188Y-128780776D01*
X153624216Y-128712856D01*
X153476646Y-128614253D01*
X153351147Y-128488754D01*
X153252544Y-128341184D01*
X153184624Y-128177212D01*
X153150000Y-128003141D01*
X153150000Y-127825659D01*
X153184624Y-127651588D01*
X153252544Y-127487616D01*
X153351147Y-127340046D01*
X153476646Y-127214547D01*
X153624216Y-127115944D01*
X153788188Y-127048024D01*
X153937488Y-127018327D01*
X153962258Y-127013400D01*
X154139742Y-127013400D01*
X154164512Y-127018327D01*
G37*
G36*
X151624512Y-127018327D02*
G01*
X151773812Y-127048024D01*
X151937784Y-127115944D01*
X152085354Y-127214547D01*
X152210853Y-127340046D01*
X152309456Y-127487616D01*
X152377376Y-127651588D01*
X152412000Y-127825659D01*
X152412000Y-128003141D01*
X152377376Y-128177212D01*
X152309456Y-128341184D01*
X152210853Y-128488754D01*
X152085354Y-128614253D01*
X151937784Y-128712856D01*
X151773812Y-128780776D01*
X151624512Y-128810473D01*
X151599742Y-128815400D01*
X151422258Y-128815400D01*
X151397488Y-128810473D01*
X151248188Y-128780776D01*
X151084216Y-128712856D01*
X150936646Y-128614253D01*
X150811147Y-128488754D01*
X150712544Y-128341184D01*
X150644624Y-128177212D01*
X150610000Y-128003141D01*
X150610000Y-127825659D01*
X150644624Y-127651588D01*
X150712544Y-127487616D01*
X150811147Y-127340046D01*
X150936646Y-127214547D01*
X151084216Y-127115944D01*
X151248188Y-127048024D01*
X151397488Y-127018327D01*
X151422258Y-127013400D01*
X151599742Y-127013400D01*
X151624512Y-127018327D01*
G37*
G36*
X149084512Y-127018327D02*
G01*
X149233812Y-127048024D01*
X149397784Y-127115944D01*
X149545354Y-127214547D01*
X149670853Y-127340046D01*
X149769456Y-127487616D01*
X149837376Y-127651588D01*
X149872000Y-127825659D01*
X149872000Y-128003141D01*
X149837376Y-128177212D01*
X149769456Y-128341184D01*
X149670853Y-128488754D01*
X149545354Y-128614253D01*
X149397784Y-128712856D01*
X149233812Y-128780776D01*
X149084512Y-128810473D01*
X149059742Y-128815400D01*
X148882258Y-128815400D01*
X148857488Y-128810473D01*
X148708188Y-128780776D01*
X148544216Y-128712856D01*
X148396646Y-128614253D01*
X148271147Y-128488754D01*
X148172544Y-128341184D01*
X148104624Y-128177212D01*
X148070000Y-128003141D01*
X148070000Y-127825659D01*
X148104624Y-127651588D01*
X148172544Y-127487616D01*
X148271147Y-127340046D01*
X148396646Y-127214547D01*
X148544216Y-127115944D01*
X148708188Y-127048024D01*
X148857488Y-127018327D01*
X148882258Y-127013400D01*
X149059742Y-127013400D01*
X149084512Y-127018327D01*
G37*
G36*
X146544512Y-127018327D02*
G01*
X146693812Y-127048024D01*
X146857784Y-127115944D01*
X147005354Y-127214547D01*
X147130853Y-127340046D01*
X147229456Y-127487616D01*
X147297376Y-127651588D01*
X147332000Y-127825659D01*
X147332000Y-128003141D01*
X147297376Y-128177212D01*
X147229456Y-128341184D01*
X147130853Y-128488754D01*
X147005354Y-128614253D01*
X146857784Y-128712856D01*
X146693812Y-128780776D01*
X146544512Y-128810473D01*
X146519742Y-128815400D01*
X146342258Y-128815400D01*
X146317488Y-128810473D01*
X146168188Y-128780776D01*
X146004216Y-128712856D01*
X145856646Y-128614253D01*
X145731147Y-128488754D01*
X145632544Y-128341184D01*
X145564624Y-128177212D01*
X145530000Y-128003141D01*
X145530000Y-127825659D01*
X145564624Y-127651588D01*
X145632544Y-127487616D01*
X145731147Y-127340046D01*
X145856646Y-127214547D01*
X146004216Y-127115944D01*
X146168188Y-127048024D01*
X146317488Y-127018327D01*
X146342258Y-127013400D01*
X146519742Y-127013400D01*
X146544512Y-127018327D01*
G37*
G36*
X144004512Y-127018327D02*
G01*
X144153812Y-127048024D01*
X144317784Y-127115944D01*
X144465354Y-127214547D01*
X144590853Y-127340046D01*
X144689456Y-127487616D01*
X144757376Y-127651588D01*
X144792000Y-127825659D01*
X144792000Y-128003141D01*
X144757376Y-128177212D01*
X144689456Y-128341184D01*
X144590853Y-128488754D01*
X144465354Y-128614253D01*
X144317784Y-128712856D01*
X144153812Y-128780776D01*
X144004512Y-128810473D01*
X143979742Y-128815400D01*
X143802258Y-128815400D01*
X143777488Y-128810473D01*
X143628188Y-128780776D01*
X143464216Y-128712856D01*
X143316646Y-128614253D01*
X143191147Y-128488754D01*
X143092544Y-128341184D01*
X143024624Y-128177212D01*
X142990000Y-128003141D01*
X142990000Y-127825659D01*
X143024624Y-127651588D01*
X143092544Y-127487616D01*
X143191147Y-127340046D01*
X143316646Y-127214547D01*
X143464216Y-127115944D01*
X143628188Y-127048024D01*
X143777488Y-127018327D01*
X143802258Y-127013400D01*
X143979742Y-127013400D01*
X144004512Y-127018327D01*
G37*
G36*
X141464512Y-127018327D02*
G01*
X141613812Y-127048024D01*
X141777784Y-127115944D01*
X141925354Y-127214547D01*
X142050853Y-127340046D01*
X142149456Y-127487616D01*
X142217376Y-127651588D01*
X142252000Y-127825659D01*
X142252000Y-128003141D01*
X142217376Y-128177212D01*
X142149456Y-128341184D01*
X142050853Y-128488754D01*
X141925354Y-128614253D01*
X141777784Y-128712856D01*
X141613812Y-128780776D01*
X141464512Y-128810473D01*
X141439742Y-128815400D01*
X141262258Y-128815400D01*
X141237488Y-128810473D01*
X141088188Y-128780776D01*
X140924216Y-128712856D01*
X140776646Y-128614253D01*
X140651147Y-128488754D01*
X140552544Y-128341184D01*
X140484624Y-128177212D01*
X140450000Y-128003141D01*
X140450000Y-127825659D01*
X140484624Y-127651588D01*
X140552544Y-127487616D01*
X140651147Y-127340046D01*
X140776646Y-127214547D01*
X140924216Y-127115944D01*
X141088188Y-127048024D01*
X141237488Y-127018327D01*
X141262258Y-127013400D01*
X141439742Y-127013400D01*
X141464512Y-127018327D01*
G37*
G36*
X139712000Y-128815400D02*
G01*
X137910000Y-128815400D01*
X137910000Y-127013400D01*
X139712000Y-127013400D01*
X139712000Y-128815400D01*
G37*
G36*
X159244512Y-127018327D02*
G01*
X159393812Y-127048024D01*
X159557784Y-127115944D01*
X159705354Y-127214547D01*
X159830853Y-127340046D01*
X159929456Y-127487616D01*
X159997376Y-127651588D01*
X160032000Y-127825659D01*
X160032000Y-128003141D01*
X159997376Y-128177212D01*
X159929456Y-128341184D01*
X159830853Y-128488754D01*
X159705354Y-128614253D01*
X159557784Y-128712856D01*
X159393812Y-128780776D01*
X159244512Y-128810473D01*
X159219742Y-128815400D01*
X159042258Y-128815400D01*
X159017488Y-128810473D01*
X158868188Y-128780776D01*
X158704216Y-128712856D01*
X158556646Y-128614253D01*
X158431147Y-128488754D01*
X158332544Y-128341184D01*
X158264624Y-128177212D01*
X158230000Y-128003141D01*
X158230000Y-127825659D01*
X158264624Y-127651588D01*
X158332544Y-127487616D01*
X158431147Y-127340046D01*
X158556646Y-127214547D01*
X158704216Y-127115944D01*
X158868188Y-127048024D01*
X159017488Y-127018327D01*
X159042258Y-127013400D01*
X159219742Y-127013400D01*
X159244512Y-127018327D01*
G37*
G36*
X135366915Y-105442473D02*
G01*
X135470779Y-105473979D01*
X135497955Y-105488505D01*
X135566500Y-105525143D01*
X135650401Y-105593999D01*
X135719257Y-105677900D01*
X135755895Y-105746445D01*
X135770421Y-105773621D01*
X135801927Y-105877485D01*
X135812566Y-105985500D01*
X135801927Y-106093515D01*
X135770421Y-106197379D01*
X135770419Y-106197382D01*
X135719257Y-106293100D01*
X135650401Y-106377001D01*
X135566500Y-106445857D01*
X135497955Y-106482495D01*
X135470779Y-106497021D01*
X135366915Y-106528527D01*
X135285967Y-106536500D01*
X134131833Y-106536500D01*
X134050885Y-106528527D01*
X133947021Y-106497021D01*
X133919845Y-106482495D01*
X133851300Y-106445857D01*
X133767399Y-106377001D01*
X133698543Y-106293100D01*
X133647381Y-106197382D01*
X133647379Y-106197379D01*
X133615873Y-106093515D01*
X133605234Y-105985500D01*
X133615873Y-105877485D01*
X133647379Y-105773621D01*
X133661905Y-105746445D01*
X133698543Y-105677900D01*
X133767399Y-105593999D01*
X133851300Y-105525143D01*
X133919845Y-105488505D01*
X133947021Y-105473979D01*
X134050885Y-105442473D01*
X134131833Y-105434500D01*
X135285967Y-105434500D01*
X135366915Y-105442473D01*
G37*
G36*
X130936915Y-105438473D02*
G01*
X131040779Y-105469979D01*
X131048262Y-105473979D01*
X131136500Y-105521143D01*
X131220401Y-105589999D01*
X131289257Y-105673900D01*
X131325895Y-105742445D01*
X131340421Y-105769621D01*
X131371927Y-105873485D01*
X131382566Y-105981500D01*
X131371927Y-106089515D01*
X131340421Y-106193379D01*
X131340419Y-106193382D01*
X131289257Y-106289100D01*
X131220401Y-106373001D01*
X131136500Y-106441857D01*
X131067955Y-106478495D01*
X131040779Y-106493021D01*
X130936915Y-106524527D01*
X130855967Y-106532500D01*
X130201833Y-106532500D01*
X130120885Y-106524527D01*
X130017021Y-106493021D01*
X129989845Y-106478495D01*
X129921300Y-106441857D01*
X129837399Y-106373001D01*
X129768543Y-106289100D01*
X129717381Y-106193382D01*
X129717379Y-106193379D01*
X129685873Y-106089515D01*
X129675234Y-105981500D01*
X129685873Y-105873485D01*
X129717379Y-105769621D01*
X129731905Y-105742445D01*
X129768543Y-105673900D01*
X129837399Y-105589999D01*
X129921300Y-105521143D01*
X130009538Y-105473979D01*
X130017021Y-105469979D01*
X130120885Y-105438473D01*
X130201833Y-105430500D01*
X130855967Y-105430500D01*
X130936915Y-105438473D01*
G37*
G36*
X134374072Y-104222949D02*
G01*
X134374074Y-104222950D01*
X134374075Y-104222950D01*
X134442503Y-104251293D01*
X134504086Y-104292442D01*
X134556458Y-104344814D01*
X134597607Y-104406397D01*
X134625950Y-104474825D01*
X134640400Y-104547467D01*
X134640400Y-104621533D01*
X134625950Y-104694175D01*
X134597607Y-104762603D01*
X134556458Y-104824186D01*
X134504086Y-104876558D01*
X134442503Y-104917707D01*
X134374075Y-104946050D01*
X134374074Y-104946050D01*
X134374072Y-104946051D01*
X134301434Y-104960500D01*
X134227366Y-104960500D01*
X134154728Y-104946051D01*
X134154726Y-104946050D01*
X134154725Y-104946050D01*
X134086297Y-104917707D01*
X134024714Y-104876558D01*
X133972342Y-104824186D01*
X133931193Y-104762603D01*
X133902850Y-104694175D01*
X133888400Y-104621533D01*
X133888400Y-104547467D01*
X133902850Y-104474825D01*
X133931193Y-104406397D01*
X133972342Y-104344814D01*
X134024714Y-104292442D01*
X134086297Y-104251293D01*
X134154725Y-104222950D01*
X134154726Y-104222950D01*
X134154728Y-104222949D01*
X134227366Y-104208500D01*
X134301434Y-104208500D01*
X134374072Y-104222949D01*
G37*
G36*
X168336552Y-100030331D02*
G01*
X168418627Y-100064328D01*
X168418629Y-100064329D01*
X168455813Y-100089175D01*
X168492495Y-100113685D01*
X168555315Y-100176505D01*
X168604672Y-100250373D01*
X168638669Y-100332448D01*
X168656000Y-100419579D01*
X168656000Y-100508421D01*
X168638669Y-100595552D01*
X168604672Y-100677627D01*
X168604671Y-100677629D01*
X168555314Y-100751496D01*
X168492496Y-100814314D01*
X168418629Y-100863671D01*
X168418628Y-100863672D01*
X168418627Y-100863672D01*
X168336552Y-100897669D01*
X168249421Y-100915000D01*
X168160579Y-100915000D01*
X168073448Y-100897669D01*
X167991373Y-100863672D01*
X167991372Y-100863672D01*
X167991371Y-100863671D01*
X167917504Y-100814314D01*
X167854686Y-100751496D01*
X167805329Y-100677629D01*
X167805328Y-100677627D01*
X167771331Y-100595552D01*
X167754000Y-100508421D01*
X167754000Y-100419579D01*
X167771331Y-100332448D01*
X167805328Y-100250373D01*
X167854685Y-100176505D01*
X167917505Y-100113685D01*
X167954187Y-100089175D01*
X167991371Y-100064329D01*
X167991373Y-100064328D01*
X168073448Y-100030331D01*
X168160579Y-100013000D01*
X168249421Y-100013000D01*
X168336552Y-100030331D01*
G37*
G36*
X134374072Y-98380949D02*
G01*
X134374074Y-98380950D01*
X134374075Y-98380950D01*
X134442503Y-98409293D01*
X134504086Y-98450442D01*
X134556458Y-98502814D01*
X134597607Y-98564397D01*
X134625950Y-98632825D01*
X134640400Y-98705467D01*
X134640400Y-98779533D01*
X134625950Y-98852175D01*
X134597607Y-98920603D01*
X134556458Y-98982186D01*
X134504086Y-99034558D01*
X134442503Y-99075707D01*
X134374075Y-99104050D01*
X134374074Y-99104050D01*
X134374072Y-99104051D01*
X134301434Y-99118500D01*
X134227366Y-99118500D01*
X134154728Y-99104051D01*
X134154726Y-99104050D01*
X134154725Y-99104050D01*
X134086297Y-99075707D01*
X134024714Y-99034558D01*
X133972342Y-98982186D01*
X133931193Y-98920603D01*
X133902850Y-98852175D01*
X133888400Y-98779533D01*
X133888400Y-98705467D01*
X133902850Y-98632825D01*
X133931193Y-98564397D01*
X133972342Y-98502814D01*
X134024714Y-98450442D01*
X134086297Y-98409293D01*
X134154725Y-98380950D01*
X134154726Y-98380950D01*
X134154728Y-98380949D01*
X134227366Y-98366500D01*
X134301434Y-98366500D01*
X134374072Y-98380949D01*
G37*
G36*
X168336552Y-97730331D02*
G01*
X168418627Y-97764328D01*
X168418629Y-97764329D01*
X168455813Y-97789175D01*
X168492495Y-97813685D01*
X168555315Y-97876505D01*
X168604672Y-97950373D01*
X168638669Y-98032448D01*
X168656000Y-98119579D01*
X168656000Y-98208421D01*
X168638669Y-98295552D01*
X168609281Y-98366500D01*
X168604671Y-98377629D01*
X168583513Y-98409294D01*
X168556019Y-98450442D01*
X168555314Y-98451496D01*
X168492496Y-98514314D01*
X168418629Y-98563671D01*
X168418628Y-98563672D01*
X168418627Y-98563672D01*
X168336552Y-98597669D01*
X168249421Y-98615000D01*
X168160579Y-98615000D01*
X168073448Y-98597669D01*
X167991373Y-98563672D01*
X167991372Y-98563672D01*
X167991371Y-98563671D01*
X167917504Y-98514314D01*
X167854686Y-98451496D01*
X167853982Y-98450442D01*
X167826487Y-98409294D01*
X167805329Y-98377629D01*
X167800719Y-98366500D01*
X167771331Y-98295552D01*
X167754000Y-98208421D01*
X167754000Y-98119579D01*
X167771331Y-98032448D01*
X167805328Y-97950373D01*
X167854685Y-97876505D01*
X167917505Y-97813685D01*
X167954187Y-97789175D01*
X167991371Y-97764329D01*
X167991373Y-97764328D01*
X168073448Y-97730331D01*
X168160579Y-97713000D01*
X168249421Y-97713000D01*
X168336552Y-97730331D01*
G37*
G36*
X135366915Y-96802473D02*
G01*
X135470779Y-96833979D01*
X135497955Y-96848505D01*
X135566500Y-96885143D01*
X135650401Y-96953999D01*
X135719257Y-97037900D01*
X135755895Y-97106445D01*
X135770421Y-97133621D01*
X135801927Y-97237485D01*
X135812566Y-97345500D01*
X135801927Y-97453515D01*
X135770421Y-97557379D01*
X135770419Y-97557382D01*
X135719257Y-97653100D01*
X135650401Y-97737001D01*
X135566500Y-97805857D01*
X135497955Y-97842495D01*
X135470779Y-97857021D01*
X135366915Y-97888527D01*
X135285967Y-97896500D01*
X134131833Y-97896500D01*
X134050885Y-97888527D01*
X133947021Y-97857021D01*
X133919845Y-97842495D01*
X133851300Y-97805857D01*
X133767399Y-97737001D01*
X133698543Y-97653100D01*
X133647381Y-97557382D01*
X133647379Y-97557379D01*
X133615873Y-97453515D01*
X133605234Y-97345500D01*
X133615873Y-97237485D01*
X133647379Y-97133621D01*
X133661905Y-97106445D01*
X133698543Y-97037900D01*
X133767399Y-96953999D01*
X133851300Y-96885143D01*
X133919845Y-96848505D01*
X133947021Y-96833979D01*
X134050885Y-96802473D01*
X134131833Y-96794500D01*
X135285967Y-96794500D01*
X135366915Y-96802473D01*
G37*
G36*
X130936915Y-96798473D02*
G01*
X131040779Y-96829979D01*
X131048262Y-96833979D01*
X131136500Y-96881143D01*
X131220401Y-96949999D01*
X131289257Y-97033900D01*
X131325895Y-97102445D01*
X131340421Y-97129621D01*
X131371927Y-97233485D01*
X131382566Y-97341500D01*
X131371927Y-97449515D01*
X131340421Y-97553379D01*
X131340419Y-97553382D01*
X131289257Y-97649100D01*
X131220401Y-97733001D01*
X131136500Y-97801857D01*
X131067955Y-97838495D01*
X131040779Y-97853021D01*
X130936915Y-97884527D01*
X130855967Y-97892500D01*
X130201833Y-97892500D01*
X130120885Y-97884527D01*
X130017021Y-97853021D01*
X129989845Y-97838495D01*
X129921300Y-97801857D01*
X129837399Y-97733001D01*
X129768543Y-97649100D01*
X129717381Y-97553382D01*
X129717379Y-97553379D01*
X129685873Y-97449515D01*
X129675234Y-97341500D01*
X129685873Y-97233485D01*
X129717379Y-97129621D01*
X129731905Y-97102445D01*
X129768543Y-97033900D01*
X129837399Y-96949999D01*
X129921300Y-96881143D01*
X130009538Y-96833979D01*
X130017021Y-96829979D01*
X130120885Y-96798473D01*
X130201833Y-96790500D01*
X130855967Y-96790500D01*
X130936915Y-96798473D01*
G37*
G36*
X141142000Y-95357000D02*
G01*
X140290000Y-95357000D01*
X140290000Y-93155000D01*
X141142000Y-93155000D01*
X141142000Y-95357000D01*
G37*
G36*
X139872000Y-95357000D02*
G01*
X139020000Y-95357000D01*
X139020000Y-93155000D01*
X139872000Y-93155000D01*
X139872000Y-95357000D01*
G37*
G36*
X138602000Y-95357000D02*
G01*
X137750000Y-95357000D01*
X137750000Y-93155000D01*
X138602000Y-93155000D01*
X138602000Y-95357000D01*
G37*
G36*
X137332000Y-95357000D02*
G01*
X136480000Y-95357000D01*
X136480000Y-93155000D01*
X137332000Y-93155000D01*
X137332000Y-95357000D01*
G37*
G36*
X161462000Y-95357000D02*
G01*
X160610000Y-95357000D01*
X160610000Y-93155000D01*
X161462000Y-93155000D01*
X161462000Y-95357000D01*
G37*
G36*
X160192000Y-95357000D02*
G01*
X159340000Y-95357000D01*
X159340000Y-93155000D01*
X160192000Y-93155000D01*
X160192000Y-95357000D01*
G37*
G36*
X158922000Y-95357000D02*
G01*
X158070000Y-95357000D01*
X158070000Y-93155000D01*
X158922000Y-93155000D01*
X158922000Y-95357000D01*
G37*
G36*
X157652000Y-95357000D02*
G01*
X156800000Y-95357000D01*
X156800000Y-93155000D01*
X157652000Y-93155000D01*
X157652000Y-95357000D01*
G37*
G36*
X156382000Y-95357000D02*
G01*
X155530000Y-95357000D01*
X155530000Y-93155000D01*
X156382000Y-93155000D01*
X156382000Y-95357000D01*
G37*
G36*
X155112000Y-95357000D02*
G01*
X154260000Y-95357000D01*
X154260000Y-93155000D01*
X155112000Y-93155000D01*
X155112000Y-95357000D01*
G37*
G36*
X152572000Y-95357000D02*
G01*
X151720000Y-95357000D01*
X151720000Y-93155000D01*
X152572000Y-93155000D01*
X152572000Y-95357000D01*
G37*
G36*
X142412000Y-95357000D02*
G01*
X141560000Y-95357000D01*
X141560000Y-93155000D01*
X142412000Y-93155000D01*
X142412000Y-95357000D01*
G37*
G36*
X151302000Y-95357000D02*
G01*
X150450000Y-95357000D01*
X150450000Y-93155000D01*
X151302000Y-93155000D01*
X151302000Y-95357000D01*
G37*
G36*
X150032000Y-95357000D02*
G01*
X149180000Y-95357000D01*
X149180000Y-93155000D01*
X150032000Y-93155000D01*
X150032000Y-95357000D01*
G37*
G36*
X148762000Y-95357000D02*
G01*
X147910000Y-95357000D01*
X147910000Y-93155000D01*
X148762000Y-93155000D01*
X148762000Y-95357000D01*
G37*
G36*
X147492000Y-95357000D02*
G01*
X146640000Y-95357000D01*
X146640000Y-93155000D01*
X147492000Y-93155000D01*
X147492000Y-95357000D01*
G37*
G36*
X146222000Y-95357000D02*
G01*
X145370000Y-95357000D01*
X145370000Y-93155000D01*
X146222000Y-93155000D01*
X146222000Y-95357000D01*
G37*
G36*
X144952000Y-95357000D02*
G01*
X144100000Y-95357000D01*
X144100000Y-93155000D01*
X144952000Y-93155000D01*
X144952000Y-95357000D01*
G37*
G36*
X143682000Y-95357000D02*
G01*
X142830000Y-95357000D01*
X142830000Y-93155000D01*
X143682000Y-93155000D01*
X143682000Y-95357000D01*
G37*
G36*
X153842000Y-95357000D02*
G01*
X152990000Y-95357000D01*
X152990000Y-93155000D01*
X153842000Y-93155000D01*
X153842000Y-95357000D01*
G37*
G36*
X131647098Y-89060033D02*
G01*
X132111350Y-89252332D01*
X132111352Y-89252333D01*
X132529168Y-89531509D01*
X132884491Y-89886832D01*
X133019575Y-90089000D01*
X133163668Y-90304650D01*
X133355967Y-90768902D01*
X133454000Y-91261747D01*
X133454000Y-91764253D01*
X133355967Y-92257098D01*
X133234093Y-92551329D01*
X133163667Y-92721352D01*
X132884491Y-93139168D01*
X132529168Y-93494491D01*
X132111352Y-93773667D01*
X132111351Y-93773668D01*
X132111350Y-93773668D01*
X131647098Y-93965967D01*
X131154253Y-94064000D01*
X130651747Y-94064000D01*
X130158902Y-93965967D01*
X129694650Y-93773668D01*
X129694649Y-93773668D01*
X129694648Y-93773667D01*
X129276832Y-93494491D01*
X128921509Y-93139168D01*
X128642333Y-92721352D01*
X128571907Y-92551329D01*
X128450033Y-92257098D01*
X128352000Y-91764253D01*
X128352000Y-91261747D01*
X128450033Y-90768902D01*
X128642332Y-90304650D01*
X128786425Y-90089000D01*
X128921509Y-89886832D01*
X129276832Y-89531509D01*
X129694648Y-89252333D01*
X129694650Y-89252332D01*
X130158902Y-89060033D01*
X130651747Y-88962000D01*
X131154253Y-88962000D01*
X131647098Y-89060033D01*
G37*
G36*
X167649098Y-89060033D02*
G01*
X168113350Y-89252332D01*
X168113352Y-89252333D01*
X168531168Y-89531509D01*
X168886491Y-89886832D01*
X169021575Y-90089000D01*
X169165668Y-90304650D01*
X169357967Y-90768902D01*
X169456000Y-91261747D01*
X169456000Y-91764253D01*
X169357967Y-92257098D01*
X169236093Y-92551329D01*
X169165667Y-92721352D01*
X168886491Y-93139168D01*
X168531168Y-93494491D01*
X168113352Y-93773667D01*
X168113351Y-93773668D01*
X168113350Y-93773668D01*
X167649098Y-93965967D01*
X167156253Y-94064000D01*
X166653747Y-94064000D01*
X166160902Y-93965967D01*
X165696650Y-93773668D01*
X165696649Y-93773668D01*
X165696648Y-93773667D01*
X165278832Y-93494491D01*
X164923509Y-93139168D01*
X164644333Y-92721352D01*
X164573907Y-92551329D01*
X164452033Y-92257098D01*
X164354000Y-91764253D01*
X164354000Y-91261747D01*
X164452033Y-90768902D01*
X164644332Y-90304650D01*
X164788425Y-90089000D01*
X164923509Y-89886832D01*
X165278832Y-89531509D01*
X165696648Y-89252333D01*
X165696650Y-89252332D01*
X166160902Y-89060033D01*
X166653747Y-88962000D01*
X167156253Y-88962000D01*
X167649098Y-89060033D01*
G37*
G36*
X141142000Y-91757000D02*
G01*
X140290000Y-91757000D01*
X140290000Y-89555000D01*
X141142000Y-89555000D01*
X141142000Y-91757000D01*
G37*
G36*
X143682000Y-91757000D02*
G01*
X142830000Y-91757000D01*
X142830000Y-89555000D01*
X143682000Y-89555000D01*
X143682000Y-91757000D01*
G37*
G36*
X144952000Y-91757000D02*
G01*
X144100000Y-91757000D01*
X144100000Y-89555000D01*
X144952000Y-89555000D01*
X144952000Y-91757000D01*
G37*
G36*
X146222000Y-91757000D02*
G01*
X145370000Y-91757000D01*
X145370000Y-89555000D01*
X146222000Y-89555000D01*
X146222000Y-91757000D01*
G37*
G36*
X137332000Y-91757000D02*
G01*
X136480000Y-91757000D01*
X136480000Y-89555000D01*
X137332000Y-89555000D01*
X137332000Y-91757000D01*
G37*
G36*
X138602000Y-91757000D02*
G01*
X137750000Y-91757000D01*
X137750000Y-89555000D01*
X138602000Y-89555000D01*
X138602000Y-91757000D01*
G37*
G36*
X139872000Y-91757000D02*
G01*
X139020000Y-91757000D01*
X139020000Y-89555000D01*
X139872000Y-89555000D01*
X139872000Y-91757000D01*
G37*
G36*
X161462000Y-91757000D02*
G01*
X160610000Y-91757000D01*
X160610000Y-89555000D01*
X161462000Y-89555000D01*
X161462000Y-91757000D01*
G37*
G36*
X160192000Y-91757000D02*
G01*
X159340000Y-91757000D01*
X159340000Y-89555000D01*
X160192000Y-89555000D01*
X160192000Y-91757000D01*
G37*
G36*
X158922000Y-91757000D02*
G01*
X158070000Y-91757000D01*
X158070000Y-89555000D01*
X158922000Y-89555000D01*
X158922000Y-91757000D01*
G37*
G36*
X157652000Y-91757000D02*
G01*
X156800000Y-91757000D01*
X156800000Y-89555000D01*
X157652000Y-89555000D01*
X157652000Y-91757000D01*
G37*
G36*
X156382000Y-91757000D02*
G01*
X155530000Y-91757000D01*
X155530000Y-89555000D01*
X156382000Y-89555000D01*
X156382000Y-91757000D01*
G37*
G36*
X155112000Y-91757000D02*
G01*
X154260000Y-91757000D01*
X154260000Y-89555000D01*
X155112000Y-89555000D01*
X155112000Y-91757000D01*
G37*
G36*
X153842000Y-91757000D02*
G01*
X152990000Y-91757000D01*
X152990000Y-89555000D01*
X153842000Y-89555000D01*
X153842000Y-91757000D01*
G37*
G36*
X152572000Y-91757000D02*
G01*
X151720000Y-91757000D01*
X151720000Y-89555000D01*
X152572000Y-89555000D01*
X152572000Y-91757000D01*
G37*
G36*
X151302000Y-91757000D02*
G01*
X150450000Y-91757000D01*
X150450000Y-89555000D01*
X151302000Y-89555000D01*
X151302000Y-91757000D01*
G37*
G36*
X150032000Y-91757000D02*
G01*
X149180000Y-91757000D01*
X149180000Y-89555000D01*
X150032000Y-89555000D01*
X150032000Y-91757000D01*
G37*
G36*
X148762000Y-91757000D02*
G01*
X147910000Y-91757000D01*
X147910000Y-89555000D01*
X148762000Y-89555000D01*
X148762000Y-91757000D01*
G37*
G36*
X147492000Y-91757000D02*
G01*
X146640000Y-91757000D01*
X146640000Y-89555000D01*
X147492000Y-89555000D01*
X147492000Y-91757000D01*
G37*
G36*
X142412000Y-91757000D02*
G01*
X141560000Y-91757000D01*
X141560000Y-89555000D01*
X142412000Y-89555000D01*
X142412000Y-91757000D01*
G37*
M02*
